Crispy-StandardBoldBig.ufo
<glyph name="exclam" format="2">
  <advance width="535.6693284374878"/>
  <unicode hex="0021"/>
  <outline>
    <contour>
      <point x="62.42884290538235" y="484.2532331849825" type="line"/>
      <point x="473.2404855321055" y="484.2532331849825" type="line"/>
      <point x="502.3143716009752" y="1600.0" type="line"/>
      <point x="33.35495683651256" y="1600.0" type="line"/>
    </contour>
    <contour>
      <point x="33.35495683651256" y="0.0" type="line"/>
      <point x="502.3143716009752" y="0.0" type="line"/>
      <point x="502.3143716009752" y="304.1297236449036" type="line"/>
      <point x="33.35495683651256" y="304.1297236449036" type="line"/>
    </contour>
  </outline>
</glyph>
<glyph name="numbersign" format="2">
  <advance width="1725.352958588718"/>
  <unicode hex="0023"/>
  <outline>
    <contour>
      <point x="183.78650302740056" y="0.0" type="line"/>
      <point x="566.0236791877782" y="0.0" type="line"/>
      <point x="612.9636688325103" y="370.53796012359726" type="line"/>
      <point x="1012.9034515291823" y="370.53796012359726" type="line"/>
      <point x="965.5928693637891" y="0.0" type="line"/>
      <point x="1347.8300455241665" y="0.0" type="line"/>
      <point x="1394.7700351688986" y="370.53796012359726" type="line"/>
      <point x="1578.7891135234745" y="370.53796012359726" type="line"/>
      <point x="1578.7891135234745" y="696.2379601235973" type="line"/>
      <point x="1420.4877810830383" y="696.2379601235973" type="line"/>
      <point x="1457.7939430884644" y="849.1139184369051" type="line"/>
      <point x="1662.487896552214" y="849.1139184369051" type="line"/>
      <point x="1662.487896552214" y="1174.8139184369052" type="line"/>
      <point x="1482.5936941971786" y="1174.8139184369052" type="line"/>
      <point x="1537.0011038509913" y="1600.0" type="line"/>
      <point x="1154.850646838984" y="1600.0" type="line"/>
      <point x="1100.727110557462" y="1174.8139184369052" type="line"/>
      <point x="700.7873278607901" y="1174.8139184369052" type="line"/>
      <point x="755.194737514603" y="1600.0" type="line"/>
      <point x="373.0442805025955" y="1600.0" type="line"/>
      <point x="318.9207442210736" y="1174.8139184369052" type="line"/>
      <point x="147.21831095819536" y="1174.8139184369052" type="line"/>
      <point x="147.21831095819536" y="849.1139184369051" type="line"/>
      <point x="293.7504005916986" y="849.1139184369051" type="line"/>
      <point x="256.8715903123065" y="696.2379601235973" type="line"/>
      <point x="63.23565455716526" y="696.2379601235973" type="line"/>
      <point x="63.23565455716526" y="370.53796012359726" type="line"/>
      <point x="231.09708519279377" y="370.53796012359726" type="line"/>
    </contour>
    <contour>
      <point x="638.7381739520231" y="696.2379601235973" type="line"/>
      <point x="675.9875767520762" y="849.1139184369051" type="line"/>
      <point x="1075.5567669280872" y="849.1139184369051" type="line"/>
      <point x="1038.6211974433218" y="696.2379601235973" type="line"/>
    </contour>
  </outline>
</glyph>
<glyph name="dollar" format="2">
  <advance width="1697.1086651991805"/>
  <unicode hex="0024"/>
  <anchor x="849.0175452601252" y="0.0" name="bottom"/>
  <anchor x="849.0175452601252" y="1600.0" name="top"/>
  <outline>
    <contour>
      <point x="887.9001802473256" y="-108.46577703935674" type="line"/>
      <point x="947.5704742178793" y="-108.46577703935674" type="line"/>
      <point x="947.5704742178793" y="1703.8192196950267" type="line"/>
      <point x="887.9001802473256" y="1703.8192196950267" type="line"/>
    </contour>
    <component base="S" xOffset="-10.690533625953623"/>
  </outline>
</glyph>
<glyph name="percent" format="2">
  <advance width="2106.9553549172224"/>
  <unicode hex="0025"/>
  <outline>
    <contour>
      <point x="362.95560643866736" y="0.0" type="line"/>
      <point x="640.8040247668392" y="0.0" type="line"/>
      <point x="1743.7894497851935" y="1600.0" type="line"/>
      <point x="1466.2249048293127" y="1600.0" type="line"/>
    </contour>
    <contour>
      <point x="105.78611168265775" y="486.09508359727545" type="curve" smooth="yes"/>
      <point x="844.4409794647983" y="486.09508359727545" type="line" smooth="yes"/>
      <point x="862.251395921723" y="486.09508359727545"/>
      <point x="878.7022800189142" y="489.1492012013408"/>
      <point x="889.1217634771604" y="502.2252762299354" type="curve" smooth="yes"/>
      <point x="1025.893168966837" y="692.1290242167868" type="line" smooth="yes"/>
      <point x="1036.4314999156118" y="703.6988589700103"/>
      <point x="1039.700965134877" y="717.4289844948324"/>
      <point x="1039.700965134877" y="735.7780551018288" type="curve" smooth="yes"/>
      <point x="1039.700965134877" y="1158.574824882854" type="line" smooth="yes"/>
      <point x="1039.700965134877" y="1176.0227018487003"/>
      <point x="1027.2527402569503" y="1187.1014713268103"/>
      <point x="1003.3802908336828" y="1187.1014713268103" type="curve" smooth="yes"/>
      <point x="264.75657781677364" y="1187.1014713268103" type="line" smooth="yes"/>
      <point x="246.72239843838054" y="1187.1014713268103"/>
      <point x="230.4610836127478" y="1183.599827879808"/>
      <point x="219.98148970367907" y="1170.9712786941502" type="curve" smooth="yes"/>
      <point x="82.48930883581556" y="981.1969895280349" type="line" smooth="yes"/>
      <point x="72.00708838309124" y="969.0712192916083"/>
      <point x="69.05210518843683" y="955.5438075077848"/>
      <point x="69.05210518843683" y="937.5479586429929" type="curve" smooth="yes"/>
      <point x="69.05210518843683" y="514.3979671197633" type="line" smooth="yes"/>
      <point x="69.05210518843683" y="496.95009015391685"/>
      <point x="82.61086782470838" y="486.09508359727545"/>
    </contour>
    <contour>
      <point x="410.6376942585629" y="608.9835294586925" type="line" smooth="yes"/>
      <point x="402.40321201140915" y="608.9835294586925"/>
      <point x="397.77397072153934" y="613.4833119278263"/>
      <point x="397.77397072153934" y="622.352823159657" type="curve" smooth="yes"/>
      <point x="397.77397072153934" y="964.7691776460154" type="line" smooth="yes"/>
      <point x="397.77397072153934" y="970.4527406240943"/>
      <point x="399.0485263449566" y="979.0026888942828"/>
      <point x="402.6368646010043" y="985.2630799975182" type="curve" smooth="yes"/>
      <point x="450.02089570362375" y="1055.2547245588971" type="line" smooth="yes"/>
      <point x="454.1363191636566" y="1063.1458105460615"/>
      <point x="458.6689866437147" y="1065.6258311612887"/>
      <point x="466.37758057834174" y="1065.6258311612887" type="curve" smooth="yes"/>
      <point x="698.2448348854869" y="1065.6258311612887" type="line" smooth="yes"/>
      <point x="705.6953924189525" y="1065.6258311612887"/>
      <point x="710.9790996017744" y="1060.9022857706861"/>
      <point x="710.9790996017744" y="1052.463477510339" type="curve" smooth="yes"/>
      <point x="710.9790996017744" y="707.5230090644759" type="line" smooth="yes"/>
      <point x="710.9790996017744" y="701.9862756855892"/>
      <point x="710.2519462631217" y="693.2894978162083"/>
      <point x="706.3399686437779" y="686.8053437915045" type="curve" smooth="yes"/>
      <point x="655.8015313534424" y="619.2810613821537" type="line" smooth="yes"/>
      <point x="651.6988747987609" y="611.5068450511851"/>
      <point x="647.2651152925407" y="608.9835294586925"/>
      <point x="639.4448464787245" y="608.9835294586925" type="curve" smooth="yes"/>
    </contour>
    <contour>
      <point x="1104.2121591980347" y="412.89852867318984" type="curve" smooth="yes"/>
      <point x="1842.6432640587068" y="412.89852867318984" type="line" smooth="yes"/>
      <point x="1860.4536805156313" y="412.89852867318984"/>
      <point x="1877.1283275342912" y="416.0295795995312"/>
      <point x="1887.3240480710688" y="429.02872130584984" type="curve" smooth="yes"/>
      <point x="2024.6898090028749" y="618.5618767720403" type="line" smooth="yes"/>
      <point x="2034.8407245595354" y="630.7693545467625"/>
      <point x="2037.903249728785" y="644.4561924922152"/>
      <point x="2037.903249728785" y="662.5815001777435" type="curve" smooth="yes"/>
      <point x="2037.903249728785" y="1085.2915508103983" type="line" smooth="yes"/>
      <point x="2037.903249728785" y="1103.110020296906"/>
      <point x="2025.3949144000362" y="1113.5343238820635"/>
      <point x="2002.1769308697208" y="1113.5343238820635" type="curve" smooth="yes"/>
      <point x="1262.958862410682" y="1113.5343238820635" type="line" smooth="yes"/>
      <point x="1245.1484459537573" y="1113.5343238820635"/>
      <point x="1229.2577236487857" y="1110.0326804350614"/>
      <point x="1218.7781297397169" y="1097.4041312494037" type="curve" smooth="yes"/>
      <point x="1081.2859488718536" y="908.0004346039492" type="line" smooth="yes"/>
      <point x="1070.1492625261772" y="895.443961396039"/>
      <point x="1067.4781527038137" y="882.2004229845066"/>
      <point x="1067.4781527038137" y="864.4115141697296" type="curve" smooth="yes"/>
      <point x="1067.4781527038137" y="441.4251751171462" type="line" smooth="yes"/>
      <point x="1067.4781527038137" y="423.60670563063866"/>
      <point x="1081.0369153400852" y="412.89852867318984"/>
    </contour>
    <contour>
      <point x="1409.06374177394" y="535.7869745346068" type="line" smooth="yes"/>
      <point x="1400.829259526786" y="535.7869745346068"/>
      <point x="1396.200018236916" y="540.5706303760318"/>
      <point x="1396.200018236916" y="549.0094386363788" type="curve" smooth="yes"/>
      <point x="1396.200018236916" y="891.5726227219297" type="line" smooth="yes"/>
      <point x="1396.200018236916" y="897.1093561008163"/>
      <point x="1397.250810938865" y="905.8061339701973"/>
      <point x="1400.8391491949126" y="912.3503984457236" type="curve" smooth="yes"/>
      <point x="1448.4469432190008" y="981.7476875649731" type="line" smooth="yes"/>
      <point x="1452.338603757565" y="989.578663101315"/>
      <point x="1457.0950341590915" y="992.058683716542"/>
      <point x="1464.57986517225" y="992.058683716542" type="curve" smooth="yes"/>
      <point x="1696.6708824008633" y="992.058683716542" type="line" smooth="yes"/>
      <point x="1703.897677012861" y="992.058683716542"/>
      <point x="1709.1813841956825" y="987.929493768069"/>
      <point x="1709.1813841956825" y="979.1200929870611" type="curve" smooth="yes"/>
      <point x="1709.1813841956825" y="634.3865645912128" type="line" smooth="yes"/>
      <point x="1709.1813841956825" y="628.7030016131337"/>
      <point x="1708.0235278855464" y="619.94611329293"/>
      <point x="1704.1115502662026" y="613.8325517888873" type="curve" smooth="yes"/>
      <point x="1654.5981713894803" y="546.0845064580683" type="line" smooth="yes"/>
      <point x="1650.0648118633153" y="538.2670025477303"/>
      <point x="1645.6911628079174" y="535.7869745346068"/>
      <point x="1637.8708939941014" y="535.7869745346068" type="curve" smooth="yes"/>
    </contour>
  </outline>
</glyph>
<glyph name="ampersand" format="2">
  <advance width="2601.548510565555"/>
  <unicode hex="0026"/>
  <outline>
    <contour>
      <point x="2085.5338835620664" y="0.0" type="line"/>
      <point x="2591.0050591175345" y="0.0" type="line"/>
      <point x="2233.3994325729914" y="774.0594223335219" type="line"/>
      <point x="1386.3109466082249" y="774.0594223335219" type="line"/>
      <point x="1119.2378193746576" y="327.9261450266313" type="line"/>
      <point x="547.244843460149" y="326.80146168197456" type="line"/>
      <point x="547.244843460149" y="610.8298177962026" type="line"/>
      <point x="1035.4086928197069" y="611.5048028157101" type="line"/>
      <point x="1035.4086928197069" y="1080.6600175404567" type="line"/>
      <point x="1142.4173483655443" y="1274.3000000000002" type="line"/>
      <point x="1592.5876229619494" y="1274.3000000000002" type="line"/>
      <point x="1592.5876229619494" y="808.9209524966885" type="line"/>
      <point x="2061.5470377264123" y="808.9209524966885" type="line"/>
      <point x="2061.5470377264123" y="1600.0" type="line"/>
      <point x="762.9354392635848" y="1600.0" type="line"/>
      <point x="585.2730385001648" y="1165.063824934888" type="line"/>
      <point x="585.2730385001648" y="846.557797112003" type="line"/>
      <point x="78.65602121634738" y="846.557797112003" type="line"/>
      <point x="78.65602121634738" y="0.0" type="line"/>
      <point x="1480.3690555933088" y="0.0" type="line"/>
      <point x="1778.6700868468693" y="534.9254972503838" type="line"/>
      <point x="1805.753255665576" y="534.9254972503838" type="line"/>
    </contour>
  </outline>
</glyph>
<glyph name="quotesingle" format="2">
  <advance width="550.3153594933596"/>
  <unicode hex="0027"/>
  <outline>
    <contour>
      <point x="72.10940986916525" y="976.5468519867873" type="line"/>
      <point x="477.83535710353317" y="976.5468519867873" type="line"/>
      <point x="507.4768352261339" y="1600.0" type="line"/>
      <point x="42.46793174656452" y="1600.0" type="line"/>
    </contour>
  </outline>
</glyph>
<glyph name="parenleft" format="2">
  <advance width="882.7396967277375"/>
  <unicode hex="0028"/>
  <outline>
    <contour>
      <point x="119.32388306544915" y="0.0" type="line"/>
      <point x="552.3157662071087" y="0.0" type="line"/>
      <point x="552.3157662071087" y="1227.4973001544397" type="line"/>
      <point x="616.561267816452" y="1395.7423878552286" type="line"/>
      <point x="835.3184987897284" y="1395.7423878552286" type="line"/>
      <point x="835.3184987897284" y="1733.9901581127813" type="line"/>
      <point x="246.6325581895902" y="1733.9901581127813" type="line"/>
      <point x="119.32388306544915" y="1269.8728974501662" type="line"/>
    </contour>
  </outline>
</glyph>
<glyph name="asterisk" format="2">
  <advance width="912.032768671362"/>
  <unicode hex="002A"/>
  <outline>
    <contour>
      <point x="420.2317232529897" y="922.7271525900544" type="line"/>
      <point x="515.4885998953671" y="1184.9335754467606" type="line"/>
      <point x="538.864100847556" y="972.4628163553871" type="line"/>
      <point x="777.2579462914614" y="1077.993886806828" type="line"/>
      <point x="543.9674215479467" y="1298.4080688323907" type="line"/>
      <point x="802.9640961833185" y="1265.9117681691473" type="line"/>
      <point x="771.2817100711758" y="1457.9839581094006" type="line"/>
      <point x="491.16073504640985" y="1360.321734224824" type="line"/>
      <point x="597.6854144683239" y="1547.7360614079957" type="line"/>
      <point x="262.16517365145637" y="1574.9488217660983" type="line"/>
      <point x="360.87077362731935" y="1294.838735052376" type="line"/>
      <point x="140.7459793299914" y="1394.535231236431" type="line"/>
      <point x="49.64568413699655" y="1215.9576471067858" type="line"/>
      <point x="373.0087712110349" y="1210.2580409544335" type="line"/>
      <point x="195.0688960126369" y="1074.293514976211" type="line"/>
    </contour>
  </outline>
</glyph>
<glyph name="plus" format="2">
  <advance width="1214.9375006542887"/>
  <unicode hex="002B"/>
  <outline>
    <contour>
      <point x="241.5475836754331" y="448.10085329977926" type="line"/>
      <point x="973.0193244581947" y="448.10085329977926" type="line"/>
      <point x="973.0193244581947" y="1075.39055494706" type="line"/>
      <point x="241.5475836754331" y="1075.39055494706" type="line"/>
    </contour>
    <contour>
      <point x="276.8509491543954" y="541.1753991311474" type="line"/>
      <point x="937.2939669469982" y="541.1753991311474" type="line"/>
      <point x="937.2939669469982" y="984.168971718997" type="line"/>
      <point x="276.8509491543954" y="984.168971718997" type="line"/>
    </contour>
  </outline>
</glyph>
<glyph name="hyphen" format="2">
  <advance width="823.3839555343559"/>
  <unicode hex="002D"/>
  <outline>
    <contour>
      <point x="91.52881619815929" y="558.3897713115343" type="line"/>
      <point x="731.8551393361965" y="558.3897713115343" type="line"/>
      <point x="731.8551393361965" y="841.6102286884657" type="line"/>
      <point x="91.52881619815929" y="841.6102286884657" type="line"/>
    </contour>
  </outline>
</glyph>
<glyph name="period" format="2">
  <advance width="535.6693284374878"/>
  <unicode hex="002E"/>
  <outline>
    <contour>
      <point x="33.35495683651256" y="0.0" type="line"/>
      <point x="502.3143716009752" y="0.0" type="line"/>
      <point x="502.3143716009752" y="304.1297236449036" type="line"/>
      <point x="33.35495683651256" y="304.1297236449036" type="line"/>
    </contour>
  </outline>
</glyph>
<glyph name="zero" format="2">
  <advance width="1765.2431748128115"/>
  <unicode hex="0030"/>
  <outline>
    <contour>
      <point x="133.9298617123984" y="0.0" type="curve" smooth="yes"/>
      <point x="1631.3133131004129" y="0.0" type="line" smooth="yes"/>
      <point x="1657.4568157629606" y="0.0"/>
      <point x="1672.242903437437" y="14.415495153815511"/>
      <point x="1672.242903437437" y="40.92959033702411" type="curve" smooth="yes"/>
      <point x="1672.242903437437" y="1559.070409662976" type="line" smooth="yes"/>
      <point x="1672.242903437437" y="1584.9300389532327"/>
      <point x="1657.4568157629606" y="1600.0"/>
      <point x="1631.3133131004129" y="1600.0" type="curve" smooth="yes"/>
      <point x="133.9298617123984" y="1600.0" type="line" smooth="yes"/>
      <point x="108.126991627515" y="1600.0"/>
      <point x="93.00027137537433" y="1585.5845048461847"/>
      <point x="93.00027137537433" y="1559.070409662976" type="curve" smooth="yes"/>
      <point x="93.00027137537433" y="40.92959033702411" type="line" smooth="yes"/>
      <point x="93.00027137537433" y="15.069961046767572"/>
      <point x="108.126991627515" y="0.0"/>
    </contour>
    <contour>
      <point x="561.959686139837" y="304.3140516386133" type="curve" smooth="yes"/>
      <point x="561.959686139837" y="1295.6859483613866" type="line" smooth="yes"/>
      <point x="561.959686139837" y="1307.8775171887478"/>
      <point x="569.8934123659179" y="1316.4089501024077"/>
      <point x="582.6826878808579" y="1316.4089501024077" type="curve" smooth="yes"/>
      <point x="1182.8443603042444" y="1316.4089501024077" type="line" smooth="yes"/>
      <point x="1195.0359291316056" y="1316.4089501024077"/>
      <point x="1203.2834886729743" y="1308.5319830816998"/>
      <point x="1203.2834886729743" y="1295.6859483613866" type="curve" smooth="yes"/>
      <point x="1203.2834886729743" y="304.3140516386133" type="line" smooth="yes"/>
      <point x="1203.2834886729743" y="292.1224828112523"/>
      <point x="1195.9709171513991" y="283.5910498975925"/>
      <point x="1183.124882431086" y="283.5910498975925" type="curve" smooth="yes"/>
      <point x="582.4021657540162" y="283.5910498975925" type="line" smooth="yes"/>
      <point x="569.9834827597374" y="283.5910498975925"/>
      <point x="561.959686139837" y="291.46801691830024"/>
    </contour>
  </outline>
</glyph>
<glyph name="one" format="2">
  <advance width="1343.4141231994593"/>
  <unicode hex="0031"/>
  <outline>
    <contour>
      <point x="64.76797915416935" y="0.0" type="line"/>
      <point x="1306.4916800338492" y="0.0" type="line"/>
      <point x="1306.4916800338492" y="284.5173269781368" type="line"/>
      <point x="932.0730438990307" y="284.5173269781368" type="line"/>
      <point x="932.0730438990307" y="1559.070409662976" type="line" smooth="yes"/>
      <point x="932.0730438990307" y="1584.9300389532327"/>
      <point x="917.0030828522632" y="1600.0"/>
      <point x="891.1434535620066" y="1600.0" type="curve" smooth="yes"/>
      <point x="82.89714278413541" y="1600.0" type="line"/>
      <point x="82.89714278413541" y="1315.4826730218633" type="line"/>
      <point x="440.7710229729759" y="1315.4826730218633" type="line" smooth="yes"/>
      <point x="454.2415636432441" y="1315.4826730218633"/>
      <point x="463.113629134568" y="1306.8944809028303"/>
      <point x="463.113629134568" y="1293.053347711901" type="curve" smooth="yes"/>
      <point x="463.113629134568" y="284.60739737195627" type="line"/>
      <point x="64.76797915416935" y="284.5173269781368" type="line"/>
    </contour>
  </outline>
</glyph>
<glyph name="two" format="2">
  <advance width="1754.1310349467656"/>
  <unicode hex="0032"/>
  <outline>
    <contour>
      <point x="123.1653421342979" y="0.0" type="curve" smooth="yes"/>
      <point x="1678.2731615641442" y="0.0" type="line"/>
      <point x="1678.2731615641442" y="283.5910498975925" type="line"/>
      <point x="565.656594402151" y="283.5910498975925" type="line" smooth="yes"/>
      <point x="556.5824596433393" y="283.5910498975925"/>
      <point x="551.1951665617365" y="288.6645096639074"/>
      <point x="551.1951665617365" y="297.738644422719" type="curve" smooth="yes"/>
      <point x="551.1951665617365" y="605.6561364874935" type="line" smooth="yes"/>
      <point x="551.1951665617365" y="614.3596787256442"/>
      <point x="556.5824596433393" y="620.401437700199"/>
      <point x="565.656594402151" y="620.401437700199" type="curve" smooth="yes"/>
      <point x="1630.7772814489356" y="620.1952189166824" type="line" smooth="yes"/>
      <point x="1655.925685640867" y="620.1952189166824"/>
      <point x="1671.0524058930077" y="634.6107140704978"/>
      <point x="1671.0524058930077" y="661.1248092537064" type="curve" smooth="yes"/>
      <point x="1671.0524058930077" y="1559.070409662976" type="line" smooth="yes"/>
      <point x="1671.0524058930077" y="1584.9300389532327"/>
      <point x="1656.5801515338192" y="1600.0"/>
      <point x="1630.7772814489356" y="1600.0" type="curve" smooth="yes"/>
      <point x="134.5611556905087" y="1600.0" type="line" smooth="yes"/>
      <point x="108.75828560562528" y="1600.0"/>
      <point x="93.91543872577563" y="1585.5845048461847"/>
      <point x="93.91543872577563" y="1559.070409662976" type="curve" smooth="yes"/>
      <point x="93.91543872577563" y="1108.7175837364266" type="line"/>
      <point x="562.8748534902383" y="1108.7175837364266" type="line"/>
      <point x="562.8748534902383" y="1302.261355577281" type="line" smooth="yes"/>
      <point x="562.8748534902383" y="1310.6810244431408"/>
      <point x="573.7884252455978" y="1316.4089501024077"/>
      <point x="581.7706420738779" y="1316.4089501024077" type="curve" smooth="yes"/>
      <point x="1183.1972025449054" y="1316.4089501024077" type="line" smooth="yes"/>
      <point x="1190.8088268525246" y="1316.4089501024077"/>
      <point x="1202.463583649206" y="1311.3354903360928"/>
      <point x="1202.463583649206" y="1302.261355577281" type="curve" smooth="yes"/>
      <point x="1202.463583649206" y="928.3667502807846" type="line" smooth="yes"/>
      <point x="1202.463583649206" y="919.947081414925"/>
      <point x="1197.01953136223" y="913.8485632349968"/>
      <point x="1187.9453966034184" y="913.8485632349968" type="curve" smooth="yes"/>
      <point x="123.1653421342979" y="914.4253745391748" type="line" smooth="yes"/>
      <point x="97.67630536470243" y="914.4253745391748"/>
      <point x="82.60634431793484" y="899.355413492407"/>
      <point x="82.60634431793484" y="873.4957842021506" type="curve" smooth="yes"/>
      <point x="82.60634431793484" y="40.92959033702411" type="line" smooth="yes"/>
      <point x="82.60634431793484" y="15.069961046767572"/>
      <point x="97.02183947175035" y="0.0"/>
    </contour>
  </outline>
</glyph>
<glyph name="three" format="2">
  <advance width="1790.3985302834492"/>
  <unicode hex="0033"/>
  <outline>
    <contour>
      <point x="125.91368831364483" y="0.0" type="curve" smooth="yes"/>
      <point x="1676.2826921854185" y="0.0" type="line" smooth="yes"/>
      <point x="1702.426194847966" y="0.0"/>
      <point x="1717.2122825224424" y="14.280957062884692"/>
      <point x="1717.2122825224424" y="40.92959033702411" type="curve" smooth="yes"/>
      <point x="1717.3468206133734" y="903.9234107700761" type="line" smooth="yes"/>
      <point x="1717.3468206133734" y="929.4124475396716"/>
      <point x="1702.560732938897" y="944.8530011071"/>
      <point x="1676.417230276349" y="944.8530011071" type="curve" smooth="yes"/>
      <point x="1489.7862244433525" y="944.8530011071" type="line"/>
      <point x="1646.4853500330094" y="1086.2722515882183" type="line" smooth="yes"/>
      <point x="1661.1725238695349" y="1097.9223258995344"/>
      <point x="1668.8256410901383" y="1109.8795231312952"/>
      <point x="1668.8256410901383" y="1125.7784531754628" type="curve" smooth="yes"/>
      <point x="1668.8256410901383" y="1559.070409662976" type="line" smooth="yes"/>
      <point x="1668.8256410901383" y="1584.9300389532327"/>
      <point x="1653.7556800433704" y="1600.0"/>
      <point x="1627.896050753114" y="1600.0" type="curve" smooth="yes"/>
      <point x="168.59305220757795" y="1600.0" type="line" smooth="yes"/>
      <point x="142.44954954503038" y="1600.0"/>
      <point x="127.66346187055382" y="1585.5845048461847"/>
      <point x="127.66346187055382" y="1559.070409662976" type="curve" smooth="yes"/>
      <point x="127.66346187055382" y="1104.0947007723664" type="line"/>
      <point x="596.2522841143555" y="1104.0947007723664" type="line"/>
      <point x="596.2522841143555" y="1301.736526245876" type="line" smooth="yes"/>
      <point x="596.6228766350165" y="1310.8973801530578"/>
      <point x="602.2211657327365" y="1316.4089501024077"/>
      <point x="611.2953004915481" y="1316.4089501024077" type="curve" smooth="yes"/>
      <point x="1185.1938024691437" y="1316.4089501024077" type="line" smooth="yes"/>
      <point x="1194.2679372279554" y="1316.4089501024077"/>
      <point x="1200.2368188463363" y="1310.8106610046877"/>
      <point x="1200.2368188463363" y="1301.736526245876" type="curve" smooth="yes"/>
      <point x="1200.2368188463363" y="1125.8910965226419" type="line" smooth="yes"/>
      <point x="1200.2368188463363" y="1110.085588117743"/>
      <point x="1192.302530789569" y="1097.7544471198717"/>
      <point x="1177.896527789208" y="1086.4975382825764" type="curve" smooth="yes"/>
      <point x="1020.5564065780977" y="944.8530011071" type="line"/>
      <point x="493.7847999012445" y="944.8530011071" type="line"/>
      <point x="493.7847999012445" y="661.2619512095076" type="line"/>
      <point x="1214.9341948384754" y="661.2619512095076" type="line" smooth="yes"/>
      <point x="1236.3106990689055" y="661.2619512095076"/>
      <point x="1248.3874058489107" y="649.1852444295025"/>
      <point x="1248.3874058489107" y="627.4381476784115" type="curve" smooth="yes"/>
      <point x="1248.2528677579799" y="298.2634737541241" type="line" smooth="yes"/>
      <point x="1248.2528677579799" y="289.70926679733367"/>
      <point x="1242.65457866026" y="283.5910498975925"/>
      <point x="1233.5804439014482" y="283.5910498975925" type="curve" smooth="yes"/>
      <point x="568.615936597615" y="283.5910498975925" type="line" smooth="yes"/>
      <point x="559.5418018388034" y="283.5910498975925"/>
      <point x="553.5729202204222" y="289.1893389953124"/>
      <point x="553.5729202204222" y="298.2634737541241" type="curve" smooth="yes"/>
      <point x="553.5729202204222" y="556.3270547598805" type="line"/>
      <point x="84.9840979766207" y="556.3270547598805" type="line"/>
      <point x="84.9840979766207" y="40.92959033702411" type="line" smooth="yes"/>
      <point x="84.9840979766207" y="15.069961046767572"/>
      <point x="99.77018565109726" y="0.0"/>
    </contour>
  </outline>
</glyph>
<glyph name="four" format="2">
  <advance width="1753.7409544042218"/>
  <unicode hex="0034"/>
  <outline>
    <contour>
      <point x="1154.2973794987765" y="0.0" type="line"/>
      <point x="1622.8862017425784" y="0.0" type="line"/>
      <point x="1622.8862017425784" y="620.1129937740038" type="line"/>
      <point x="1725.2486786183572" y="620.1129937740038" type="line"/>
      <point x="1725.2486786183572" y="903.7040436715962" type="line"/>
      <point x="1622.8862017425784" y="903.7040436715962" type="line"/>
      <point x="1622.8862017425784" y="1600.0" type="line"/>
      <point x="1154.2973794987765" y="1600.0" type="line"/>
      <point x="1154.2973794987765" y="903.7040436715962" type="line"/>
      <point x="539.8313954787955" y="903.7040436715962" type="line" smooth="yes"/>
      <point x="516.3025957074353" y="903.7040436715962"/>
      <point x="505.0963494517654" y="914.8803299842692"/>
      <point x="505.0963494517654" y="937.1601178557191" type="curve" smooth="yes"/>
      <point x="505.0963494517654" y="994.0647283901558" type="line"/>
      <point x="582.1480758643322" y="1600.0" type="line"/>
      <point x="113.18866109986955" y="1600.0" type="line"/>
      <point x="36.50752720796375" y="994.7950010534549" type="line"/>
      <point x="36.50752720796375" y="661.0425841110278" type="line" smooth="yes"/>
      <point x="36.50752720796375" y="635.5535473414325"/>
      <point x="50.92302236177926" y="620.1129937740038"/>
      <point x="77.06652502432681" y="620.1129937740038" type="curve" smooth="yes"/>
      <point x="1154.2973794987765" y="620.1129937740038" type="line"/>
    </contour>
  </outline>
</glyph>
<glyph name="five" format="2">
  <advance width="1768.2207734875751"/>
  <unicode hex="0035"/>
  <outline>
    <contour>
      <point x="125.61239258014524" y="0.0" type="curve" smooth="yes"/>
      <point x="1652.8074828576032" y="0.0" type="line" smooth="yes"/>
      <point x="1678.9509855201509" y="0.0"/>
      <point x="1693.7370731946273" y="14.415495153815511"/>
      <point x="1693.7370731946273" y="40.92959033702411" type="curve" smooth="yes"/>
      <point x="1693.7370731946273" y="901.0512308721027" type="line" smooth="yes"/>
      <point x="1693.7370731946273" y="926.5402676416982"/>
      <point x="1678.9509855201509" y="941.6102286884659"/>
      <point x="1652.8074828576032" y="941.6102286884659" type="curve" smooth="yes"/>
      <point x="566.2082229959321" y="941.6102286884659" type="line" smooth="yes"/>
      <point x="557.5046807577817" y="941.6102286884659"/>
      <point x="551.4061625778536" y="947.0542809754418"/>
      <point x="551.4061625778536" y="956.1284157342533" type="curve" smooth="yes"/>
      <point x="551.4061625778536" y="1302.261355577281" type="line" smooth="yes"/>
      <point x="551.4061625778536" y="1310.6810244431408"/>
      <point x="557.1340882371206" y="1316.4089501024077"/>
      <point x="566.2082229959321" y="1316.4089501024077" type="curve" smooth="yes"/>
      <point x="1693.7370731946273" y="1316.4089501024077" type="line"/>
      <point x="1693.7370731946273" y="1600.0" type="line"/>
      <point x="123.74693067107609" y="1600.0" type="line" smooth="yes"/>
      <point x="97.94406058619265" y="1600.0"/>
      <point x="82.81734033405196" y="1585.5845048461847"/>
      <point x="82.81734033405196" y="1559.070409662976" type="curve" smooth="yes"/>
      <point x="82.81734033405196" y="698.9487691278973" type="line" smooth="yes"/>
      <point x="82.81734033405196" y="673.4597323583018"/>
      <point x="97.94406058619265" y="658.3897713115343"/>
      <point x="123.74693067107609" y="658.3897713115343" type="curve" smooth="yes"/>
      <point x="1210.686823110411" y="658.3897713115343" type="line" smooth="yes"/>
      <point x="1219.3903653485618" y="658.3897713115343"/>
      <point x="1225.1482509508255" y="652.4208896931534"/>
      <point x="1225.1482509508255" y="643.3467549343417" type="curve" smooth="yes"/>
      <point x="1225.1482509508255" y="298.2634737541241" type="line" smooth="yes"/>
      <point x="1225.1482509508255" y="289.84380488826446"/>
      <point x="1219.7609578692227" y="283.5910498975925"/>
      <point x="1210.686823110411" y="283.5910498975925" type="curve" smooth="yes"/>
      <point x="568.0736849050014" y="283.5910498975925" type="line" smooth="yes"/>
      <point x="559.3701426668508" y="283.5910498975925"/>
      <point x="553.2716244869227" y="289.1893389953124"/>
      <point x="553.2716244869227" y="298.2634737541241" type="curve" smooth="yes"/>
      <point x="553.2716244869227" y="481.3096221330581" type="line"/>
      <point x="84.68280224312116" y="481.3096221330581" type="line"/>
      <point x="84.68280224312116" y="40.92959033702411" type="line" smooth="yes"/>
      <point x="84.68280224312116" y="15.069961046767572"/>
      <point x="99.80952249526182" y="0.0"/>
    </contour>
  </outline>
</glyph>
<glyph name="six" format="2">
  <advance width="1753.9952719334135"/>
  <unicode hex="0036"/>
  <outline>
    <contour>
      <point x="143.6474882358262" y="0.0" type="curve" smooth="yes"/>
      <point x="1624.182698317467" y="0.0" type="line" smooth="yes"/>
      <point x="1656.5207452900086" y="0.0"/>
      <point x="1674.4593226572579" y="18.365929093283263"/>
      <point x="1674.4593226572579" y="49.99275096749983" type="curve" smooth="yes"/>
      <point x="1674.4593226572579" y="891.617477720966" type="line" smooth="yes"/>
      <point x="1674.4593226572579" y="923.2442995951825"/>
      <point x="1656.5207452900086" y="941.6102286884659"/>
      <point x="1624.182698317467" y="941.6102286884659" type="curve" smooth="yes"/>
      <point x="561.959686139837" y="941.6102286884659" type="line"/>
      <point x="561.959686139837" y="1294.6307394399478" type="line" smooth="yes"/>
      <point x="561.959686139837" y="1307.8174067379252"/>
      <point x="569.8967636113674" y="1316.4089501024077"/>
      <point x="583.7378968022965" y="1316.4089501024077" type="curve" smooth="yes"/>
      <point x="1163.8332771950852" y="1316.4089501024077" type="line" smooth="yes"/>
      <point x="1177.3038178653533" y="1316.4089501024077"/>
      <point x="1185.9820803782056" y="1308.4718726308774"/>
      <point x="1185.9820803782056" y="1294.6307394399478" type="curve" smooth="yes"/>
      <point x="1185.9820803782056" y="1085.674856388235" type="line"/>
      <point x="1654.5709026220075" y="1085.674856388235" type="line"/>
      <point x="1654.5709026220075" y="1550.0072490325003" type="line" smooth="yes"/>
      <point x="1654.5709026220075" y="1581.634070906717"/>
      <point x="1636.2617327340972" y="1600.0"/>
      <point x="1604.2942782822165" y="1600.0" type="curve" smooth="yes"/>
      <point x="143.6474882358262" y="1600.0" type="line" smooth="yes"/>
      <point x="111.36620046865758" y="1600.0"/>
      <point x="93.00027137537433" y="1581.634070906717"/>
      <point x="93.00027137537433" y="1550.0072490325003" type="curve" smooth="yes"/>
      <point x="93.00027137537433" y="49.99275096749983" type="line" smooth="yes"/>
      <point x="93.00027137537433" y="18.365929093283263"/>
      <point x="111.36620046865758" y="0.0"/>
    </contour>
    <contour>
      <point x="1205.870500413456" y="636.2409681284137" type="curve" smooth="yes"/>
      <point x="1205.870500413456" y="305.36926056005206" type="line" smooth="yes"/>
      <point x="1205.870500413456" y="292.1825932620749"/>
      <point x="1197.5628304212646" y="283.5910498975925"/>
      <point x="1184.0922897509965" y="283.5910498975925" type="curve" smooth="yes"/>
      <point x="583.7378968022965" y="283.5910498975925" type="line" smooth="yes"/>
      <point x="570.2673561320285" y="283.5910498975925"/>
      <point x="561.959686139837" y="291.5281273691228"/>
      <point x="561.959686139837" y="305.36926056005206" type="curve" smooth="yes"/>
      <point x="561.959686139837" y="658.3897713115343" type="line"/>
      <point x="1184.0922897509965" y="658.3897713115343" type="line" smooth="yes"/>
      <point x="1197.5628304212646" y="658.3897713115343"/>
      <point x="1205.870500413456" y="650.0821013193429"/>
    </contour>
  </outline>
</glyph>
<glyph name="seven" format="2">
  <advance width="1703.2514526891287"/>
  <unicode hex="0037"/>
  <outline>
    <contour>
      <point x="674.266245872566" y="0.0" type="line"/>
      <point x="1143.2256606370288" y="0.0" type="line"/>
      <point x="1657.3385963542748" y="1196.9248471606602" type="line"/>
      <point x="1657.3385963542748" y="1600.0" type="line"/>
      <point x="40.344581835277566" y="1600.0" type="line"/>
      <point x="40.344581835277566" y="1110.7746845302213" type="line"/>
      <point x="508.9334040790792" y="1110.7746845302213" type="line"/>
      <point x="508.9334040790792" y="1316.4089501024077" type="line"/>
      <point x="1188.7497741104733" y="1316.4089501024077" type="line"/>
      <point x="1188.7497741104733" y="1201.3866947969368" type="line"/>
    </contour>
  </outline>
</glyph>
<glyph name="eight" format="2">
  <advance width="1796.6716797682845"/>
  <unicode hex="0038"/>
  <outline>
    <contour>
      <point x="104.93626213239844" y="0.0" type="curve" smooth="yes"/>
      <point x="1698.967596641236" y="0.0" type="line" smooth="yes"/>
      <point x="1712.8087298321652" y="0.0"/>
      <point x="1721.1163998243564" y="8.307669992191368"/>
      <point x="1721.1163998243564" y="21.778210662459557" type="curve" smooth="yes"/>
      <point x="1721.1163998243564" y="691.6754316385716" type="line" smooth="yes"/>
      <point x="1721.1163998243564" y="702.9681512425936"/>
      <point x="1718.116187459958" y="712.2990399281489"/>
      <point x="1708.2319836581123" y="717.809284433523" type="curve" smooth="yes"/>
      <point x="1549.7159978102982" y="799.0" type="line"/>
      <point x="1490.503600652413" y="799.0" type="line"/>
      <point x="1674.497741266947" y="799.0" type="line" smooth="yes"/>
      <point x="1687.9682819372156" y="799.0"/>
      <point x="1696.2759519294068" y="807.3076699921914"/>
      <point x="1696.2759519294068" y="820.7782106624595" type="curve" smooth="yes"/>
      <point x="1696.2759519294068" y="1578.2217893375405" type="line" smooth="yes"/>
      <point x="1696.2759519294068" y="1591.692330007809"/>
      <point x="1687.9682819372156" y="1600.0"/>
      <point x="1674.497741266947" y="1600.0" type="curve" smooth="yes"/>
      <point x="125.9741706467488" y="1600.0" type="line" smooth="yes"/>
      <point x="112.13303745581959" y="1600.0"/>
      <point x="104.19595998428926" y="1591.692330007809"/>
      <point x="104.19595998428926" y="1578.2217893375405" type="curve" smooth="yes"/>
      <point x="104.19595998428926" y="904.4158234770441" type="line" smooth="yes"/>
      <point x="104.19595998428926" y="893.6282344846138"/>
      <point x="106.69104173709582" y="884.0612913693285"/>
      <point x="115.80103874548827" y="878.147432591162" type="curve" smooth="yes"/>
      <point x="252.33734944243622" y="801.0" type="line"/>
      <point x="252.33734944243622" y="801.0" type="line"/>
      <point x="104.93626213239844" y="801.0" type="line" smooth="yes"/>
      <point x="91.46572146213025" y="801.0"/>
      <point x="83.15805146993888" y="792.6923300078088"/>
      <point x="83.15805146993888" y="779.2217893375405" type="curve" smooth="yes"/>
      <point x="83.15805146993888" y="21.778210662459557" type="line" smooth="yes"/>
      <point x="83.15805146993888" y="8.307669992191368"/>
      <point x="91.46572146213025" y="0.0"/>
    </contour>
    <contour>
      <point x="551.7468737137406" y="305.36926056005206" type="curve" smooth="yes"/>
      <point x="551.7468737137406" y="640.9860718167796" type="line" smooth="yes"/>
      <point x="551.7468737137406" y="654.4566124870478"/>
      <point x="560.0545437059319" y="662.7642824792391"/>
      <point x="573.8956768968611" y="662.7642824792391" type="curve" smooth="yes"/>
      <point x="1128.0615396134394" y="662.89882057017" type="line"/>
      <point x="1235.096370406356" y="583.3048425509853" type="line" smooth="yes"/>
      <point x="1245.761922439068" y="575.3314811165473"/>
      <point x="1252.101100918088" y="569.5092869002247"/>
      <point x="1252.101100918088" y="563.5123698579573" type="curve" smooth="yes"/>
      <point x="1252.101100918088" y="294.8232236983392" type="line" smooth="yes"/>
      <point x="1252.101100918088" y="288.1772989978348"/>
      <point x="1244.1589441763626" y="283.5910498975925"/>
      <point x="1230.3178109854334" y="283.5910498975925" type="curve" smooth="yes"/>
      <point x="573.8956768968611" y="283.5910498975925" type="line" smooth="yes"/>
      <point x="560.4251362265929" y="283.5910498975925"/>
      <point x="551.7468737137406" y="291.5281273691228"/>
    </contour>
    <contour>
      <point x="674.1999204091558" y="938.0573352855018" type="line"/>
      <point x="589.3253869103926" y="1012.6518744736998" type="line" smooth="yes"/>
      <point x="579.2655141821492" y="1021.6806135377553"/>
      <point x="572.7847822280909" y="1028.0432546826548"/>
      <point x="572.7847822280909" y="1033.848874428618" type="curve" smooth="yes"/>
      <point x="572.7847822280909" y="1305.457947137825" type="line" smooth="yes"/>
      <point x="572.7847822280909" y="1311.9353443493444"/>
      <point x="581.0924522202823" y="1316.4089501024077"/>
      <point x="594.5629928905505" y="1316.4089501024077" type="curve" smooth="yes"/>
      <point x="1205.4773630904835" y="1316.4089501024077" type="line" smooth="yes"/>
      <point x="1218.9479037607516" y="1316.4089501024077"/>
      <point x="1227.255573752943" y="1308.4718726308774"/>
      <point x="1227.255573752943" y="1294.6307394399478" type="curve" smooth="yes"/>
      <point x="1227.255573752943" y="960.2061384686224" type="line" smooth="yes"/>
      <point x="1227.255573752943" y="946.7355977983542"/>
      <point x="1219.3184962814128" y="938.0573352855018"/>
      <point x="1205.4773630904835" y="938.0573352855018" type="curve" smooth="yes"/>
    </contour>
  </outline>
</glyph>
<glyph name="greater" format="2">
  <advance width="888.007984185442"/>
  <unicode hex="003E"/>
  <outline>
    <contour>
      <point x="96.15564101390854" y="341.99047564856386" type="line"/>
      <point x="859.4569494981595" y="626.7278221578488" type="line"/>
      <point x="859.4569494981595" y="880.1263214423589" type="line"/>
      <point x="95.48503131223654" y="1167.388692867497" type="line"/>
      <point x="45.11975685822214" y="964.2269680028498" type="line"/>
      <point x="583.0367876263638" y="765.0590109891893" type="line"/>
      <point x="583.0367876263638" y="741.4545000333543" type="line"/>
      <point x="45.79036655989414" y="545.208084655017" type="line"/>
    </contour>
  </outline>
</glyph>
<glyph name="question" format="2">
  <advance width="1798.6423013579188"/>
  <unicode hex="003F"/>
  <outline>
    <contour>
      <point x="669.0912162060208" y="443.79811782796537" type="line"/>
      <point x="1468.6115084334012" y="443.79811782796537" type="line"/>
      <point x="1733.831898949034" y="912.0077554363932" type="line"/>
      <point x="1733.831898949034" y="1600.0" type="line"/>
      <point x="84.00717773230573" y="1600.0" type="line"/>
      <point x="84.00717773230573" y="1056.330731865444" type="line"/>
      <point x="552.0282532315254" y="1056.330731865444" type="line"/>
      <point x="552.0282532315254" y="1308.3470074408078" type="line"/>
      <point x="1270.721997709472" y="1308.3470074408078" type="line"/>
      <point x="1273.3302194448177" y="1020.4410216796232" type="line"/>
      <point x="1140.6421175828386" y="736.3840445801468" type="line"/>
      <point x="669.0912162060208" y="736.3840445801468" type="line"/>
    </contour>
    <contour>
      <point x="642.7349229486242" y="0.0" type="line"/>
      <point x="1111.3237451924258" y="0.0" type="line"/>
      <point x="1111.3237451924258" y="304.1297236449036" type="line"/>
      <point x="642.7349229486242" y="304.1297236449036" type="line"/>
    </contour>
  </outline>
</glyph>
<glyph name="at" format="2">
  <advance width="2834.4780141012807"/>
  <unicode hex="0040"/>
  <outline>
    <contour>
      <point x="138.11137426059668" y="0.0" type="curve" smooth="yes"/>
      <point x="1562.1812795354635" y="0.0" type="line"/>
      <point x="1562.1812795354635" y="134.40770760732306" type="line"/>
      <point x="593.0698470202802" y="134.40770760732306" type="line" smooth="yes"/>
      <point x="567.6918632326597" y="134.40770760732306"/>
      <point x="552.4328139832834" y="149.44299393523087"/>
      <point x="552.4328139832834" y="175.47544361580347" type="curve" smooth="yes"/>
      <point x="552.4328139832834" y="787.6570689366848" type="line" smooth="yes"/>
      <point x="552.4328139832834" y="806.1878074902124"/>
      <point x="555.3118328560898" y="821.9099130644049"/>
      <point x="563.8956546475404" y="838.8665478999906" type="curve" smooth="yes"/>
      <point x="688.4617384471022" y="1079.0206028066564" type="line" smooth="yes"/>
      <point x="698.0742896562828" y="1099.5273182594196"/>
      <point x="712.9600408795526" y="1109.402439950064"/>
      <point x="735.868666983277" y="1109.402439950064" type="curve" smooth="yes"/>
      <point x="2240.0173151095055" y="1109.402439950064" type="line" smooth="yes"/>
      <point x="2265.2316464264804" y="1109.402439950064"/>
      <point x="2280.4906956758564" y="1094.9487421589342"/>
      <point x="2280.4906956758564" y="1068.3347039415835" type="curve" smooth="yes"/>
      <point x="2281.821437196529" y="567.8500490339386" type="line" smooth="yes"/>
      <point x="2281.821437196529" y="547.6321697799518"/>
      <point x="2279.5774596977967" y="529.8071146453638"/>
      <point x="2273.446389376162" y="510.62028900604673" type="curve" smooth="yes"/>
      <point x="2164.711713093737" y="192.57019058001782" type="line" smooth="yes"/>
      <point x="2156.5526394755825" y="167.04352808371542"/>
      <point x="2154.8397022458557" y="152.45418882173715"/>
      <point x="2157.798194739376" y="152.45418882173715" type="curve" smooth="yes"/>
      <point x="2144.5577399249532" y="152.45418882173715" type="line" smooth="yes"/>
      <point x="2146.7705759489845" y="152.45418882173715"/>
      <point x="2147.8019082244637" y="166.6092566570491"/>
      <point x="2147.8019082244637" y="192.12042665735947" type="curve" smooth="yes"/>
      <point x="2147.8019082244637" y="1034.9246493965861" type="line" smooth="yes"/>
      <point x="2147.8019082244637" y="1057.7551006960966"/>
      <point x="2134.500354319949" y="1071.6510100427408"/>
      <point x="2111.015437127486" y="1071.6510100427408" type="curve" smooth="yes"/>
      <point x="919.8199667723882" y="1071.6510100427408" type="line" smooth="yes"/>
      <point x="899.9714584196745" y="1071.6510100427408"/>
      <point x="892.1107375142537" y="1061.2431394757728"/>
      <point x="877.8745772256501" y="1045.9203090123394" type="curve" smooth="yes"/>
      <point x="681.5705083593607" y="734.7694611047255" type="line" smooth="yes"/>
      <point x="668.7973118249403" y="717.1455759820542"/>
      <point x="667.7880966173093" y="702.6678039840795"/>
      <point x="667.7880966173093" y="682.1265450521641" type="curve" smooth="yes"/>
      <point x="667.7880966173093" y="210.9258555152157" type="line" smooth="yes"/>
      <point x="667.7880966173093" y="187.8716412942369"/>
      <point x="681.0295400710014" y="174.3463244682537"/>
      <point x="704.5144572634639" y="174.3463244682537" type="curve" smooth="yes"/>
      <point x="1577.7969079443678" y="174.3463244682537" type="line" smooth="yes"/>
      <point x="1586.4181218155322" y="174.3463244682537"/>
      <point x="1592.9805598993926" y="177.55651834145328"/>
      <point x="1598.0794036551379" y="183.9281268625416" type="curve" smooth="yes"/>
      <point x="1730.2245951405903" y="428.6948807764959" type="line"/>
      <point x="1694.035378777615" y="429.7212767658739" type="line"/>
      <point x="1694.035378777615" y="41.06773600848042" type="line" smooth="yes"/>
      <point x="1694.035378777615" y="15.689752220859873"/>
      <point x="1709.070665105523" y="0.0"/>
      <point x="1735.0430043352728" y="0.0" type="curve" smooth="yes"/>
      <point x="2456.656630057878" y="0.0" type="line" smooth="yes"/>
      <point x="2478.7267879120654" y="0.0"/>
      <point x="2494.3179291427714" y="8.115643738784646"/>
      <point x="2505.934662811668" y="26.55755212518494" type="curve" smooth="yes"/>
      <point x="2721.316679230282" y="424.8265901352299" type="line" smooth="yes"/>
      <point x="2732.2183611583146" y="443.85262179408323"/>
      <point x="2737.1505024768735" y="461.79291645958335"/>
      <point x="2737.1505024768735" y="484.3328390383173" type="curve" smooth="yes"/>
      <point x="2735.44916843554" y="1228.9322639915197" type="line" smooth="yes"/>
      <point x="2735.44916843554" y="1254.8918363159185"/>
      <point x="2720.784474628293" y="1270.0"/>
      <point x="2694.75202494772" y="1270.0" type="curve" smooth="yes"/>
      <point x="385.6605224552857" y="1270.0" type="line" smooth="yes"/>
      <point x="363.96095712175884" y="1270.0"/>
      <point x="349.32519995341613" y="1262.8924214604606"/>
      <point x="337.18784115974205" y="1243.6483646207373" type="curve" smooth="yes"/>
      <point x="112.87238222851309" y="863.3699763117461" type="line" smooth="yes"/>
      <point x="101.81981473518593" y="846.3084688013457"/>
      <point x="97.47434122359985" y="830.1775230622555"/>
      <point x="97.47434122359985" y="809.6111232765361" type="curve" smooth="yes"/>
      <point x="97.47434122359985" y="41.06773600848042" type="line" smooth="yes"/>
      <point x="97.47434122359985" y="15.689752220859873"/>
      <point x="112.13903503084663" y="0.0"/>
    </contour>
    <contour>
      <point x="1129.241720813749" y="376.4020072127695" type="curve" smooth="yes"/>
      <point x="1129.241720813749" y="570.2392691545432" type="line" smooth="yes"/>
      <point x="1129.241720813749" y="585.5577916732465"/>
      <point x="1134.5670310956252" y="655.6803589981561"/>
      <point x="1153.1492729946526" y="670.7672949469079" type="curve" smooth="yes"/>
      <point x="1284.7563409473369" y="882.8911928844586" type="line" smooth="yes"/>
      <point x="1291.684110402775" y="888.4643371500508"/>
      <point x="1295.3855632019474" y="891.5099864073866"/>
      <point x="1305.5458648896808" y="891.5099864073866" type="curve" smooth="yes"/>
      <point x="1659.440675931615" y="891.4541022655806" type="line" smooth="yes"/>
      <point x="1672.3095652581085" y="891.4541022655806"/>
      <point x="1674.2068639708948" y="887.9357107319314"/>
      <point x="1674.968645484198" y="881.544066517223" type="curve" smooth="yes"/>
      <point x="1675.4157186186458" y="577.6826985119078" type="line"/>
      <point x="1556.9547060995733" y="370.8884421619114" type="line" smooth="yes"/>
      <point x="1551.153426212088" y="364.0245824521536"/>
      <point x="1545.3046605819977" y="360.5954920147239"/>
      <point x="1536.8171392384822" y="360.5954920147239" type="curve" smooth="yes"/>
      <point x="1143.933365525578" y="360.5954920147239" type="line" smooth="yes"/>
      <point x="1134.504077545547" y="360.5954920147239"/>
      <point x="1129.241720813749" y="374.38354724683546"/>
    </contour>
  </outline>
</glyph>
<glyph name="A" format="2">
  <advance width="1902.7820669564817"/>
  <unicode hex="0041"/>
  <anchor x="951.7123094526303" y="0.0" name="bottom"/>
  <anchor x="1712.7443067401625" y="10.0" name="ogonek"/>
  <anchor x="951.7123094526303" y="1600.0" name="top"/>
  <outline>
    <contour>
      <point x="98.13701760804217" y="0.0" type="line"/>
      <point x="566.7258398518437" y="0.0" type="line"/>
      <point x="566.7258398518437" y="477.97560885893597" type="line"/>
      <point x="1321.5161245247596" y="477.97560885893597" type="line"/>
      <point x="1321.5161245247596" y="0.0" type="line"/>
      <point x="1790.4755392892225" y="0.0" type="line"/>
      <point x="1790.4755392892225" y="1579.5769770985303" type="line" smooth="yes"/>
      <point x="1790.4755392892225" y="1592.151517809802"/>
      <point x="1783.2214125411538" y="1600.0"/>
      <point x="1770.0525163877526" y="1600.0" type="curve" smooth="yes"/>
      <point x="368.5496165899421" y="1600.0" type="line" smooth="yes"/>
      <point x="358.2408261248962" y="1600.0"/>
      <point x="351.442629224364" y="1595.6187360623835"/>
      <point x="345.5102983080344" y="1586.0100325073997" type="curve" smooth="yes"/>
      <point x="104.13066780163955" y="1119.759790572833" type="line" smooth="yes"/>
      <point x="98.9710463504574" y="1111.3448839713005"/>
      <point x="98.13701760804217" y="1106.0472942219483"/>
      <point x="98.13701760804217" y="1096.046963713537" type="curve"/>
    </contour>
    <contour>
      <point x="566.4419664795528" y="783.3709987095712" type="line"/>
      <point x="566.4419664795528" y="990.2877456942707" type="line"/>
      <point x="566.4419664795528" y="997.102042462292"/>
      <point x="566.9691881579683" y="1009.673760665187"/>
      <point x="570.7657042942342" y="1016.2998337121343" type="curve" smooth="yes"/>
      <point x="714.7594292324275" y="1289.6756609730148" type="line" smooth="yes"/>
      <point x="726.0489762020852" y="1310.6755576303535"/>
      <point x="735.4746507287657" y="1324.293797634717"/>
      <point x="752.2384882045955" y="1324.293797634717" type="curve" smooth="yes"/>
      <point x="1294.8075922114574" y="1324.293797634717" type="line" smooth="yes"/>
      <point x="1313.6841772267514" y="1324.293797634717"/>
      <point x="1321.5161245247596" y="1316.3849170144326"/>
      <point x="1321.5161245247596" y="1298.8509095279496" type="curve" smooth="yes"/>
      <point x="1321.5161245247596" y="783.3709987095712" type="line"/>
    </contour>
  </outline>
</glyph>
<glyph name="B" format="2">
  <advance width="1926.5907275829836"/>
  <unicode hex="0042"/>
  <anchor x="963.6534271053463" y="0.0" name="bottom"/>
  <anchor x="481.6907338386141" y="400.0" name="center"/>
  <anchor x="963.6534271053463" y="1600.0" name="top"/>
  <outline>
    <contour>
      <point x="152.5036002659134" y="0.0" type="curve" smooth="yes"/>
      <point x="1584.7304497015575" y="0.0" type="line" smooth="yes"/>
      <point x="1603.9997610161065" y="0.0"/>
      <point x="1619.7335284064177" y="4.241309293484733"/>
      <point x="1638.0305474888364" y="18.809306367840307" type="curve" smooth="yes"/>
      <point x="1834.6381903253314" y="203.08119549607318" type="line" smooth="yes"/>
      <point x="1849.04883862651" y="214.8982182123924"/>
      <point x="1855.367558274096" y="230.88698043533032"/>
      <point x="1855.367558274096" y="253.59711671673102" type="curve" smooth="yes"/>
      <point x="1855.367558274096" y="789.0231940537615" type="line" smooth="yes"/>
      <point x="1855.367558274096" y="813.5069637318351"/>
      <point x="1840.7360729725015" y="828.7929149263815"/>
      <point x="1814.8866123031507" y="828.7929149263815" type="curve" smooth="yes"/>
      <point x="1490.4357195046696" y="828.7929149263815" type="line"/>
      <point x="1703.53945381824" y="1073.5582140498987" type="line" smooth="yes"/>
      <point x="1715.558022806357" y="1086.8317217393762"/>
      <point x="1718.7018515052305" y="1105.2701945351532"/>
      <point x="1718.7018515052305" y="1124.7255497766155" type="curve" smooth="yes"/>
      <point x="1718.7018515052305" y="1559.802927401346" type="line" smooth="yes"/>
      <point x="1718.7018515052305" y="1584.7140488054538"/>
      <point x="1703.829410244522" y="1600.0"/>
      <point x="1677.9799495751713" y="1600.0" type="curve" smooth="yes"/>
      <point x="152.65783707665742" y="1600.0" type="line" smooth="yes"/>
      <point x="127.5196015056319" y="1600.0"/>
      <point x="112.30652766725937" y="1585.3685146984058"/>
      <point x="112.30652766725937" y="1559.802927401346" type="curve" smooth="yes"/>
      <point x="112.30652766725937" y="40.19707259865403" type="line" smooth="yes"/>
      <point x="112.30652766725937" y="15.285951194546413"/>
      <point x="126.93801296885373" y="0.0"/>
    </contour>
    <contour>
      <point x="581.2659424317221" y="349.6971379888797" type="curve" smooth="yes"/>
      <point x="581.2659424317221" y="682.2616727908392" type="line"/>
      <point x="1361.1121621397629" y="682.2616727908392" type="line" smooth="yes"/>
      <point x="1382.7812224856118" y="682.2616727908392"/>
      <point x="1395.8935615498835" y="665.7042179494842"/>
      <point x="1395.8935615498835" y="654.2146067247174" type="curve" smooth="yes"/>
      <point x="1395.8935615498835" y="549.2504321437265" type="line" smooth="yes"/>
      <point x="1395.8935615498835" y="529.182119296804"/>
      <point x="1394.4480791990081" y="494.9816735843047"/>
      <point x="1382.4973613106697" y="483.3862469209305" type="curve" smooth="yes"/>
      <point x="1253.132972315841" y="337.4592515369117" type="line" smooth="yes"/>
      <point x="1235.3438729118152" y="322.9152995944212"/>
      <point x="1194.2667551332624" y="309.50006539022564"/>
      <point x="1201.3965948073271" y="309.50006539022564" type="curve" smooth="yes"/>
      <point x="621.7669185299383" y="309.50006539022564" type="line" smooth="yes"/>
      <point x="628.7370885628764" y="309.50006539022564"/>
      <point x="581.2659424317221" y="324.13155069182"/>
    </contour>
    <contour>
      <point x="581.2659424317221" y="883.4928658988058" type="line"/>
      <point x="581.2659424317221" y="1294.9296723428502" type="line" smooth="yes"/>
      <point x="581.2659424317221" y="1303.6086582158937"/>
      <point x="585.6693596226849" y="1308.6106571580026"/>
      <point x="595.7645155565579" y="1308.6106571580026" type="curve" smooth="yes"/>
      <point x="1255.90594396611" y="1308.6106571580026" type="line" smooth="yes"/>
      <point x="1263.1640551028995" y="1308.6106571580026"/>
      <point x="1268.574888783785" y="1302.000099591115"/>
      <point x="1268.574888783785" y="1296.0543556875068" type="curve" smooth="yes"/>
      <point x="1268.574888783785" y="1160.2306490486174" type="line" smooth="yes"/>
      <point x="1268.574888783785" y="1147.8815292511536"/>
      <point x="1264.9750816239416" y="1126.5962802156964"/>
      <point x="1255.1411612648508" y="1111.8328046671945" type="curve" smooth="yes"/>
      <point x="1089.7842490424243" y="883.4928658988058" type="line"/>
    </contour>
  </outline>
</glyph>
<glyph name="C" format="2">
  <advance width="1878.6855723358462"/>
  <unicode hex="0043"/>
  <anchor x="939.4100552133887" y="0.0" name="bottom"/>
  <anchor x="939.4100552133887" y="1600.0" name="top"/>
  <outline>
    <contour>
      <point x="121.4355502941833" y="0.0" type="curve" smooth="yes"/>
      <point x="1754.6587528498383" y="0.0" type="line" smooth="yes"/>
      <point x="1773.4350389586584" y="0.0"/>
      <point x="1781.9077968208726" y="8.47275786221419"/>
      <point x="1781.9077968208726" y="24.52074532367522" type="curve" smooth="yes"/>
      <point x="1781.9077968208726" y="590.6058608538093" type="line"/>
      <point x="1313.318974577071" y="590.6058608538093" type="line"/>
      <point x="1313.318974577071" y="321.4653786126695" type="line" smooth="yes"/>
      <point x="1313.318974577071" y="311.8724381619925"/>
      <point x="1306.920049469264" y="305.0428100827018"/>
      <point x="1296.8964060471035" y="305.0428100827018" type="curve" smooth="yes"/>
      <point x="583.1484083818115" y="305.0428100827018" type="line" smooth="yes"/>
      <point x="573.7191204017804" y="305.0428100827018"/>
      <point x="566.7258398518437" y="311.4417351905089"/>
      <point x="566.7258398518437" y="321.4653786126695" type="curve" smooth="yes"/>
      <point x="566.7258398518437" y="1040.9117389446753" type="line"/>
      <point x="566.7258398518437" y="1051.023062000203"/>
      <point x="568.4252559501945" y="1072.8392311079608"/>
      <point x="574.553908439092" y="1081.8031579405645" type="curve" smooth="yes"/>
      <point x="674.5587617458547" y="1283.649519925107" type="line" smooth="yes"/>
      <point x="680.4035408624612" y="1292.6786880614795"/>
      <point x="687.3170923689382" y="1294.9571899172984"/>
      <point x="695.1167900558582" y="1294.9571899172984" type="curve" smooth="yes"/>
      <point x="1296.4096531949533" y="1294.9571899172984" type="line" smooth="yes"/>
      <point x="1305.2979471175815" y="1294.9571899172984"/>
      <point x="1312.4102296926867" y="1288.5582648094912"/>
      <point x="1312.4102296926867" y="1278.5346213873308" type="curve" smooth="yes"/>
      <point x="1312.4102296926867" y="980.096244778584" type="line"/>
      <point x="1780.9990519364883" y="980.096244778584" type="line"/>
      <point x="1780.9990519364883" y="1572.1832092843836" type="line" smooth="yes"/>
      <point x="1780.9990519364883" y="1592.378862254659"/>
      <point x="1774.3162534563903" y="1600.0"/>
      <point x="1754.4044738584062" y="1600.0" type="curve" smooth="yes"/>
      <point x="372.4604858162155" y="1600.0" type="line" smooth="yes"/>
      <point x="356.2187715021061" y="1600.0"/>
      <point x="350.5480309558127" y="1595.646292760268"/>
      <point x="341.14122336891455" y="1583.3224518614602" type="curve" smooth="yes"/>
      <point x="108.81873659724141" y="1174.6938092898415" type="line" smooth="yes"/>
      <point x="100.61233191310885" y="1155.8215441478892"/>
      <point x="98.13701760804217" y="1148.4745517541667"/>
      <point x="98.13701760804217" y="1134.261831848451" type="curve" smooth="yes"/>
      <point x="98.13701760804217" y="21.508573304025003" type="line" smooth="yes"/>
      <point x="98.13701760804217" y="9.127223755166249"/>
      <point x="105.32745238189972" y="0.0"/>
    </contour>
  </outline>
</glyph>
<glyph name="D" format="2">
  <advance width="1911.2475696584263"/>
  <unicode hex="0044"/>
  <anchor x="955.9513664370672" y="0.0" name="bottom"/>
  <anchor x="477.82086866420354" y="800.0" name="center"/>
  <anchor x="955.9513664370672" y="1600.0" name="top"/>
  <outline>
    <contour>
      <point x="149.4437078141175" y="0.0" type="curve" smooth="yes"/>
      <point x="1546.8807494031532" y="0.0" type="line" smooth="yes"/>
      <point x="1565.480169843961" y="0.0"/>
      <point x="1580.0156430909688" y="3.703615896322468"/>
      <point x="1592.5324538127347" y="17.602045611586686" type="curve" smooth="yes"/>
      <point x="1793.819682436333" y="257.23676501089415" type="line" smooth="yes"/>
      <point x="1806.392377299905" y="270.63156281574896"/>
      <point x="1813.7732284348263" y="283.5755475227381"/>
      <point x="1813.7732284348263" y="302.5317186920105" type="curve" smooth="yes"/>
      <point x="1813.7732284348263" y="1562.862819853142" type="line" smooth="yes"/>
      <point x="1813.7732284348263" y="1585.4161789501154"/>
      <point x="1799.8438732778936" y="1600.0"/>
      <point x="1776.6360482879682" y="1600.0" type="curve" smooth="yes"/>
      <point x="149.4437078141175" y="1600.0" type="line" smooth="yes"/>
      <point x="126.23588282419196" y="1600.0"/>
      <point x="112.30652766725937" y="1586.0706448430674"/>
      <point x="112.30652766725937" y="1562.862819853142" type="curve" smooth="yes"/>
      <point x="112.30652766725937" y="37.13718014685813" type="line" smooth="yes"/>
      <point x="112.30652766725937" y="14.583821049884651"/>
      <point x="126.23588282419196" y="0.0"/>
    </contour>
    <contour>
      <point x="581.2659424317221" y="343.49237311223783" type="curve" smooth="yes"/>
      <point x="581.2659424317221" y="1254.8719619412811" type="line" smooth="yes"/>
      <point x="581.2659424317221" y="1265.7472254803147"/>
      <point x="587.4400297312159" y="1273.738955746317"/>
      <point x="599.3403516838627" y="1273.738955746317" type="curve" smooth="yes"/>
      <point x="1327.109996938884" y="1273.738955746317" type="line" smooth="yes"/>
      <point x="1338.0453709287403" y="1273.738955746317"/>
      <point x="1345.1844061910247" y="1266.1779284517984"/>
      <point x="1345.1844061910247" y="1254.8719619412811" type="curve" smooth="yes"/>
      <point x="1345.1844061910247" y="547.4241626025149" type="line" smooth="yes"/>
      <point x="1345.1844061910247" y="522.8142399146031"/>
      <point x="1340.7137162267165" y="501.63750163070233"/>
      <point x="1328.8107789567637" y="487.1550679715175" type="curve" smooth="yes"/>
      <point x="1216.9472126463345" y="337.5120126653924" type="line" smooth="yes"/>
      <point x="1211.549647011894" y="330.9416356068069"/>
      <point x="1204.3013228828597" y="327.6375513268522"/>
      <point x="1198.6623210883486" y="327.6375513268522" type="curve" smooth="yes"/>
      <point x="596.4662983241556" y="329.01405840002127" type="line" smooth="yes"/>
      <point x="589.8855298931288" y="329.01405840002127"/>
      <point x="581.2659424317221" y="333.7526030623683"/>
    </contour>
  </outline>
</glyph>
<glyph name="E" format="2">
  <advance width="1604.610546998107"/>
  <unicode hex="0045"/>
  <anchor x="802.5960677674425" y="0.0" name="bottom"/>
  <anchor x="1443.8418242089822" y="10.0" name="ogonek"/>
  <anchor x="802.5960677674425" y="1600.0" name="top"/>
  <anchor x="20.0" y="1600.0" name="topleft"/>
  <outline>
    <contour>
      <point x="149.4437078141175" y="0.0" type="curve" smooth="yes"/>
      <point x="1524.2660830112843" y="0.0" type="line"/>
      <point x="1524.2660830112843" y="323.30036223012235" type="line"/>
      <point x="598.8939081256669" y="323.30036223012235" type="line" smooth="yes"/>
      <point x="588.3025179589242" y="323.30036223012235"/>
      <point x="581.2491269581651" y="329.98316071022043"/>
      <point x="581.2491269581651" y="341.2290167699151" type="curve" smooth="yes"/>
      <point x="581.2491269581651" y="638.2939347431329" type="line"/>
      <point x="1377.5478148921907" y="638.2939347431329" type="line"/>
      <point x="1377.5478148921907" y="961.7060652568673" type="line"/>
      <point x="581.2491269581651" y="961.7060652568673" type="line"/>
      <point x="581.2491269581651" y="1259.2057421676707" type="line" smooth="yes"/>
      <point x="581.2491269581651" y="1269.7971323344132"/>
      <point x="587.1265739800167" y="1276.6996377698779"/>
      <point x="598.0885566674203" y="1276.6996377698779" type="curve" smooth="yes"/>
      <point x="1523.2660830112843" y="1276.6996377698779" type="line"/>
      <point x="1523.2660830112843" y="1600.0" type="line"/>
      <point x="149.4437078141175" y="1600.0" type="line" smooth="yes"/>
      <point x="126.23588282419196" y="1600.0"/>
      <point x="112.30652766725937" y="1586.0706448430674"/>
      <point x="112.30652766725937" y="1562.862819853142" type="curve" smooth="yes"/>
      <point x="112.30652766725937" y="37.13718014685813" type="line" smooth="yes"/>
      <point x="112.30652766725937" y="14.583821049884651"/>
      <point x="126.23588282419196" y="0.0"/>
    </contour>
  </outline>
</glyph>
<glyph name="F" format="2">
  <advance width="1508.6485244178382"/>
  <unicode hex="0046"/>
  <anchor x="754.6455381833086" y="0.0" name="bottom"/>
  <anchor x="754.6455381833086" y="1600.0" name="top"/>
  <outline>
    <contour>
      <point x="112.30652766725937" y="0.0" type="line"/>
      <point x="581.2491269581651" y="0.0" type="line"/>
      <point x="581.2491269581651" y="581.7856321414083" type="line"/>
      <point x="1319.1399315636975" y="581.7856321414083" type="line"/>
      <point x="1319.1399315636975" y="912.1399872263469" type="line"/>
      <point x="581.2491269581651" y="912.1399872263469" type="line"/>
      <point x="581.2491269581651" y="1252.7348419019877" type="line" smooth="yes"/>
      <point x="581.2491269581651" y="1264.7187223223837"/>
      <point x="587.6909694791493" y="1272.2423824623538"/>
      <point x="600.3293157924973" y="1272.2423824623538" type="curve" smooth="yes"/>
      <point x="1431.1413235591144" y="1272.2423824623538" type="line"/>
      <point x="1431.1413235591144" y="1600.0" type="line"/>
      <point x="152.02265896292664" y="1600.0" type="line" smooth="yes"/>
      <point x="127.3658165502513" y="1600.0"/>
      <point x="112.30652766725937" y="1585.5030527893364"/>
      <point x="112.30652766725937" y="1560.846210376661" type="curve" smooth="yes"/>
    </contour>
  </outline>
</glyph>
<glyph name="G" format="2">
  <advance width="1896.9709857283983"/>
  <unicode hex="0047"/>
  <anchor x="948.8799948561405" y="0.0" name="bottom"/>
  <anchor x="948.8799948561405" y="1600.0" name="top"/>
  <outline>
    <contour>
      <point x="122.37388955942637" y="0.0" type="curve" smooth="yes"/>
      <point x="1775.95633826204" y="0.0" type="line" smooth="yes"/>
      <point x="1791.436578978919" y="0.0"/>
      <point x="1800.1932102134244" y="9.127223755166249"/>
      <point x="1800.1932102134244" y="24.236871951384202" type="curve" smooth="yes"/>
      <point x="1800.1932102134244" y="851.9275463038641" type="line" smooth="yes"/>
      <point x="1800.1932102134244" y="874.4809054008374"/>
      <point x="1786.634447577153" y="889.0647264507222"/>
      <point x="1763.056030066566" y="889.0647264507222" type="curve" smooth="yes"/>
      <point x="963.2434899393544" y="889.0647264507222" type="line"/>
      <point x="963.2434899393544" y="605.1441921724943" type="line"/>
      <point x="1318.1583701532172" y="605.1441921724943" type="line" smooth="yes"/>
      <point x="1325.8157357584205" y="605.1441921724943"/>
      <point x="1331.6043879696228" y="600.1217741378563"/>
      <point x="1331.6043879696228" y="590.9922769845916" type="curve" smooth="yes"/>
      <point x="1331.6043879696228" y="332.4619642721852" type="line" smooth="yes"/>
      <point x="1331.6043879696228" y="322.3601733919136"/>
      <point x="1325.5318623861294" y="316.0596585779354"/>
      <point x="1315.257966417179" y="316.0596585779354" type="curve" smooth="yes"/>
      <point x="586.1605804014616" y="316.0596585779354" type="line" smooth="yes"/>
      <point x="574.717570117846" y="316.0596585779354"/>
      <point x="566.7258398518437" y="323.02633043032455"/>
      <point x="566.7258398518437" y="335.49439912755327" type="curve" smooth="yes"/>
      <point x="566.7258398518437" y="1017.9464571681838" type="line" smooth="yes"/>
      <point x="566.7258398518437" y="1030.3630119519917"/>
      <point x="570.4578507027366" y="1041.6327924372022"/>
      <point x="577.0727613542684" y="1050.6464977816224" type="curve" smooth="yes"/>
      <point x="704.5203489494129" y="1272.499528932026" type="line" smooth="yes"/>
      <point x="711.53638019352" y="1282.7356688396465"/>
      <point x="718.453692654191" y="1284.5079334757957"/>
      <point x="726.8811035468837" y="1284.5079334757957" type="curve" smooth="yes"/>
      <point x="1311.6655151238824" y="1284.5079334757957" type="line" smooth="yes"/>
      <point x="1322.0331423691566" y="1284.5079334757957"/>
      <point x="1327.804210281559" y="1279.2711105547"/>
      <point x="1327.804210281559" y="1267.801491573537" type="curve" smooth="yes"/>
      <point x="1327.0128446051403" y="1011.3070713171978" type="line"/>
      <point x="1795.601666848942" y="1011.3070713171978" type="line"/>
      <point x="1795.601666848942" y="1562.862819853142" type="line" smooth="yes"/>
      <point x="1795.601666848942" y="1585.4161789501154"/>
      <point x="1782.0429042126702" y="1600.0"/>
      <point x="1758.4644867020838" y="1600.0" type="curve" smooth="yes"/>
      <point x="401.08445024637365" y="1600.0" type="line" smooth="yes"/>
      <point x="375.7791792068711" y="1600.0"/>
      <point x="369.4046334449166" y="1595.5993151300947"/>
      <point x="358.208010465534" y="1581.219317309512" type="curve" smooth="yes"/>
      <point x="109.84305153146767" y="1173.1028455507687" type="line" smooth="yes"/>
      <point x="102.36041001015847" y="1164.1362353815698"/>
      <point x="98.13701760804217" y="1154.3021291404548"/>
      <point x="98.13701760804217" y="1142.221922127356" type="curve" smooth="yes"/>
      <point x="98.13701760804217" y="24.236871951384202" type="line" smooth="yes"/>
      <point x="98.13701760804217" y="9.78168964811831"/>
      <point x="106.89364884254738" y="0.0"/>
    </contour>
  </outline>
</glyph>
<glyph name="H" format="2">
  <advance width="1901.9337362483354"/>
  <unicode hex="0048"/>
  <anchor x="950.7815718638371" y="0.0" name="bottom"/>
  <anchor x="950.7815718638371" y="1200.0" name="center"/>
  <anchor x="950.7815718638371" y="1600.0" name="top"/>
  <anchor x="20.0" y="1600.0" name="topleft"/>
  <outline>
    <contour>
      <point x="112.30652766725937" y="0.0" type="line"/>
      <point x="581.2659424317221" y="0.0" type="line"/>
      <point x="581.2659424317221" y="625.6373633906813" type="line"/>
      <point x="1320.6677938166133" y="625.6373633906813" type="line"/>
      <point x="1320.6677938166133" y="0.0" type="line"/>
      <point x="1789.2566160604151" y="0.0" type="line"/>
      <point x="1789.2566160604151" y="1600.0" type="line"/>
      <point x="1320.6677938166133" y="1600.0" type="line"/>
      <point x="1320.6677938166133" y="952.9376333853188" type="line"/>
      <point x="581.2659424317221" y="952.9376333853188" type="line"/>
      <point x="581.2659424317221" y="1600.0" type="line"/>
      <point x="112.30652766725937" y="1600.0" type="line"/>
    </contour>
  </outline>
</glyph>
<glyph name="I" format="2">
  <advance width="693.5724700989814"/>
  <unicode hex="0049"/>
  <anchor x="346.7862350494907" y="0.0" name="bottom"/>
  <anchor x="624.2748727624829" y="10.0" name="ogonek"/>
  <anchor x="346.7862350494907" y="1600.0" name="top"/>
  <anchor x="20.0" y="1600.0" name="topleft"/>
  <outline>
    <contour>
      <point x="112.30652766725937" y="0.0" type="line"/>
      <point x="581.2659424317221" y="0.0" type="line"/>
      <point x="581.2659424317221" y="1600.0" type="line"/>
      <point x="112.30652766725937" y="1600.0" type="line"/>
    </contour>
  </outline>
</glyph>
<glyph name="J" format="2">
  <advance width="1852.7221395130107"/>
  <unicode hex="004A"/>
  <anchor x="926.2125608356397" y="0.0" name="bottom"/>
  <anchor x="926.2125608356397" y="1600.0" name="top"/>
  <outline>
    <contour>
      <point x="117.09140956996251" y="0.0" type="curve" smooth="yes"/>
      <point x="1463.2780313648018" y="0.0" type="line" smooth="yes"/>
      <point x="1495.7160992663264" y="0.0"/>
      <point x="1511.6286560528258" y="4.137540919416867"/>
      <point x="1527.2866412645753" y="29.650733690187554" type="curve" smooth="yes"/>
      <point x="1734.7993829025093" y="407.1042366836107" type="line" smooth="yes"/>
      <point x="1750.0266651427758" y="432.1965590419508"/>
      <point x="1755.0368022732937" y="444.2492356683972"/>
      <point x="1755.0368022732937" y="465.08208536815573" type="curve" smooth="yes"/>
      <point x="1755.2477982894109" y="1562.862819853142" type="line" smooth="yes"/>
      <point x="1755.2477982894109" y="1585.4161789501154"/>
      <point x="1741.9127985746077" y="1600.0"/>
      <point x="1718.3343810640213" y="1600.0" type="curve" smooth="yes"/>
      <point x="542.723648081549" y="1600.0" type="line"/>
      <point x="543.4831350299986" y="1273.0955980155102" type="line"/>
      <point x="1268.3735707773515" y="1273.0955980155102" type="line" smooth="yes"/>
      <point x="1279.2488343163852" y="1273.0955980155102"/>
      <point x="1286.658976045609" y="1266.3399221792383"/>
      <point x="1286.658976045609" y="1254.8101927472524" type="curve" smooth="yes"/>
      <point x="1286.658976045609" y="486.4856703398506" type="line" smooth="yes"/>
      <point x="1286.658976045609" y="478.72656713230606"/>
      <point x="1285.7195373504499" y="465.7144551750669"/>
      <point x="1279.6057382425897" y="456.561051386484" type="curve" smooth="yes"/>
      <point x="1189.8878782356437" y="339.0248011661164" type="line" smooth="yes"/>
      <point x="1184.0104312137921" y="329.69040803737204"/>
      <point x="1177.6125809928299" y="327.07650707316907"/>
      <point x="1167.962957462603" y="327.07650707316907" type="curve" smooth="yes"/>
      <point x="565.9039594621167" y="327.07650707316907" type="line" smooth="yes"/>
      <point x="555.0286959230832" y="327.07650707316907"/>
      <point x="548.543051666906" y="333.19155880868516"/>
      <point x="548.543051666906" y="344.4374148683798" type="curve" smooth="yes"/>
      <point x="548.543051666906" y="696.1890761499221" type="line"/>
      <point x="79.95422942310441" y="696.1890761499221" type="line"/>
      <point x="79.95422942310441" y="37.13718014685813" type="line" smooth="yes"/>
      <point x="79.95422942310441" y="14.583821049884651"/>
      <point x="93.883584580037" y="0.0"/>
    </contour>
  </outline>
</glyph>
<glyph name="K" format="2">
  <advance width="1907.1924877711558"/>
  <unicode hex="004B"/>
  <anchor x="953.7690109391019" y="0.0" name="bottom"/>
  <anchor x="953.7690109391019" y="1600.0" name="top"/>
  <outline>
    <contour>
      <point x="112.30652766725937" y="0.0" type="line"/>
      <point x="581.2659424317221" y="0.0" type="line"/>
      <point x="581.2659424317221" y="647.1510945166475" type="line"/>
      <point x="1349.4854874215803" y="647.1510945166475" type="line" smooth="yes"/>
      <point x="1359.9565126970463" y="647.1510945166475"/>
      <point x="1367.3804962184665" y="640.2613559865342"/>
      <point x="1367.3804962184665" y="629.6867886912449" type="curve" smooth="yes"/>
      <point x="1367.3804962184665" y="0.0" type="line"/>
      <point x="1835.969318462268" y="0.0" type="line"/>
      <point x="1835.969318462268" y="940.5034272045996" type="line" smooth="yes"/>
      <point x="1835.969318462268" y="950.7941211275979"/>
      <point x="1829.079579932155" y="957.9677330300021"/>
      <point x="1818.1344201162046" y="957.9677330300021" type="curve" smooth="yes"/>
      <point x="1522.624503726294" y="957.9677330300021" type="line"/>
      <point x="1731.570603960487" y="1599.283873372291" type="line"/>
      <point x="1281.6723092453706" y="1600.0" type="line"/>
      <point x="1070.116184466911" y="914.4377803650032" type="line"/>
      <point x="581.2659424317221" y="923.5034655105455" type="line"/>
      <point x="581.2659424317221" y="1600.0" type="line"/>
      <point x="112.30652766725937" y="1600.0" type="line"/>
    </contour>
  </outline>
</glyph>
<glyph name="L" format="2">
  <advance width="1606.7109447363482"/>
  <unicode hex="004C"/>
  <anchor x="803.6462666365633" y="0.0" name="bottom"/>
  <anchor x="803.6462666365633" y="800.0" name="center"/>
  <anchor x="803.6462666365633" y="1600.0" name="top"/>
  <anchor x="1586.710944736348" y="1600.0" name="topright"/>
  <outline>
    <contour>
      <point x="144.62865423868604" y="0.0" type="curve" smooth="yes"/>
      <point x="1529.2037438776242" y="0.0" type="line"/>
      <point x="1529.2037438776242" y="325.9237629214685" type="line"/>
      <point x="597.3739729257492" y="325.9237629214685" type="line" smooth="yes"/>
      <point x="587.4538715234121" y="325.9237629214685"/>
      <point x="581.2659424317221" y="331.6641661702215"/>
      <point x="581.2659424317221" y="342.40238593615663" type="curve" smooth="yes"/>
      <point x="581.2659424317221" y="1600.0" type="line"/>
      <point x="112.30652766725937" y="1600.0" type="line"/>
      <point x="112.30652766725937" y="31.727771129297153" type="line" smooth="yes"/>
      <point x="112.30652766725937" y="12.32994492227323"/>
      <point x="124.35259921724159" y="0.0"/>
    </contour>
  </outline>
</glyph>
<glyph name="M" format="2">
  <advance width="2675.010994404634"/>
  <unicode hex="004D"/>
  <anchor x="1337.7962914707061" y="0.0" name="bottom"/>
  <anchor x="1337.7962914707061" y="1600.0" name="top"/>
  <outline>
    <contour>
      <point x="98.13701760804217" y="0.0" type="line"/>
      <point x="566.7258398518437" y="0.0" type="line"/>
      <point x="566.7258398518437" y="990.4610166817888" type="line" smooth="yes"/>
      <point x="566.7258398518437" y="1001.8236084664345"/>
      <point x="569.4005706920142" y="1011.213278849333"/>
      <point x="575.5447786289162" y="1021.2498861841513" type="curve" smooth="yes"/>
      <point x="716.5611566546005" y="1321.2789178990809" type="line" smooth="yes"/>
      <point x="723.1662666842452" y="1332.6962230935826"/>
      <point x="744.5452120176782" y="1338.1514436164125"/>
      <point x="745.9040505979603" y="1338.1514436164125" type="curve" smooth="yes"/>
      <point x="1071.0258073746047" y="1338.1514436164125" type="line" smooth="yes"/>
      <point x="1074.3475644546666" y="1338.1514436164125"/>
      <point x="1095.941034790477" y="1328.9506451823165"/>
      <point x="1095.941034790477" y="1312.8055132290567" type="curve" smooth="yes"/>
      <point x="1095.941034790477" y="0.0" type="line"/>
      <point x="1564.9004495549398" y="0.0" type="line"/>
      <point x="1564.9004495549398" y="1026.7222814818515" type="line" smooth="yes"/>
      <point x="1564.9004495549398" y="1037.3086543666598"/>
      <point x="1566.5192154370438" y="1047.6129638893124"/>
      <point x="1572.2925818104395" y="1057.389574267236" type="curve" smooth="yes"/>
      <point x="1688.0860964815283" y="1320.5964994237543" type="line" smooth="yes"/>
      <point x="1694.9515810321566" y="1331.2969716351586"/>
      <point x="1715.8649223210016" y="1338.0955594746065"/>
      <point x="1717.4318736711448" y="1338.0955594746065" type="curve" smooth="yes"/>
      <point x="2070.9033693321835" y="1338.0955594746065" type="line" smooth="yes"/>
      <point x="2072.7791508532428" y="1338.0955594746065"/>
      <point x="2094.115644493573" y="1328.8947610405105"/>
      <point x="2094.115644493573" y="1312.7496290872507" type="curve" smooth="yes"/>
      <point x="2094.115644493573" y="0.0" type="line"/>
      <point x="2562.704466737375" y="0.0" type="line"/>
      <point x="2562.704466737375" y="1575.0246621333051" type="line" smooth="yes"/>
      <point x="2562.704466737375" y="1590.1447356729518"/>
      <point x="2553.5036683032786" y="1600.0"/>
      <point x="2537.72912887068" y="1600.0" type="curve" smooth="yes"/>
      <point x="1497.7081964375361" y="1600.07357467893" type="line" smooth="yes"/>
      <point x="1484.1835024661789" y="1600.07357467893"/>
      <point x="1474.3141353021388" y="1595.2796489647872"/>
      <point x="1467.7260214561804" y="1581.8245763431255" type="curve" smooth="yes"/>
      <point x="1283.4016477611117" y="1100.6822391024805" type="line"/>
      <point x="1348.407474062883" y="1100.250695339481" type="line"/>
      <point x="1347.816157505432" y="1575.0246621333051" type="line" smooth="yes"/>
      <point x="1347.816157505432" y="1590.0711609940217"/>
      <point x="1338.4631304432812" y="1600.0"/>
      <point x="1322.822276140435" y="1600.0" type="curve" smooth="yes"/>
      <point x="364.75535810360634" y="1600.0" type="line" smooth="yes"/>
      <point x="351.2919473029173" y="1600.0"/>
      <point x="342.50328623961366" y="1594.9407986971619"/>
      <point x="335.1285907879555" y="1583.9540452642996" type="curve" smooth="yes"/>
      <point x="107.54069634406447" y="1132.5153696069895" type="line" smooth="yes"/>
      <point x="100.807699880007" y="1122.7468244283111"/>
      <point x="98.13701760804217" y="1113.6699831032947"/>
      <point x="98.13701760804217" y="1101.6663896538043" type="curve" smooth="yes"/>
    </contour>
  </outline>
</glyph>
<glyph name="N" format="2">
  <advance width="1883.4369166437723"/>
  <unicode hex="004E"/>
  <anchor x="942.0456912683621" y="0.0" name="bottom"/>
  <anchor x="942.0456912683621" y="1600.0" name="top"/>
  <outline>
    <contour>
      <point x="98.13701760804217" y="0.0" type="line"/>
      <point x="566.7258398518437" y="0.0" type="line"/>
      <point x="566.7258398518437" y="1014.7762304988948" type="line" smooth="yes"/>
      <point x="566.7258398518437" y="1026.061021295594"/>
      <point x="570.131216573156" y="1036.4976669382463"/>
      <point x="575.9397229620631" y="1045.5693263102737" type="curve" smooth="yes"/>
      <point x="688.3642429349919" y="1260.8441705961432" type="line" smooth="yes"/>
      <point x="694.116865182093" y="1269.7218787491734"/>
      <point x="701.2697476626945" y="1273.1294096727534"/>
      <point x="709.8018879995486" y="1273.1294096727534" type="curve" smooth="yes"/>
      <point x="1285.664405659724" y="1273.1344889429483" type="line" smooth="yes"/>
      <point x="1295.758584876136" y="1273.1344889429483"/>
      <point x="1302.1709742120502" y="1267.3164550491633"/>
      <point x="1302.1709742120502" y="1255.1819448316194" type="curve" smooth="yes"/>
      <point x="1302.1709742120502" y="0.0" type="line"/>
      <point x="1771.1303889765131" y="0.0" type="line"/>
      <point x="1771.1303889765131" y="1575.3952546539663" type="line" smooth="yes"/>
      <point x="1771.1303889765131" y="1590.1447356729518"/>
      <point x="1762.1405865585339" y="1600.0"/>
      <point x="1746.7366396465964" y="1600.0" type="curve" smooth="yes"/>
      <point x="378.28077086645675" y="1600.0" type="line" smooth="yes"/>
      <point x="364.75319364884314" y="1600.0"/>
      <point x="355.74922968000055" y="1593.7336293235837"/>
      <point x="348.8008331499984" y="1583.5143626949414" type="curve"/>
      <point x="107.52723211595708" y="1123.585984852125" type="line" smooth="yes"/>
      <point x="101.08647187971437" y="1114.3040341846329"/>
      <point x="98.13701760804217" y="1105.33495379056"/>
      <point x="98.13701760804217" y="1093.1075974196012" type="curve" smooth="yes"/>
    </contour>
  </outline>
</glyph>
<glyph name="O" format="2">
  <advance width="1896.0447906941054"/>
  <unicode hex="004F"/>
  <anchor x="947.9043681321878" y="0.0" name="bottom"/>
  <anchor x="947.9043681321878" y="800.0" name="center"/>
  <anchor x="1706.3504005428008" y="10.0" name="ogonek"/>
  <anchor x="947.9043681321878" y="1600.0" name="top"/>
  <anchor x="20.0" y="1600.0" name="topleft"/>
  <anchor x="1876.0447906941058" y="1600.0" name="topright"/>
  <outline>
    <contour>
      <point x="128.243193508044" y="0.0" type="curve" smooth="yes"/>
      <point x="1514.2781531087337" y="0.0" type="line" smooth="yes"/>
      <point x="1535.6058721969002" y="0.0"/>
      <point x="1544.8283704925643" y="9.49104514681782"/>
      <point x="1556.3499387540828" y="28.712394424944478" type="curve" smooth="yes"/>
      <point x="1787.7136739714174" y="511.33770479407497" type="line" smooth="yes"/>
      <point x="1796.6272524655233" y="525.4810536362666"/>
      <point x="1798.5704494705058" y="540.7489137660234"/>
      <point x="1798.5704494705058" y="557.6913626317113" type="curve" smooth="yes"/>
      <point x="1798.5704494705058" y="1570.0226573816065" type="line" smooth="yes"/>
      <point x="1798.5704494705058" y="1592.9466089992409"/>
      <point x="1791.3199042458255" y="1600.0"/>
      <point x="1767.741486735239" y="1600.0" type="curve" smooth="yes"/>
      <point x="379.04774030781266" y="1600.0" type="line" smooth="yes"/>
      <point x="357.720021219646" y="1600.0"/>
      <point x="348.6492349394101" y="1590.6035492122967"/>
      <point x="336.97595466246366" y="1571.2876055750557" type="curve" smooth="yes"/>
      <point x="109.00240548709368" y="1083.120223896285" type="line" smooth="yes"/>
      <point x="99.88100448150917" y="1068.4005464976399"/>
      <point x="97.47434122359985" y="1053.1146594822071"/>
      <point x="97.47434122359985" y="1035.9484476950508" type="curve" smooth="yes"/>
      <point x="97.47434122359985" y="29.97734261839362" type="line" smooth="yes"/>
      <point x="97.47434122359985" y="7.05339100075911"/>
      <point x="104.66477599745741" y="0.0"/>
    </contour>
    <contour>
      <point x="581.9179852527872" y="327.07650707316907" type="line" smooth="yes"/>
      <point x="575.4742605948588" y="327.07650707316907"/>
      <point x="566.0631634674014" y="332.53709291573307"/>
      <point x="566.0631634674014" y="343.4990756031367" type="curve" smooth="yes"/>
      <point x="566.0631634674014" y="972.9725691571773" type="line" smooth="yes"/>
      <point x="566.0631634674014" y="989.4843150513814"/>
      <point x="567.9232995041133" y="1002.7057995904179"/>
      <point x="574.906360652537" y="1017.9836494660026" type="curve" smooth="yes"/>
      <point x="679.0705297877696" y="1250.803189285769" type="line" smooth="yes"/>
      <point x="686.5612272299528" y="1270.1095586553674"/>
      <point x="697.3701710698837" y="1272.923492926831"/>
      <point x="701.5631973053921" y="1272.923492926831" type="curve" smooth="yes"/>
      <point x="1314.4106788136096" y="1272.923492926831" type="line" smooth="yes"/>
      <point x="1321.42215021612" y="1272.923492926831"/>
      <point x="1329.9816272267042" y="1266.808441191315"/>
      <point x="1329.9816272267042" y="1256.7847977691545" type="curve" smooth="yes"/>
      <point x="1329.9816272267042" y="625.5000372350007" type="line" smooth="yes"/>
      <point x="1329.9816272267042" y="609.048401791619"/>
      <point x="1327.784132512352" y="595.603154331114"/>
      <point x="1321.1384300415687" y="580.4889569261754" type="curve" smooth="yes"/>
      <point x="1216.374144868545" y="349.1968107142311" type="line" smooth="yes"/>
      <point x="1208.7131698102426" y="330.4199723821437"/>
      <point x="1199.012842851674" y="327.07650707316907"/>
      <point x="1193.8814773509223" y="327.07650707316907" type="curve" smooth="yes"/>
    </contour>
  </outline>
</glyph>
<glyph name="P" format="2">
  <advance width="1833.005262093889"/>
  <unicode hex="0050"/>
  <anchor x="916.6081290550032" y="0.0" name="bottom"/>
  <anchor x="916.6081290550032" y="1600.0" name="top"/>
  <outline>
    <contour>
      <point x="112.30652766725937" y="0.0" type="line"/>
      <point x="581.2659424317221" y="0.0" type="line"/>
      <point x="581.2659424317221" y="456.6828335251719" type="line"/>
      <point x="1440.9403891914228" y="456.6828335251719" type="line" smooth="yes"/>
      <point x="1461.5307117258283" y="456.6828335251719"/>
      <point x="1471.1222693995917" y="463.3440736544019"/>
      <point x="1480.4058583492422" y="475.3770565685901" type="curve" smooth="yes"/>
      <point x="1740.356715635006" y="885.4849680798654" type="line" smooth="yes"/>
      <point x="1748.1508974566527" y="894.8485439210402"/>
      <point x="1753.0313906277274" y="903.5388449175096"/>
      <point x="1753.0313906277274" y="915.7662012884682" type="curve" smooth="yes"/>
      <point x="1753.0313906277274" y="1575.0246621333051" type="line" smooth="yes"/>
      <point x="1752.6607981070665" y="1590.8859207142739"/>
      <point x="1743.8305921936312" y="1600.0"/>
      <point x="1727.6854602403714" y="1600.0" type="curve" smooth="yes"/>
      <point x="137.5923476037928" y="1600.0" type="line" smooth="yes"/>
      <point x="121.50732610135556" y="1600.0"/>
      <point x="112.30652766725937" y="1590.7992015659038"/>
      <point x="112.30652766725937" y="1575.0246621333051" type="curve" smooth="yes"/>
    </contour>
    <contour>
      <point x="581.2659424317221" y="754.4450704119848" type="line"/>
      <point x="581.2659424317221" y="1278.3699327422796" type="line" smooth="yes"/>
      <point x="581.2659424317221" y="1295.5327894657325"/>
      <point x="587.3944583953455" y="1302.435992223953"/>
      <point x="599.3653161422435" y="1302.435992223953" type="curve" smooth="yes"/>
      <point x="1261.898965075042" y="1302.435992223953" type="line" smooth="yes"/>
      <point x="1272.5447472273163" y="1302.435992223953"/>
      <point x="1282.8631212155137" y="1299.044572952192"/>
      <point x="1284.0719758632647" y="1287.9542771301626" type="curve" smooth="yes"/>
      <point x="1284.0719758632647" y="994.3027960358435" type="line" smooth="yes"/>
      <point x="1284.0719758632647" y="983.9993233648993"/>
      <point x="1283.1690810410391" y="969.2538599238776"/>
      <point x="1275.4772709761723" y="959.9743080928424" type="curve" smooth="yes"/>
      <point x="1135.718302297813" y="771.6885084086447" type="line" smooth="yes"/>
      <point x="1127.3678000309776" y="760.5793996669279"/>
      <point x="1111.3877403778972" y="754.4450704119848"/>
      <point x="1109.9553271186853" y="754.4450704119848" type="curve" smooth="yes"/>
    </contour>
  </outline>
</glyph>
<glyph name="Q" format="2">
  <advance width="1896.0447906941054"/>
  <unicode hex="0051"/>
  <anchor x="947.9043681321878" y="0.0" name="bottom"/>
  <anchor x="947.9043681321878" y="800.0" name="center"/>
  <anchor x="1706.3504005428008" y="10.0" name="ogonek"/>
  <anchor x="947.9043681321878" y="1600.0" name="top"/>
  <anchor x="20.0" y="1600.0" name="topleft"/>
  <anchor x="1876.0447906941058" y="1600.0" name="topright"/>
  <outline>
    <contour>
      <point x="807.9892838315562" y="-262.41153895673443" type="line"/>
      <point x="1144.1409693502665" y="-262.41153895673443" type="line"/>
      <point x="1144.1409693502665" y="0.7888262430718289" type="line"/>
      <point x="807.9892838315562" y="0.7888262430718289" type="line"/>
    </contour>
    <component base="O"/>
  </outline>
</glyph>
<glyph name="R" format="2">
  <advance width="1856.52256425742"/>
  <unicode hex="0052"/>
  <anchor x="928.477060095041" y="0.0" name="bottom"/>
  <anchor x="928.477060095041" y="1600.0" name="top"/>
  <outline>
    <contour>
      <point x="112.30652766725937" y="0.0" type="line"/>
      <point x="581.2659424317221" y="0.0" type="line"/>
      <point x="581.2659424317221" y="523.0066747217933" type="line"/>
      <point x="1448.4238046323787" y="523.0066747217933" type="line" smooth="yes"/>
      <point x="1461.5431127930808" y="523.0066747217933"/>
      <point x="1470.58032870406" y="526.094631933484"/>
      <point x="1481.272921397115" y="535.8131655301146" type="curve" smooth="yes"/>
      <point x="1750.4124597870193" y="861.7046607232533" type="line" smooth="yes"/>
      <point x="1759.1551012544637" y="869.355143860382"/>
      <point x="1762.71654225908" y="881.8298651158468"/>
      <point x="1762.71654225908" y="894.0572214868057" type="curve" smooth="yes"/>
      <point x="1762.71654225908" y="1575.0246621333051" type="line" smooth="yes"/>
      <point x="1762.71654225908" y="1590.1447356729518"/>
      <point x="1753.5157438249835" y="1600.0"/>
      <point x="1737.8013148432074" y="1600.0" type="curve" smooth="yes"/>
      <point x="137.5923476037928" y="1600.0" type="line" smooth="yes"/>
      <point x="121.50732610135556" y="1600.0"/>
      <point x="112.30652766725937" y="1590.7992015659038"/>
      <point x="112.30652766725937" y="1575.0246621333051" type="curve" smooth="yes"/>
    </contour>
    <contour>
      <point x="581.2659424317221" y="789.6776442058058" type="line"/>
      <point x="581.2659424317221" y="1250.0337166740178" type="line" smooth="yes"/>
      <point x="581.2659424317221" y="1266.6022179553408"/>
      <point x="587.3944583953455" y="1274.099776155691"/>
      <point x="599.3653161422435" y="1274.099776155691" type="curve" smooth="yes"/>
      <point x="1270.64264515205" y="1274.099776155691" type="line" smooth="yes"/>
      <point x="1281.5121902257924" y="1274.099776155691"/>
      <point x="1292.768903479233" y="1269.3728164004785"/>
      <point x="1293.6071656063232" y="1259.023705619771" type="curve" smooth="yes"/>
      <point x="1293.6071656063232" y="957.7157213343185" type="line" smooth="yes"/>
      <point x="1293.6071656063232" y="950.3369151899024"/>
      <point x="1293.044826016336" y="933.0007926545435"/>
      <point x="1285.0124607192306" y="923.4473438421398" type="curve" smooth="yes"/>
      <point x="1199.7274270721466" y="806.1297272272664" type="line" smooth="yes"/>
      <point x="1190.4218400140403" y="793.9552118381309"/>
      <point x="1183.4117155144659" y="789.6776442058058"/>
      <point x="1173.2266595685942" y="789.6776442058058" type="curve" smooth="yes"/>
    </contour>
    <contour>
      <point x="1334.938232960434" y="0.0" type="line"/>
      <point x="1815.6224429721315" y="-0.28387337229101595" type="line"/>
      <point x="1491.4875586840333" y="626.6562160898729" type="line"/>
      <point x="1050.0459274953714" y="627.9385391782296" type="line"/>
    </contour>
  </outline>
</glyph>
<glyph name="S" format="2">
  <advance width="1718.8603249717487"/>
  <unicode hex="0053"/>
  <anchor x="859.7080788860789" y="0.0" name="bottom"/>
  <anchor x="859.7080788860789" y="1600.0" name="top"/>
  <outline>
    <contour>
      <point x="83.16551244313689" y="0.0" type="line"/>
      <point x="1267.9751945105" y="0.0" type="line" smooth="yes"/>
      <point x="1287.8248309319015" y="0.0"/>
      <point x="1299.2035574733525" y="9.694665403522052"/>
      <point x="1312.6679527773488" y="23.147454022943247" type="curve" smooth="yes"/>
      <point x="1620.9014840633542" y="329.00360166220656" type="line" smooth="yes"/>
      <point x="1632.8597933575256" y="341.428128863091"/>
      <point x="1635.422002579998" y="358.49913133622476"/>
      <point x="1635.422002579998" y="375.7396151250671" type="curve" smooth="yes"/>
      <point x="1635.422002579998" y="929.1281280094538" type="line" smooth="yes"/>
      <point x="1635.422002579998" y="940.7462909939891"/>
      <point x="1627.1457016189486" y="948.5149556612787"/>
      <point x="1616.035174928173" y="948.5149556612787" type="curve" smooth="yes"/>
      <point x="535.7373582385544" y="948.5149556612787" type="line" smooth="yes"/>
      <point x="524.6268315477787" y="948.5149556612787"/>
      <point x="516.574293508198" y="961.7825006689131"/>
      <point x="516.574293508198" y="963.6392960761052" type="curve" smooth="yes"/>
      <point x="516.574293508198" y="1053.9306762035303" type="line" smooth="yes"/>
      <point x="516.574293508198" y="1061.991623459495"/>
      <point x="518.2459653330762" y="1073.9030639725079"/>
      <point x="529.738914257555" y="1086.2551647414998" type="curve" smooth="yes"/>
      <point x="672.3932292366686" y="1268.4013624861927" type="line" smooth="yes"/>
      <point x="685.1083907986814" y="1282.7209169001426"/>
      <point x="696.5950296586043" y="1291.9062645603572"/>
      <point x="716.5783512097578" y="1291.9062645603572" type="curve" smooth="yes"/>
      <point x="1627.8971553616807" y="1291.9062645603572" type="line"/>
      <point x="1627.8971553616807" y="1600.0" type="line"/>
      <point x="422.0896790320643" y="1600.0" type="line" smooth="yes"/>
      <point x="402.403695081309" y="1600.0"/>
      <point x="390.5072118655439" y="1591.9091056985094"/>
      <point x="378.27514957963604" y="1576.568672604766" type="curve" smooth="yes"/>
      <point x="102.27230866154417" y="1234.9471366828702" type="line" smooth="yes"/>
      <point x="90.99540111443618" y="1221.7209868332775"/>
      <point x="88.03566351719148" y="1207.594348258585"/>
      <point x="88.03566351719148" y="1189.923161498259" type="curve" smooth="yes"/>
      <point x="88.03566351719148" y="663.3770632475089" type="line" smooth="yes"/>
      <point x="88.03566351719148" y="651.9826631844422"/>
      <point x="95.65749858528868" y="643.990235595684"/>
      <point x="107.42249116901637" y="643.990235595684" type="curve" smooth="yes"/>
      <point x="1217.7533244762494" y="643.990235595684" type="line" smooth="yes"/>
      <point x="1228.8638511670251" y="643.990235595684"/>
      <point x="1237.1401521280745" y="633.3427387168965"/>
      <point x="1237.1401521280745" y="631.4859433097043" type="curve" smooth="yes"/>
      <point x="1237.1401521280745" y="538.6702509151081" type="line" smooth="yes"/>
      <point x="1237.1401521280745" y="535.7554188840231"/>
      <point x="1235.5762486320361" y="519.3653416023955"/>
      <point x="1219.7677554190805" y="505.0471764078364" type="curve" smooth="yes"/>
      <point x="1067.8235628308119" y="326.5464355139871" type="line" smooth="yes"/>
      <point x="1052.9702317545527" y="312.4390444098787"/>
      <point x="1041.738478801926" y="304.2018407233059"/>
      <point x="1025.4054042608163" y="304.2018407233059" type="curve" smooth="yes"/>
      <point x="83.16551244313689" y="304.2018407233059" type="line"/>
    </contour>
  </outline>
</glyph>
<glyph name="T" format="2">
  <advance width="1802.4477894408471"/>
  <unicode hex="0054"/>
  <anchor x="901.038598460093" y="0.0" name="bottom"/>
  <anchor x="901.038598460093" y="800.0" name="center"/>
  <anchor x="901.038598460093" y="1600.0" name="top"/>
  <outline>
    <contour>
      <point x="666.9294835985228" y="0.0" type="line"/>
      <point x="1135.5183058423245" y="0.0" type="line"/>
      <point x="1135.5183058423245" y="1274.3000000000002" type="line"/>
      <point x="1730.5852140619827" y="1274.3000000000002" type="line"/>
      <point x="1730.5852140619827" y="1600.0" type="line"/>
      <point x="71.86257537886453" y="1600.0" type="line"/>
      <point x="71.86257537886453" y="1274.3000000000002" type="line"/>
      <point x="666.9294835985228" y="1274.3000000000002" type="line"/>
    </contour>
  </outline>
</glyph>
<glyph name="V" format="2">
  <advance width="1865.4610753760112"/>
  <unicode hex="0056"/>
  <anchor x="932.952621287801" y="0.0" name="bottom"/>
  <anchor x="932.952621287801" y="1600.0" name="top"/>
  <outline>
    <contour>
      <point x="112.30652766725937" y="0.0" type="line" smooth="yes"/>
      <point x="1318.0004071036815" y="0.0" type="line" smooth="yes"/>
      <point x="1862.7725820094545" y="1599.9390365879992" type="line" smooth="yes"/>
      <point x="1377.762559573603" y="1600.0" type="line" smooth="yes"/>
      <point x="974.6274315440196" y="321.7801876750234" type="line"/>
      <point x="572.5132997450623" y="321.7801876750234" type="line" smooth="yes"/>
      <point x="580.0437297941879" y="1600.0" type="line"/>
      <point x="112.30652766725937" y="1599.8780731759985" type="line"/>
    </contour>
  </outline>
</glyph>
<glyph name="X" format="2">
  <advance width="1888.869713920214"/>
  <unicode hex="0058"/>
  <anchor x="944.6201532204375" y="0.0" name="bottom"/>
  <anchor x="944.6201532204375" y="1600.0" name="top"/>
  <outline>
    <contour>
      <point x="878.678320320987" y="644.6900697718711" type="line"/>
      <point x="1307.0180815270182" y="644.6900697718711" type="line" smooth="yes"/>
      <point x="1322.5433242274457" y="644.6900697718711"/>
      <point x="1329.0296658063787" y="637.2919976252423"/>
      <point x="1329.0296658063787" y="621.5429920033463" type="curve" smooth="yes"/>
      <point x="1329.0296658063787" y="0.0" type="line"/>
      <point x="1797.6184880501805" y="0.0" type="line"/>
      <point x="1797.6184880501805" y="785.2302055842074" type="line" smooth="yes"/>
      <point x="1797.6184880501805" y="800.3247453131513"/>
      <point x="1788.654219442904" y="809.9434798133798"/>
      <point x="1772.9653242718307" y="809.9434798133798" type="curve" smooth="yes"/>
      <point x="1386.077981625604" y="809.9434798133798" type="line"/>
      <point x="1765.2611682894446" y="1006.7529380595815" type="line" smooth="yes"/>
      <point x="1776.2199926035578" y="1012.4252555542007"/>
      <point x="1781.8402773877208" y="1021.4758657457585"/>
      <point x="1781.8402773877208" y="1034.807312865611" type="curve" smooth="yes"/>
      <point x="1781.8402773877208" y="1600.0" type="line"/>
      <point x="1313.2514551439192" y="1600.0" type="line"/>
      <point x="1313.2514551439192" y="1126.953946978498" type="line" smooth="yes"/>
      <point x="1313.2514551439192" y="1114.784602045357"/>
      <point x="1309.197366820404" y="1104.2614075972492"/>
      <point x="1300.5361381821663" y="1097.5906403865642" type="curve" smooth="yes"/>
      <point x="1012.1913935992271" y="945.1008062082144" type="line"/>
      <point x="601.8398836735395" y="945.1008062082144" type="line" smooth="yes"/>
      <point x="588.8191766990027" y="945.1008062082144"/>
      <point x="581.618258776295" y="951.9912420610838"/>
      <point x="581.618258776295" y="970.1846729580477" type="curve" smooth="yes"/>
      <point x="581.618258776295" y="1600.0" type="line"/>
      <point x="113.02943653249334" y="1600.0" type="line"/>
      <point x="113.02943653249334" y="811.71404683751" type="line" smooth="yes"/>
      <point x="113.02943653249334" y="796.8432700300344"/>
      <point x="121.9937051397697" y="786.6301800876765"/>
      <point x="138.05319283150425" y="786.6301800876765" type="curve" smooth="yes"/>
      <point x="503.4646689478599" y="786.6301800876765" type="line"/>
      <point x="107.83033496831004" y="587.191314362136" type="line" smooth="yes"/>
      <point x="96.50091813353552" y="581.5798046410952"/>
      <point x="91.25122587003378" y="572.407423263958"/>
      <point x="91.25122587003378" y="558.7053836234445" type="curve" smooth="yes"/>
      <point x="91.25122587003378" y="0.0" type="line"/>
      <point x="559.8400481138353" y="0.0" type="line"/>
      <point x="559.8400481138353" y="459.55220266811807" type="line" smooth="yes"/>
      <point x="559.8400481138353" y="471.7215476012591"/>
      <point x="564.0143573389956" y="481.97909784283183"/>
      <point x="572.8392384478796" y="488.97647267205275" type="curve" smooth="yes"/>
    </contour>
  </outline>
</glyph>
<glyph name="Y" format="2">
  <advance width="1778.0880670692895"/>
  <unicode hex="0059"/>
  <anchor x="889.3348278030339" y="0.0" name="bottom"/>
  <anchor x="889.3348278030339" y="1600.0" name="top"/>
  <anchor x="20.0" y="1600.0" name="topleft"/>
  <outline>
    <contour>
      <point x="1019.7383735573121" y="0.0" type="line"/>
      <point x="1488.3271958011137" y="0.0" type="line"/>
      <point x="1757.7335335327705" y="1600.0" type="line" smooth="yes"/>
      <point x="1298.088191102349" y="1600.0" type="line" smooth="yes"/>
      <point x="1185.460182222877" y="918.6954975959923" type="line"/>
      <point x="574.4310612334207" y="918.6954975959923" type="line" smooth="yes"/>
      <point x="565.0618837042122" y="918.6954975959923"/>
      <point x="558.008492703453" y="923.3634988856609"/>
      <point x="558.008492703453" y="933.7577348284826" type="curve" smooth="yes"/>
      <point x="558.008492703453" y="1600.0" type="line"/>
      <point x="89.04907793899031" y="1600.0" type="line" smooth="yes"/>
      <point x="89.04907793899031" y="604.7557199460016" type="line" smooth="yes"/>
      <point x="89.04907793899031" y="595.3865424167928"/>
      <point x="95.44800304679737" y="589.198613325103"/>
      <point x="105.842238989619" y="589.198613325103" type="curve" smooth="yes"/>
      <point x="1130.8430411267448" y="589.198613325103" type="line"/>
    </contour>
  </outline>
</glyph>
<glyph name="Z" format="2">
  <advance width="1718.3866433724502"/>
  <unicode hex="005A"/>
  <anchor x="859.3720457118355" y="0.0" name="bottom"/>
  <anchor x="859.3720457118355" y="800.0" name="center"/>
  <anchor x="859.3720457118355" y="1600.0" name="top"/>
  <outline>
    <contour>
      <point x="113.12539240819532" y="0.0" type="curve" smooth="yes"/>
      <point x="1605.2612509642547" y="0.0" type="line" smooth="yes"/>
      <point x="1618.580795788725" y="0.0"/>
      <point x="1626.4423753373565" y="12.406734254917462"/>
      <point x="1626.4423753373565" y="33.18035176476394" type="curve" smooth="yes"/>
      <point x="1626.4423753373565" y="573.7032983473783" type="line"/>
      <point x="1263.1047270125814" y="573.7032983473783" type="line"/>
      <point x="1263.1047270125814" y="363.00920076369766" type="line" smooth="yes"/>
      <point x="1263.1047270125814" y="342.45934617531964"/>
      <point x="1254.425029100352" y="329.4582564782727"/>
      <point x="1241.476076796543" y="329.4582564782727" type="curve" smooth="yes"/>
      <point x="487.318127865208" y="329.4582564782727" type="line" smooth="yes"/>
      <point x="474.36917556139895" y="329.4582564782727"/>
      <point x="465.46571472770114" y="364.3219400748849"/>
      <point x="465.46571472770114" y="354.41485347384736" type="curve" smooth="yes"/>
      <point x="465.46571472770114" y="415.30615529524005" type="line" smooth="yes"/>
      <point x="465.46571472770114" y="407.21578095546283"/>
      <point x="471.12676408841475" y="452.9556208508031"/>
      <point x="481.1045873427828" y="460.97447010852807" type="curve" smooth="yes"/>
      <point x="1604.6898745584742" y="1128.1692143366186" type="line" smooth="yes"/>
      <point x="1615.2314446026521" y="1136.9236891185878"/>
      <point x="1621.654501830913" y="1148.0456462737104"/>
      <point x="1621.654501830913" y="1165.152873573576" type="curve" smooth="yes"/>
      <point x="1621.654501830913" y="1575.7631280486157" type="line" smooth="yes"/>
      <point x="1621.654501830913" y="1590.2183103518814"/>
      <point x="1613.345396439345" y="1600.0"/>
      <point x="1598.5364444868715" y="1600.0" type="curve" smooth="yes"/>
      <point x="116.84011274160162" y="1600.0" type="line" smooth="yes"/>
      <point x="102.40175330978909" y="1600.0"/>
      <point x="93.49829247609131" y="1590.8727762448339"/>
      <point x="93.49829247609131" y="1575.7631280486157" type="curve" smooth="yes"/>
      <point x="93.49829247609131" y="1045.3751276385824" type="line"/>
      <point x="456.44402314382944" y="1045.3751276385824" type="line"/>
      <point x="456.44402314382944" y="1239.8227838931168" type="line" smooth="yes"/>
      <point x="456.44402314382944" y="1260.536290952141"/>
      <point x="464.67619521312173" y="1273.5974911000103"/>
      <point x="478.72713925281994" y="1273.5974911000103" type="curve" smooth="yes"/>
      <point x="1274.2459071770015" y="1273.5974911000103" type="line" smooth="yes"/>
      <point x="1286.9710965593422" y="1273.5974911000103"/>
      <point x="1296.1751096471526" y="1239.4735153470274"/>
      <point x="1295.87455739304" y="1250.5592390269665" type="curve" smooth="yes"/>
      <point x="1290.8859215312368" y="1276.7187558932214" type="line" smooth="yes"/>
      <point x="1290.3951081089306" y="1284.2962431410187"/>
      <point x="1285.177584636382" y="1240.3206344298192"/>
      <point x="1275.3674138074318" y="1232.0737959416094" type="curve" smooth="yes"/>
      <point x="108.84878485671041" y="546.9410678935485" type="line" smooth="yes"/>
      <point x="97.32544397828849" y="537.7124585710947"/>
      <point x="91.66039466280286" y="526.8408730349881"/>
      <point x="91.66039466280286" y="510.1042382557837" type="curve" smooth="yes"/>
      <point x="91.66039466280286" y="33.18035176476394" type="line" smooth="yes"/>
      <point x="91.66039466280286" y="13.061200147869524"/>
      <point x="99.58208466225672" y="0.0"/>
    </contour>
  </outline>
</glyph>
<glyph name="bracketleft" format="2">
  <advance width="865.6158321820685"/>
  <unicode hex="005B"/>
  <outline>
    <contour>
      <point x="119.32388306544915" y="-133.99015811278122" type="line"/>
      <point x="821.1080682934295" y="-133.99015811278122" type="line"/>
      <point x="821.1080682934295" y="204.25761214477183" type="line"/>
      <point x="560.3221295361868" y="204.25761214477183" type="line"/>
      <point x="560.3221295361868" y="1395.7423878552286" type="line"/>
      <point x="826.1080682934294" y="1395.7423878552286" type="line"/>
      <point x="826.1080682934294" y="1733.9901581127813" type="line"/>
      <point x="119.32388306544915" y="1733.9901581127813" type="line"/>
    </contour>
  </outline>
</glyph>
<glyph name="backslash" format="2">
  <advance width="886.0431689968023"/>
  <unicode hex="005C"/>
  <outline>
    <contour>
      <point x="445.5953035421216" y="0.0" type="line"/>
      <point x="827.6826112186279" y="0.0" type="line"/>
      <point x="440.81845797534174" y="1600.0" type="line"/>
      <point x="58.36055777817443" y="1600.0" type="line"/>
    </contour>
  </outline>
</glyph>
<glyph name="asciicircum" format="2">
  <advance width="1175.242505990393"/>
  <unicode hex="005E"/>
  <outline>
    <contour>
      <point x="52.125305743807466" y="960.0" type="line"/>
      <point x="357.7868214223805" y="960.0" type="line"/>
      <point x="547.6805982412651" y="1460.4944042758816" type="line"/>
      <point x="627.8457811214191" y="1460.4944042758816" type="line"/>
      <point x="817.4556845680127" y="960.0" type="line"/>
      <point x="1123.1172002465855" y="960.0" type="line"/>
      <point x="798.8712875172238" y="1600.0" type="line"/>
      <point x="376.2243888739768" y="1600.0" type="line"/>
    </contour>
  </outline>
</glyph>
<glyph name="a" format="2">
  <advance width="1720.1729717989106"/>
  <unicode hex="0061"/>
  <anchor x="860.4809878913966" y="0.0" name="bottom"/>
  <anchor x="1547.8389876586461" y="10.0" name="ogonek"/>
  <anchor x="860.4809878913966" y="1200.0" name="top"/>
  <outline>
    <contour>
      <point x="128.1506339968874" y="0.0" type="curve" smooth="yes"/>
      <point x="1006.7304536107545" y="0.0" type="line" smooth="yes"/>
      <point x="1015.7823704534023" y="0.0"/>
      <point x="1021.3249614905405" y="2.8434139675777024"/>
      <point x="1026.849296850878" y="10.576746174053003" type="curve" smooth="yes"/>
      <point x="1201.8725192130119" y="276.3276004891243" type="line"/>
      <point x="1152.9977523845644" y="277.52686117057505" type="line"/>
      <point x="1152.9977523845644" y="0.0" type="line"/>
      <point x="1621.5865746283662" y="0.0" type="line"/>
      <point x="1621.5865746283662" y="1158.6021000061348" type="line" smooth="yes"/>
      <point x="1621.5865746283662" y="1184.5079543187205"/>
      <point x="1606.8057540454115" y="1200.0"/>
      <point x="1580.2454338398738" y="1200.0" type="curve" smooth="yes"/>
      <point x="351.7439096625838" y="1200.0" type="line" smooth="yes"/>
      <point x="328.11555303479423" y="1200.0"/>
      <point x="317.16358278131605" y="1189.510964790842"/>
      <point x="305.0001705949943" y="1167.5377959218317" type="curve" smooth="yes"/>
      <point x="99.64384273299623" y="783.1770680142205" type="line" smooth="yes"/>
      <point x="89.22967152879278" y="761.801997132535"/>
      <point x="86.46886063073107" y="746.8312032028886"/>
      <point x="86.46886063073107" y="724.593529115319" type="curve" smooth="yes"/>
      <point x="86.46886063073107" y="41.39789999386532" type="line" smooth="yes"/>
      <point x="86.46886063073107" y="15.492045681279704"/>
      <point x="101.59031379134971" y="0.0"/>
    </contour>
    <contour>
      <point x="550.2598723347704" y="299.0185199569439" type="curve" smooth="yes"/>
      <point x="550.2598723347704" y="656.3239042734273" type="line" smooth="yes"/>
      <point x="550.2598723347704" y="674.6965980251036"/>
      <point x="553.599750616208" y="686.252463043774"/>
      <point x="567.0740145352329" y="707.2314179663479" type="curve" smooth="yes"/>
      <point x="692.0489811081218" y="919.8259690596124" type="line" smooth="yes"/>
      <point x="698.0844088117096" y="928.9085357280657"/>
      <point x="703.6958604245101" y="932.0582805144824"/>
      <point x="712.4071446894939" y="932.0582805144824" type="curve" smooth="yes"/>
      <point x="1139.8586256438605" y="932.0582805144824" type="line" smooth="yes"/>
      <point x="1149.2404165355752" y="932.0582805144824"/>
      <point x="1151.7888977368134" y="928.4530924870376"/>
      <point x="1152.1800867294553" y="922.8026333136512" type="curve" smooth="yes"/>
      <point x="1152.9977523845644" y="462.18298099683284" type="line"/>
      <point x="1033.5995364848004" y="294.1677960716455" type="line" smooth="yes"/>
      <point x="1028.5535619739637" y="287.3051151251247"/>
      <point x="1023.6090680125108" y="284.0385757405295"/>
      <point x="1015.7760125619475" y="284.0385757405295" type="curve" smooth="yes"/>
      <point x="564.2802282821942" y="284.0385757405295" type="line" smooth="yes"/>
      <point x="555.2984661451001" y="284.0385757405295"/>
      <point x="550.2598723347704" y="297.81817835460794"/>
    </contour>
  </outline>
</glyph>
<glyph name="b" format="2">
  <advance width="1719.380387246015"/>
  <unicode hex="0062"/>
  <anchor x="859.8993993546185" y="0.0" name="bottom"/>
  <anchor x="429.8824306318439" y="1280.0" name="center"/>
  <anchor x="859.8993993546185" y="1200.0" name="top"/>
  <outline>
    <contour>
      <point x="96.85547335240598" y="44.52774891981073" type="curve" smooth="yes"/>
      <point x="96.85547335240598" y="1600.0" type="line"/>
      <point x="565.4442955962076" y="1600.0" type="line"/>
      <point x="565.4442955962076" y="295.38591719075237" type="line" smooth="yes"/>
      <point x="565.4442955962076" y="288.86569963201623"/>
      <point x="570.4350719583404" y="283.5910498975925"/>
      <point x="577.6097554100285" y="283.5910498975925" type="curve" smooth="yes"/>
      <point x="1037.5614813018117" y="283.5910498975925" type="line" smooth="yes"/>
      <point x="1043.436352105989" y="283.5910498975925"/>
      <point x="1046.2487053180912" y="284.67450683518626"/>
      <point x="1050.9001730521718" y="291.6800803877484" type="curve" smooth="yes"/>
      <point x="1158.6450454173696" y="437.9088920718792" type="line" smooth="yes"/>
      <point x="1162.4359527717647" y="442.74525388245684"/>
      <point x="1163.3843651062393" y="446.99232040795175"/>
      <point x="1163.3843651062393" y="453.102739129671" type="curve" smooth="yes"/>
      <point x="1163.3843651062393" y="904.5014394620687" type="line" smooth="yes"/>
      <point x="1163.3843651062393" y="911.0216570208047"/>
      <point x="1158.7074220593945" y="916.4089501024075"/>
      <point x="1151.2189052924182" y="916.4089501024075" type="curve" smooth="yes"/>
      <point x="675.8002764286579" y="916.4089501024075" type="line" smooth="yes"/>
      <point x="661.2482151753204" y="916.4089501024075"/>
      <point x="652.9737622749337" y="907.3042629011323"/>
      <point x="648.0560630922525" y="896.2069853269875" type="curve" smooth="yes"/>
      <point x="564.4442955962077" y="765.1077261771657" type="line"/>
      <point x="548.8826236777726" y="1004.872892257972" type="line"/>
      <point x="654.9860684425287" y="1180.577916774369" type="line" smooth="yes"/>
      <point x="662.2016112447777" y="1194.4972185901643"/>
      <point x="672.3800935813892" y="1200.0"/>
      <point x="687.9956701073406" y="1200.0" type="curve" smooth="yes"/>
      <point x="1587.8160309508912" y="1200.0" type="line" smooth="yes"/>
      <point x="1616.092324586398" y="1200.0"/>
      <point x="1631.973187350041" y="1184.1191372363573"/>
      <point x="1631.973187350041" y="1155.4722510801894" type="curve" smooth="yes"/>
      <point x="1631.973187350041" y="283.61938241163534" type="line" smooth="yes"/>
      <point x="1631.973187350041" y="263.64389775656605"/>
      <point x="1630.403846665305" y="246.0732557523049"/>
      <point x="1618.4229417408962" y="229.19459198191913" type="curve" smooth="yes"/>
      <point x="1480.4559248750234" y="31.530452864818635" type="line" smooth="yes"/>
      <point x="1466.824128668116" y="11.674555912511067"/>
      <point x="1451.5083647697531" y="0.0"/>
      <point x="1426.9082815624508" y="0.0" type="curve" smooth="yes"/>
      <point x="141.3832222722167" y="0.0" type="line" smooth="yes"/>
      <point x="112.73633611604876" y="0.0"/>
      <point x="96.85547335240598" y="15.880862763642781"/>
    </contour>
  </outline>
</glyph>
<glyph name="c" format="2">
  <advance width="1303.3639459748354"/>
  <unicode hex="0063"/>
  <anchor x="652.0095545952718" y="0.0" name="bottom"/>
  <anchor x="652.0095545952718" y="1200.0" name="top"/>
  <outline>
    <contour>
      <point x="134.5928544351201" y="0.0" type="curve" smooth="yes"/>
      <point x="1225.450040682315" y="0.0" type="line"/>
      <point x="1223.7191168641766" y="283.5910498975925" type="line"/>
      <point x="595.7379598314566" y="283.5910498975925" type="line" smooth="yes"/>
      <point x="570.7223227836345" y="283.5910498975925"/>
      <point x="555.9960221397757" y="297.94675802079007"/>
      <point x="555.9960221397757" y="323.3329875892732" type="curve" smooth="yes"/>
      <point x="555.9960221397757" y="718.9979968278068" type="line" smooth="yes"/>
      <point x="555.9960221397757" y="732.7172798275326"/>
      <point x="558.6775737161745" y="747.4252639999286"/>
      <point x="563.6054323072385" y="760.8301948103355" type="curve" smooth="yes"/>
      <point x="621.0799662058303" y="881.3699874466547" type="line" smooth="yes"/>
      <point x="632.6636896439999" y="906.0633503628685"/>
      <point x="647.4197563640274" y="916.4089501024075"/>
      <point x="675.0724019679715" y="916.4089501024075" type="curve" smooth="yes"/>
      <point x="1226.6487696911904" y="916.4089501024075" type="line"/>
      <point x="1226.6487696911904" y="1200.0" type="line"/>
      <point x="235.7584394729546" y="1200.0" type="line" smooth="yes"/>
      <point x="209.1744670185566" y="1200.0"/>
      <point x="190.88111660096448" y="1187.721440277443"/>
      <point x="181.69204230475566" y="1163.4620542327368" type="curve" smooth="yes"/>
      <point x="98.3545055237362" y="953.2335315317196" type="line" smooth="yes"/>
      <point x="90.0845625564491" y="932.1345960814238"/>
      <point x="87.03660737531311" y="912.134685649264"/>
      <point x="87.03660737531311" y="894.51384096995" type="curve" smooth="yes"/>
      <point x="87.03660737531311" y="47.128895333772846" type="line" smooth="yes"/>
      <point x="87.03660737531311" y="17.77543905242708"/>
      <point x="104.21433974016122" y="0.0"/>
    </contour>
  </outline>
</glyph>
<glyph name="d" format="2">
  <advance width="1711.2195677308869"/>
  <unicode hex="0064"/>
  <anchor x="855.6770529109087" y="0.0" name="bottom"/>
  <anchor x="1283.6718355438215" y="1280.0" name="center"/>
  <anchor x="855.6770529109087" y="1200.0" name="top"/>
  <anchor x="1691.2195677308869" y="1600.0" name="topright"/>
  <outline>
    <contour>
      <point x="134.5928544351201" y="0.0" type="curve" smooth="yes"/>
      <point x="1422.9498364857586" y="0.0" type="line" smooth="yes"/>
      <point x="1450.2766467024678" y="0.0"/>
      <point x="1463.7496027930683" y="16.192117367601384"/>
      <point x="1476.5052240123598" y="36.63453388635622" type="curve" smooth="yes"/>
      <point x="1607.956431870284" y="232.48770019861524" type="line" smooth="yes"/>
      <point x="1618.7737108350914" y="250.2933162699126"/>
      <point x="1622.5249138936092" y="268.4708223004384"/>
      <point x="1622.5249138936092" y="290.0570098720009" type="curve" smooth="yes"/>
      <point x="1622.5249138936092" y="1600.0" type="line"/>
      <point x="1153.5654991291465" y="1600.0" type="line"/>
      <point x="1153.5654991291465" y="1200.0" type="line"/>
      <point x="347.5825614813007" y="1200.0" type="line" smooth="yes"/>
      <point x="318.2736195226041" y="1200.0"/>
      <point x="300.7376262683462" y="1184.3682384994027"/>
      <point x="283.1210148100896" y="1167.43401360078" type="curve" smooth="yes"/>
      <point x="101.60836329866231" y="972.3685090678869" type="line" smooth="yes"/>
      <point x="89.96253322893143" y="960.9381476640282"/>
      <point x="87.03660737531311" y="943.1476780206399"/>
      <point x="87.03660737531311" y="921.2208578714133" type="curve" smooth="yes"/>
      <point x="87.03660737531311" y="47.128895333772846" type="line" smooth="yes"/>
      <point x="87.03660737531311" y="17.77543905242708"/>
      <point x="104.21433974016122" y="0.0"/>
    </contour>
    <contour>
      <point x="555.9960221397757" y="308.41607586402824" type="curve" smooth="yes"/>
      <point x="555.9960221397757" y="750.2453416934861" type="line" smooth="yes"/>
      <point x="555.9960221397757" y="761.1755634763779"/>
      <point x="557.4501902534387" y="770.4511625106171"/>
      <point x="565.4682086655747" y="779.8848594976896" type="curve" smooth="yes"/>
      <point x="650.0786965310824" y="899.7536937911775" type="line" smooth="yes"/>
      <point x="659.0860633319282" y="910.4778055768967"/>
      <point x="668.8838451727755" y="914.2482542099988"/>
      <point x="679.4486316412359" y="911.4162695531845" type="curve" smooth="yes"/>
      <point x="1153.5654991291465" y="909.6261661814367" type="line"/>
      <point x="1153.5654991291465" y="444.8123001350302" type="line" smooth="yes"/>
      <point x="1153.5654991291465" y="429.8986684280785"/>
      <point x="1150.4236947767142" y="420.2899025256653"/>
      <point x="1141.3378708807027" y="408.2110668246088" type="curve" smooth="yes"/>
      <point x="1066.3762805437984" y="299.40629310147284" type="line" smooth="yes"/>
      <point x="1058.2089268503023" y="289.78166736947503"/>
      <point x="1049.3410611569502" y="284.7098645049349"/>
      <point x="1036.8612364613014" y="284.7098645049349" type="curve" smooth="yes"/>
      <point x="578.3764788415117" y="284.7098645049349" type="line" smooth="yes"/>
      <point x="564.9120799311215" y="284.7098645049349"/>
      <point x="555.9960221397757" y="293.849685217749"/>
    </contour>
  </outline>
</glyph>
<glyph name="e" format="2">
  <advance width="1632.0061616505798"/>
  <unicode hex="0065"/>
  <anchor x="816.1883770856203" y="0.0" name="bottom"/>
  <anchor x="1468.931875362206" y="10.0" name="ogonek"/>
  <anchor x="816.1883770856203" y="1200.0" name="top"/>
  <outline>
    <contour>
      <point x="129.7340411734062" y="0.0" type="curve" smooth="yes"/>
      <point x="1542.171920342757" y="0.0" type="line"/>
      <point x="1542.171920342757" y="277.3287756001571" type="line"/>
      <point x="575.3231805127805" y="277.3287756001571" type="line" smooth="yes"/>
      <point x="563.2461040946063" y="277.3287756001571"/>
      <point x="555.9960221397757" y="284.52209834961445"/>
      <point x="555.9960221397757" y="296.2621197898185" type="curve" smooth="yes"/>
      <point x="555.9960221397757" y="750.4709632225351" type="line" smooth="yes"/>
      <point x="555.9960221397757" y="761.7911257803214"/>
      <point x="558.2605471174616" y="768.9778617249696"/>
      <point x="563.6917619640927" y="778.2183926331959" type="curve" smooth="yes"/>
      <point x="639.243732415365" y="900.5739846369879" type="line" smooth="yes"/>
      <point x="646.3405780888588" y="911.2420927723674"/>
      <point x="654.7336605324037" y="917.7356984787402"/>
      <point x="668.5569083201453" y="917.7356984787402" type="curve" smooth="yes"/>
      <point x="1059.3918973380896" y="917.7356984787402" type="line" smooth="yes"/>
      <point x="1070.6486829104535" y="917.7356984787402"/>
      <point x="1077.842005659911" y="910.4856165239098"/>
      <point x="1077.842005659911" y="899.0835251252431" type="curve" smooth="yes"/>
      <point x="1077.842005659911" y="640.1340836409914" type="line" smooth="yes"/>
      <point x="1077.842005659911" y="629.3864581352767"/>
      <point x="1071.2445621254728" y="621.4819102874942"/>
      <point x="1058.4030790032944" y="621.4819102874942" type="curve" smooth="yes"/>
      <point x="554.9960221397757" y="621.0348371530463" type="line"/>
      <point x="554.9960221397757" y="461.27656969254525" type="line"/>
      <point x="1504.1607458316535" y="461.27656969254525" type="line" smooth="yes"/>
      <point x="1530.9294591648086" y="461.27656969254525"/>
      <point x="1546.8014204243736" y="475.22948096045195"/>
      <point x="1546.8014204243736" y="502.0849134419773" type="curve" smooth="yes"/>
      <point x="1546.8014204243736" y="1157.3593254072803" type="line" smooth="yes"/>
      <point x="1546.8014204243736" y="1183.7874061627713"/>
      <point x="1531.3000516854697" y="1200.0"/>
      <point x="1504.1607458316535" y="1200.0" type="curve" smooth="yes"/>
      <point x="299.2511643047103" y="1200.0" type="line" smooth="yes"/>
      <point x="276.3079966811199" y="1200.0"/>
      <point x="261.2947683286808" y="1189.1527411437903"/>
      <point x="248.1451065718017" y="1171.5010552142485" type="curve" smooth="yes"/>
      <point x="102.44251183475939" y="973.588528670723" type="line" smooth="yes"/>
      <point x="90.42499232159493" y="957.6505735216738"/>
      <point x="87.03660737531311" y="943.7846880711256"/>
      <point x="87.03660737531311" y="922.7662472441452" type="curve" smooth="yes"/>
      <point x="87.03660737531311" y="42.64067459272" type="line" smooth="yes"/>
      <point x="87.03660737531311" y="16.212593837228876"/>
      <point x="102.87860869188094" y="0.0"/>
    </contour>
  </outline>
</glyph>
<glyph name="f" format="2">
  <advance width="1260.2187499302634"/>
  <unicode hex="0066"/>
  <anchor x="630.4674382789863" y="0.0" name="bottom"/>
  <anchor x="630.4674382789863" y="1600.0" name="top"/>
  <outline>
    <contour>
      <point x="192.78061136905993" y="0.0" type="line"/>
      <point x="192.78061136905993" y="1310.1622213639332" type="line" smooth="yes"/>
      <point x="192.78061136905993" y="1330.0988445719272"/>
      <point x="197.56456361505985" y="1345.2950909347926"/>
      <point x="210.07367861660856" y="1362.2182518826526" type="curve" smooth="yes"/>
      <point x="372.8809783831264" y="1574.5478145068948" type="line" smooth="yes"/>
      <point x="385.6180826151601" y="1591.1345691861075"/>
      <point x="401.4437364573642" y="1600.0"/>
      <point x="423.9903873614845" y="1600.0" type="curve" smooth="yes"/>
      <point x="1215.5879527747825" y="1600.0" type="line"/>
      <point x="1215.5879527747825" y="1316.4089501024077" type="line"/>
      <point x="772.0492859156598" y="1316.4089501024077" type="line" smooth="yes"/>
      <point x="757.4676693073994" y="1316.4089501024077"/>
      <point x="744.6425231940491" y="1306.913466060882"/>
      <point x="737.6663007330484" y="1298.9776830469682" type="curve" smooth="yes"/>
      <point x="670.6624102482348" y="1250.1920778747708" type="line" smooth="yes"/>
      <point x="664.0182797685633" y="1244.9513162287108"/>
      <point x="661.3694336128616" y="1217.4903979530864"/>
      <point x="661.3694336128616" y="1204.0022324843803" type="curve" smooth="yes"/>
      <point x="661.3694336128616" y="0.0" type="line"/>
    </contour>
    <contour>
      <point x="68.22204446583928" y="593.0790849182879" type="line"/>
      <point x="68.22204446583928" y="876.6701348158804" type="line"/>
      <point x="1184.8953235863864" y="876.6701348158804" type="line"/>
      <point x="1184.8953235863864" y="593.0790849182879" type="line"/>
    </contour>
  </outline>
</glyph>
<glyph name="g" format="2">
  <advance width="1708.99377452434"/>
  <unicode hex="0067"/>
  <anchor x="854.8115910018396" y="-300.0" name="bottom"/>
  <anchor x="854.8115910018396" y="1200.0" name="top"/>
  <outline>
    <contour>
      <point x="499.4312711993458" y="-300.0" type="line"/>
      <point x="1356.9041955181392" y="-300.0" type="line" smooth="yes"/>
      <point x="1393.2701371286669" y="-300.0"/>
      <point x="1408.1143585234154" y="-287.8666646867041"/>
      <point x="1427.9822407418521" y="-268.6529038014898" type="curve" smooth="yes"/>
      <point x="1608.7492890077503" y="-64.16342605244199" type="line" smooth="yes"/>
      <point x="1619.487548707034" y="-52.89425903646287"/>
      <point x="1621.5865746283662" y="-36.54030468201466"/>
      <point x="1621.5865746283662" y="-0.058939491398067645" type="curve" smooth="yes"/>
      <point x="1621.5865746283662" y="1157.3593254072803" type="line" smooth="yes"/>
      <point x="1621.5865746283662" y="1183.7874061627713"/>
      <point x="1606.3990392047504" y="1200.0"/>
      <point x="1579.3164925563071" y="1200.0" type="curve" smooth="yes"/>
      <point x="299.33746024487664" y="1200.0" type="line" smooth="yes"/>
      <point x="276.8475685461294" y="1200.0"/>
      <point x="260.8117642510901" y="1191.935864678252"/>
      <point x="248.00428834505016" y="1173.685703843275" type="curve" smooth="yes"/>
      <point x="104.05941371920386" y="976.7405088819887" type="line" smooth="yes"/>
      <point x="91.67928953919802" y="959.6461179090165"/>
      <point x="86.46886063073107" y="944.9916940919243"/>
      <point x="86.46886063073107" y="923.9732532649439" type="curve" smooth="yes"/>
      <point x="86.46886063073107" y="183.10145307147422" type="line" smooth="yes"/>
      <point x="86.46886063073107" y="156.61661311060996"/>
      <point x="102.2541027419258" y="140.77461179404213"/>
      <point x="129.3934085957421" y="140.77461179404213" type="curve" smooth="yes"/>
      <point x="1044.0122479129893" y="140.77461179404213" type="line" smooth="yes"/>
      <point x="1055.4188220970316" y="140.77461179404213"/>
      <point x="1063.6230866611347" y="145.03193977059124"/>
      <point x="1069.9776010845053" y="154.62758771460904" type="curve" smooth="yes"/>
      <point x="1186.3820318421065" y="376.7116152812227" type="line"/>
      <point x="1153.057862835387" y="376.7116152812227" type="line"/>
      <point x="1153.057862835387" y="119.46979102561089" type="line" smooth="yes"/>
      <point x="1153.057862835387" y="109.61332166246022"/>
      <point x="1151.7249131647884" y="98.7615899781553"/>
      <point x="1142.4706080101187" y="90.11045153533962" type="curve" smooth="yes"/>
      <point x="1058.8578713844063" y="-4.206531087562915" type="line" smooth="yes"/>
      <point x="1051.0788308351923" y="-11.832329604316598"/>
      <point x="1039.8030410701906" y="-16.408950102407523"/>
      <point x="1027.148824314304" y="-16.408950102407523" type="curve" smooth="yes"/>
      <point x="499.4312711993458" y="-16.408950102407523" type="line"/>
    </contour>
    <contour>
      <point x="569.8209378568663" y="400.6785467084449" type="line" smooth="yes"/>
      <point x="560.9146258663872" y="400.6785467084449"/>
      <point x="555.0576828745327" y="406.53548970029937"/>
      <point x="555.0576828745327" y="415.44180169077856" type="curve" smooth="yes"/>
      <point x="555.0576828745327" y="754.4849453181014" type="line" smooth="yes"/>
      <point x="555.0576828745327" y="760.5860043912487"/>
      <point x="556.735495254256" y="766.1794184706296"/>
      <point x="560.0740017473752" y="772.5457183830923" type="curve" smooth="yes"/>
      <point x="637.086372305108" y="902.6905122727715" type="line" smooth="yes"/>
      <point x="643.6264265449797" y="911.8120128522872"/>
      <point x="651.293102270223" y="916.4089501024075"/>
      <point x="663.1270281802992" y="916.4089501024075" type="curve" smooth="yes"/>
      <point x="1137.9539752753894" y="916.4089501024075" type="line" smooth="yes"/>
      <point x="1146.4896947452073" y="916.4089501024075"/>
      <point x="1152.7172302577228" y="910.4918966597306"/>
      <point x="1152.7172302577228" y="901.5855846692515" type="curve" smooth="yes"/>
      <point x="1152.9977523845644" y="577.192237880457" type="line"/>
      <point x="1069.9291334574705" y="414.30623593465367" type="line" smooth="yes"/>
      <point x="1063.6787291828407" y="404.7906174721246"/>
      <point x="1055.8010574414802" y="400.6785467084449"/>
      <point x="1043.967131531404" y="400.6785467084449" type="curve" smooth="yes"/>
    </contour>
  </outline>
</glyph>
<glyph name="h" format="2">
  <advance width="1701.0991074762674"/>
  <unicode hex="0068"/>
  <anchor x="851.0495537381336" y="0.0" name="bottom"/>
  <anchor x="425.41927886100825" y="1280.0" name="center"/>
  <anchor x="851.0495537381336" y="1600.0" name="top"/>
  <outline>
    <contour>
      <point x="96.85547335240598" y="0.0" type="line"/>
      <point x="565.4442955962076" y="0.0" type="line"/>
      <point x="565.4442955962076" y="729.0562954521656" type="line"/>
      <point x="645.452492411272" y="898.1744148958891" type="line" smooth="yes"/>
      <point x="651.7855800900841" y="911.8011589111887"/>
      <point x="660.8523501344914" y="918.9459300994451"/>
      <point x="676.9764674981325" y="918.9459300994451" type="curve" smooth="yes"/>
      <point x="1107.8532014410248" y="918.9459300994451" type="line" smooth="yes"/>
      <point x="1124.904288250752" y="918.9459300994451"/>
      <point x="1133.9238880619214" y="910.2636116204908"/>
      <point x="1133.9238880619214" y="891.8468338194862" type="curve" smooth="yes"/>
      <point x="1133.9238880619214" y="0.0" type="line"/>
      <point x="1602.883302826384" y="0.0" type="line"/>
      <point x="1602.883302826384" y="1157.3593254072803" type="line" smooth="yes"/>
      <point x="1602.883302826384" y="1183.7874061627713"/>
      <point x="1587.041301509816" y="1200.0"/>
      <point x="1560.185869028291" y="1200.0" type="curve" smooth="yes"/>
      <point x="671.1588572399779" y="1200.0" type="line" smooth="yes"/>
      <point x="655.3186132486279" y="1200.0"/>
      <point x="645.9720257980316" y="1192.3992503507736"/>
      <point x="639.6956973245925" y="1179.599077317105" type="curve" smooth="yes"/>
      <point x="531.082531324174" y="935.5539827413854" type="line"/>
      <point x="565.4442955962076" y="935.5539827413854" type="line"/>
      <point x="565.4442955962076" y="1658.6902782796692" type="line"/>
      <point x="96.85547335240598" y="1658.6902782796692" type="line"/>
    </contour>
  </outline>
</glyph>
<glyph name="i" format="2">
  <advance width="659.2107310249439"/>
  <unicode hex="0069"/>
  <anchor x="329.60536551247196" y="0.0" name="bottom"/>
  <outline>
    <contour>
      <point x="95.12565813024062" y="0.0" type="line"/>
      <point x="564.0850728947033" y="0.0" type="line"/>
      <point x="564.0850728947033" y="1200.0" type="line"/>
      <point x="95.12565813024062" y="1200.0" type="line"/>
    </contour>
    <contour>
      <point x="95.12565813024062" y="1517.2213730332965" type="line"/>
      <point x="564.0850728947033" y="1517.2213730332965" type="line"/>
      <point x="564.0850728947033" y="1342.0662605099164" type="line"/>
      <point x="95.12565813024062" y="1342.0662605099164" type="line"/>
    </contour>
  </outline>
</glyph>
<glyph name="j" format="2">
  <advance width="1088.653271757319"/>
  <unicode hex="006A"/>
  <outline>
    <contour>
      <point x="18.94605565609471" y="-300.0" type="line"/>
      <point x="791.2178131890448" y="-300.0" type="line" smooth="yes"/>
      <point x="811.3296756552943" y="-300.0"/>
      <point x="825.0321152689064" y="-287.7863240778428"/>
      <point x="838.0148506551155" y="-270.14591076112583" type="curve" smooth="yes"/>
      <point x="979.9684277551214" y="-73.23812984023415" type="line" smooth="yes"/>
      <point x="989.8764523341158" y="-61.398449619486485"/>
      <point x="993.0435026956712" y="-44.46640442014385"/>
      <point x="993.0435026956712" y="-15.660814859891168" type="curve" smooth="yes"/>
      <point x="993.1570211064175" y="1199.943240794627" type="line"/>
      <point x="524.5681988626156" y="1200.0" type="line"/>
      <point x="524.5114396572426" y="141.73800571820868" type="line" smooth="yes"/>
      <point x="524.5114396572426" y="127.65974150839226"/>
      <point x="523.1886317012941" y="118.01989155656986"/>
      <point x="516.0113046061156" y="110.49635349924071" type="curve" smooth="yes"/>
      <point x="435.8324257145895" y="-3.5891975497470554" type="line" smooth="yes"/>
      <point x="427.6478789834477" y="-13.067422346683053"/>
      <point x="421.00265507447034" y="-16.352190897034426"/>
      <point x="411.4137705898953" y="-16.352190897034426" type="curve" smooth="yes"/>
      <point x="19.002814861467805" y="-16.352190897034426" type="line"/>
    </contour>
    <contour>
      <point x="524.5681988626156" y="1300.120220901645" type="line"/>
      <point x="993.1570211064175" y="1300.063461696272" type="line"/>
      <point x="993.1570211064175" y="1559.1106534361948" type="line"/>
      <point x="524.5681988626156" y="1559.1674126415678" type="line"/>
    </contour>
  </outline>
</glyph>
<glyph name="k" format="2">
  <advance width="1673.5814253079652"/>
  <unicode hex="006B"/>
  <anchor x="836.9999183855936" y="0.0" name="bottom"/>
  <anchor x="836.9999183855936" y="1600.0" name="top"/>
  <outline>
    <contour>
      <point x="564.4442955962077" y="485.7724791862849" type="line"/>
      <point x="1086.4765327885684" y="485.7724791862849" type="line" smooth="yes"/>
      <point x="1113.916534886129" y="485.7724791862849"/>
      <point x="1127.9684328309493" y="472.40500707741387"/>
      <point x="1127.9684328309493" y="444.22381993853116" type="curve" smooth="yes"/>
      <point x="1127.9684328309493" y="0.0" type="line"/>
      <point x="1596.5572550747506" y="0.0" type="line"/>
      <point x="1596.5572550747506" y="726.6660952857843" type="line" smooth="yes"/>
      <point x="1596.5572550747506" y="753.5215277673096"/>
      <point x="1580.7152537581828" y="769.3635290838774"/>
      <point x="1553.916580482031" y="769.3635290838774" type="curve" smooth="yes"/>
      <point x="1325.9005816886984" y="769.3635290838774" type="line"/>
      <point x="1326.9005816886984" y="769.3635290838774" type="line"/>
      <point x="1515.3495713458835" y="1200.0" type="line"/>
      <point x="1065.4069981650548" y="1200.1345380909306" type="line"/>
      <point x="905.3070869038404" y="769.3635290838774" type="line"/>
      <point x="564.4442955962077" y="769.3635290838774" type="line"/>
    </contour>
    <contour>
      <point x="96.85547335240598" y="0.0" type="line"/>
      <point x="565.4442955962076" y="0.0" type="line"/>
      <point x="565.4442955962076" y="1600.0" type="line"/>
      <point x="96.85547335240598" y="1600.0" type="line"/>
    </contour>
  </outline>
</glyph>
<glyph name="l" format="2">
  <advance width="662.2997689486135"/>
  <unicode hex="006C"/>
  <anchor x="331.33518073463733" y="0.0" name="bottom"/>
  <anchor x="331.33518073463733" y="600.0" name="center"/>
  <anchor x="331.33518073463733" y="1600.0" name="top"/>
  <anchor x="642.2997689486136" y="1600.0" name="topright"/>
  <outline>
    <contour>
      <point x="96.85547335240598" y="0.0" type="line"/>
      <point x="565.4442955962076" y="0.0" type="line"/>
      <point x="565.4442955962076" y="1600.0" type="line"/>
      <point x="96.85547335240598" y="1600.0" type="line"/>
    </contour>
  </outline>
</glyph>
<glyph name="m" format="2">
  <advance width="2529.4076795741967"/>
  <unicode hex="006D"/>
  <anchor x="1264.9946340554875" y="0.0" name="bottom"/>
  <anchor x="1264.9946340554875" y="1200.0" name="top"/>
  <outline>
    <contour>
      <point x="86.46886063073107" y="0.0" type="line"/>
      <point x="555.0576828745327" y="0.0" type="line"/>
      <point x="555.0576828745327" y="752.1221663310494" type="line" smooth="yes"/>
      <point x="555.0576828745327" y="762.0393918850268"/>
      <point x="557.7079661146877" y="771.6206256785533"/>
      <point x="563.6445370740297" y="780.1433181726005" type="curve" smooth="yes"/>
      <point x="633.0529991467724" y="901.8054652614403" type="line" smooth="yes"/>
      <point x="639.6440359990664" y="911.9267395066337"/>
      <point x="647.8792745518103" y="916.4089501024075"/>
      <point x="660.2815664354283" y="916.4089501024075" type="curve" smooth="yes"/>
      <point x="1001.7432308519763" y="916.4089501024075" type="line" smooth="yes"/>
      <point x="1015.7269580746324" y="916.4089501024075"/>
      <point x="1024.3506603952908" y="907.9287261354923"/>
      <point x="1024.3506603952908" y="893.574406392175" type="curve" smooth="yes"/>
      <point x="1024.3506603952908" y="0.0" type="line"/>
      <point x="1492.9394826390926" y="0.0" type="line"/>
      <point x="1492.9394826390926" y="775.1709364759193" type="line"/>
      <point x="1565.4896653176193" y="900.2373529547201" type="line" smooth="yes"/>
      <point x="1572.1958898915336" y="910.8234556287485"/>
      <point x="1579.206877944491" y="916.4089501024075"/>
      <point x="1592.1143004397006" y="916.4089501024075" type="curve" smooth="yes"/>
      <point x="1939.2544380958748" y="916.4089501024075" type="line" smooth="yes"/>
      <point x="1953.608757839192" y="916.4089501024075"/>
      <point x="1962.2324601598505" y="907.7177301193751"/>
      <point x="1962.2324601598505" y="893.2766912276879" type="curve" smooth="yes"/>
      <point x="1962.2324601598505" y="0.0" type="line"/>
      <point x="2430.8212824036527" y="0.0" type="line"/>
      <point x="2430.8212824036527" y="1160.3310643419034" type="line" smooth="yes"/>
      <point x="2430.8212824036527" y="1185.0842757639766"/>
      <point x="2416.560024060581" y="1200.0"/>
      <point x="2391.1523467455554" y="1200.0" type="curve" smooth="yes"/>
      <point x="1593.221607444193" y="1200.0" type="line" smooth="yes"/>
      <point x="1580.2583008071774" y="1200.0"/>
      <point x="1572.513153197444" y="1193.07464532945"/>
      <point x="1565.9009129655951" y="1183.32194532179" type="curve" smooth="yes"/>
      <point x="1460.0241724281307" y="1030.3509338041026" type="line"/>
      <point x="1490.0147258766422" y="1030.3509338041026" type="line"/>
      <point x="1490.0147258766422" y="1152.2330422390469" type="line" smooth="yes"/>
      <point x="1490.0147258766422" y="1184.4597698140215"/>
      <point x="1475.4128349559064" y="1200.0"/>
      <point x="1421.222870591259" y="1200.0" type="curve" smooth="yes"/>
      <point x="299.81341977131217" y="1200.0" type="line" smooth="yes"/>
      <point x="280.221485107084" y="1200.0"/>
      <point x="266.19836569765334" y="1194.2856003757695"/>
      <point x="249.642635373168" y="1169.9546134648217" type="curve" smooth="yes"/>
      <point x="102.1819424897634" y="920.4700043786765" type="line" smooth="yes"/>
      <point x="89.15927076963445" y="903.0311714181746"/>
      <point x="86.46886063073107" y="890.9450673442973"/>
      <point x="86.46886063073107" y="852.4427089646185" type="curve" smooth="yes"/>
    </contour>
  </outline>
</glyph>
<glyph name="n" format="2">
  <advance width="1692.4434185727307"/>
  <unicode hex="006E"/>
  <anchor x="846.6162112783069" y="0.0" name="bottom"/>
  <anchor x="846.6162112783069" y="1200.0" name="top"/>
  <outline>
    <contour>
      <point x="86.46886063073107" y="0.0" type="line"/>
      <point x="555.0576828745327" y="0.0" type="line"/>
      <point x="555.0576828745327" y="739.818051790076" type="line" smooth="yes"/>
      <point x="555.0576828745327" y="755.8262040414518"/>
      <point x="557.6185444301908" y="764.7064928272457"/>
      <point x="564.8696269144286" y="776.744270574579" type="curve" smooth="yes"/>
      <point x="632.3902509787017" y="896.6045553438544" type="line" smooth="yes"/>
      <point x="639.4160467685815" y="908.9693207306148"/>
      <point x="649.742063425038" y="916.4089501024075"/>
      <point x="665.7535374415" y="916.4089501024075" type="curve" smooth="yes"/>
      <point x="1097.509086726845" y="916.4089501024075" type="line" smooth="yes"/>
      <point x="1115.5552720071887" y="916.4089501024075"/>
      <point x="1125.2681991583847" y="906.5717460834644"/>
      <point x="1125.2681991583847" y="888.4956008601239" type="curve" smooth="yes"/>
      <point x="1125.2681991583847" y="0.0" type="line"/>
      <point x="1593.8570214021865" y="0.0" type="line"/>
      <point x="1593.8570214021865" y="1152.8711046662274" type="line" smooth="yes"/>
      <point x="1593.8570214021865" y="1182.224560947573"/>
      <point x="1577.106640763372" y="1200.0"/>
      <point x="1546.7281260684135" y="1200.0" type="curve" smooth="yes"/>
      <point x="300.82935170102996" y="1200.0" type="line" smooth="yes"/>
      <point x="277.99882742461864" y="1200.0"/>
      <point x="263.617492011772" y="1191.4290104505708"/>
      <point x="250.15064569415551" y="1172.1228586280768" type="curve" smooth="yes"/>
      <point x="104.64449749106313" y="919.398789151413" type="line" smooth="yes"/>
      <point x="92.79725559401797" y="904.3432891258008"/>
      <point x="88.18203068020297" y="888.1725765736387"/>
      <point x="86.46886063073107" y="863.3169349029658" type="curve" smooth="yes"/>
    </contour>
  </outline>
</glyph>
<glyph name="o" format="2">
  <advance width="1712.1579069961297"/>
  <unicode hex="006F"/>
  <anchor x="855.9609262831998" y="0.0" name="bottom"/>
  <anchor x="855.9609262831998" y="600.0" name="center"/>
  <anchor x="1540.7452790071786" y="10.0" name="ogonek"/>
  <anchor x="855.9609262831998" y="1200.0" name="top"/>
  <anchor x="1692.15790699613" y="1200.0" name="topright"/>
  <outline>
    <contour>
      <point x="1624.7507071001558" y="282.98389742929095" type="curve" smooth="yes"/>
      <point x="1624.7507071001558" y="1157.3593254072803" type="line" smooth="yes"/>
      <point x="1624.7507071001558" y="1183.7874061627713"/>
      <point x="1608.965464988961" y="1200.0"/>
      <point x="1581.8261591351447" y="1200.0" type="curve" smooth="yes"/>
      <point x="302.8344695060346" y="1200.0" type="line" smooth="yes"/>
      <point x="280.00394522962335" y="1200.0"/>
      <point x="264.56181187797506" y="1189.5750752163588"/>
      <point x="251.84105512030513" y="1172.1228586280768" type="curve" smooth="yes"/>
      <point x="103.06431524858769" y="972.6793304560206" type="line" smooth="yes"/>
      <point x="90.62743186320874" y="955.4414611293053"/>
      <point x="87.03660737531311" y="940.5031639399222"/>
      <point x="87.03660737531311" y="919.9120748389756" type="curve" smooth="yes"/>
      <point x="87.03660737531311" y="42.64067459272" type="line" smooth="yes"/>
      <point x="87.03660737531311" y="16.212593837228876"/>
      <point x="102.87860869188094" y="0.0"/>
      <point x="129.7340411734062" y="0.0" type="curve" smooth="yes"/>
      <point x="1412.7199542294873" y="0.0" type="line" smooth="yes"/>
      <point x="1435.5285837621468" y="0.0"/>
      <point x="1450.6779034786919" y="9.827218096062381"/>
      <point x="1463.37676549261" y="28.19587920583562" type="curve" smooth="yes"/>
      <point x="1609.4342243252063" y="230.2166418122461" type="line" smooth="yes"/>
      <point x="1621.530475132921" y="247.39775193358832"/>
      <point x="1624.7507071001558" y="261.96545660231044"/>
    </contour>
    <contour>
      <point x="1150.8616926112204" y="414.4295018993125" type="curve" smooth="yes"/>
      <point x="1060.0844083720283" y="297.3103146903031" type="line" smooth="yes"/>
      <point x="1055.407665148461" y="288.620095236678"/>
      <point x="1048.7349189103475" y="283.5910498975925"/>
      <point x="1038.1431241555308" y="283.5910498975925" type="curve" smooth="yes"/>
      <point x="574.9636244908712" y="283.5910498975925" type="line" smooth="yes"/>
      <point x="563.8132021298657" y="283.5910498975925"/>
      <point x="555.9960221397757" y="291.0376373670213"/>
      <point x="555.9960221397757" y="302.5018930433148" type="curve" smooth="yes"/>
      <point x="555.9960221397757" y="758.0052174157418" type="line" smooth="yes"/>
      <point x="555.9960221397757" y="766.0397142247484"/>
      <point x="557.4768708604068" y="772.9956586147857"/>
      <point x="560.9823810696214" y="781.3028034746592" type="curve" smooth="yes"/>
      <point x="640.7335651439757" y="902.8915534874138" type="line" smooth="yes"/>
      <point x="644.6364671362276" y="912.0869035526307"/>
      <point x="652.0262954002832" y="916.4089501024075"/>
      <point x="662.6967441042249" y="916.4089501024075" type="curve" smooth="yes"/>
      <point x="1136.8804491899707" y="916.4089501024075" type="line" smooth="yes"/>
      <point x="1148.0308715509761" y="916.4089501024075"/>
      <point x="1156.161884856354" y="908.8722922391593"/>
      <point x="1156.161884856354" y="898.0625024558179" type="curve" smooth="yes"/>
      <point x="1156.161884856354" y="437.78384716360307" type="line" smooth="yes"/>
      <point x="1156.161884856354" y="430.0631836698844"/>
      <point x="1155.4190604964244" y="422.5095325922681"/>
    </contour>
  </outline>
</glyph>
<glyph name="q" format="2">
  <advance width="1718.442047980772"/>
  <unicode hex="0071"/>
  <anchor x="859.6155259823275" y="0.0" name="bottom"/>
  <anchor x="859.6155259823275" y="1200.0" name="top"/>
  <outline>
    <contour>
      <point x="1621.5865746283662" y="1155.4722510801894" type="curve" smooth="yes"/>
      <point x="1621.5865746283662" y="-300.0" type="line"/>
      <point x="1152.9977523845644" y="-300.0" type="line"/>
      <point x="1152.9977523845644" y="904.6140828092477" type="line" smooth="yes"/>
      <point x="1152.9977523845644" y="911.1343003679838"/>
      <point x="1148.3208093377195" y="916.4089501024075"/>
      <point x="1140.8322925707434" y="916.4089501024075" type="curve" smooth="yes"/>
      <point x="681.2511591996213" y="916.4089501024075" type="line" smooth="yes"/>
      <point x="674.9489366694098" y="916.4089501024075"/>
      <point x="672.1933426626808" y="915.382252370187"/>
      <point x="667.4851157232271" y="908.3199196122516" type="curve" smooth="yes"/>
      <point x="560.1108358786906" y="762.0911079281209" type="line" smooth="yes"/>
      <point x="556.3199285242954" y="757.3414652659133"/>
      <point x="555.0576828745327" y="753.0076795920484"/>
      <point x="555.0576828745327" y="746.8972608703291" type="curve" smooth="yes"/>
      <point x="555.0576828745327" y="295.49856053793144" type="line" smooth="yes"/>
      <point x="555.0576828745327" y="288.9783429791953"/>
      <point x="560.0484592366655" y="283.5910498975925"/>
      <point x="567.2231426883536" y="283.5910498975925" type="curve" smooth="yes"/>
      <point x="1042.6417715521143" y="283.5910498975925" type="line" smooth="yes"/>
      <point x="1057.1370736000786" y="283.5910498975925"/>
      <point x="1066.1227515987903" y="293.32024304882293"/>
      <point x="1070.7565774091804" y="303.7930146730126" type="curve" smooth="yes"/>
      <point x="1153.9977523845644" y="434.89227382283445" type="line"/>
      <point x="1169.9300168236607" y="195.12710774202802" type="line"/>
      <point x="1063.3992203328703" y="19.42208322563106" type="line" smooth="yes"/>
      <point x="1056.467550902912" y="6.01376894904465"/>
      <point x="1046.0619543993828" y="0.0"/>
      <point x="1030.8169703940923" y="0.0" type="curve" smooth="yes"/>
      <point x="131.22372371745973" y="0.0" type="line" smooth="yes"/>
      <point x="102.29296418900077" y="0.0"/>
      <point x="86.46886063073107" y="15.880862763642781"/>
      <point x="86.46886063073107" y="44.52774891981073" type="curve" smooth="yes"/>
      <point x="86.46886063073107" y="916.3806175883649" type="line" smooth="yes"/>
      <point x="86.46886063073107" y="936.3561022434342"/>
      <point x="88.40879383612798" y="953.9267442476951"/>
      <point x="100.38969876053686" y="970.8054080180809" type="curve" smooth="yes"/>
      <point x="237.9861231057485" y="1168.4695471351815" type="line" smooth="yes"/>
      <point x="252.27238520560823" y="1188.979909980441"/>
      <point x="267.58814910397086" y="1200.0"/>
      <point x="291.53376641832114" y="1200.0" type="curve" smooth="yes"/>
      <point x="1577.0588257085553" y="1200.0" type="line" smooth="yes"/>
      <point x="1605.7057118647235" y="1200.0"/>
      <point x="1621.5865746283662" y="1184.1191372363573"/>
    </contour>
  </outline>
</glyph>
<glyph name="r" format="2">
  <advance width="1258.0450250617926"/>
  <unicode hex="0072"/>
  <anchor x="629.1280105389549" y="0.0" name="bottom"/>
  <anchor x="629.1280105389549" y="1200.0" name="top"/>
  <outline>
    <contour>
      <point x="86.46886063073107" y="0.0" type="line"/>
      <point x="555.0576828745327" y="0.0" type="line"/>
      <point x="555.0576828745327" y="734.8513445038732" type="line" smooth="yes"/>
      <point x="555.0576828745327" y="754.0543694834605"/>
      <point x="557.2815667976461" y="769.0866861870543"/>
      <point x="565.6047740722651" y="785.6216433030297" type="curve"/>
      <point x="623.3988220468153" y="885.4940456920583" type="line" smooth="yes"/>
      <point x="632.4600536821355" y="905.8652603490616"/>
      <point x="646.594930742302" y="916.4089501024075"/>
      <point x="670.4390704765872" y="916.4089501024075" type="curve" smooth="yes"/>
      <point x="1208.2827285993842" y="916.4089501024075" type="line"/>
      <point x="1208.2827285993842" y="1200.0" type="line"/>
      <point x="296.76223802972356" y="1200.0" type="line" smooth="yes"/>
      <point x="276.2619240432493" y="1200.0"/>
      <point x="261.564385959021" y="1192.6750972825537"/>
      <point x="249.2061565227669" y="1176.4330311471072" type="curve" smooth="yes"/>
      <point x="103.77824288303967" y="917.9686759086035" type="line" smooth="yes"/>
      <point x="91.42001344678555" y="902.529455549236"/>
      <point x="86.46886063073107" y="887.0129505688094"/>
      <point x="86.46886063073107" y="866.289997787201" type="curve" smooth="yes"/>
    </contour>
  </outline>
</glyph>
<glyph name="s" format="2">
  <advance width="1252.2986283935747"/>
  <unicode hex="0073"/>
  <anchor x="626.4765471432634" y="0.0" name="bottom"/>
  <anchor x="626.4765471432634" y="1200.0" name="top"/>
  <outline>
    <contour>
      <point x="74.62939970225041" y="0.0" type="line"/>
      <point x="968.648161697718" y="0.0" type="line" smooth="yes"/>
      <point x="990.7555425229752" y="0.0"/>
      <point x="1004.64800631766" y="7.6884570805667245"/>
      <point x="1018.6030195327858" y="25.968370371705348" type="curve" smooth="yes"/>
      <point x="1160.6728017214182" y="222.92461802796765" type="line" smooth="yes"/>
      <point x="1174.3512419300932" y="241.99928586760524"/>
      <point x="1178.4421145244064" y="263.0120707159599"/>
      <point x="1178.3853553190334" y="282.78504145330834" type="curve" smooth="yes"/>
      <point x="1178.3853553190334" y="638.6307052654415" type="line" smooth="yes"/>
      <point x="1178.3853553190334" y="664.4442564619003"/>
      <point x="1166.827795374124" y="679.725213524785"/>
      <point x="1143.9396197035198" y="679.725213524785" type="curve" smooth="yes"/>
      <point x="566.9388351104733" y="680.5428791798942" type="line" smooth="yes"/>
      <point x="550.7009910283093" y="680.5428791798942"/>
      <point x="534.1293056397567" y="691.5476580433995"/>
      <point x="534.1293056397567" y="704.3199255104809" type="curve" smooth="yes"/>
      <point x="534.1293056397567" y="786.886325621806" type="line" smooth="yes"/>
      <point x="534.1293056397567" y="799.966047357537"/>
      <point x="535.7662506106633" y="809.2010152979101"/>
      <point x="542.8813144933414" y="823.9464975165174" type="curve" smooth="yes"/>
      <point x="607.0398965041603" y="930.7655526837384" type="line" smooth="yes"/>
      <point x="614.5393391897452" y="943.3973685713365"/>
      <point x="624.2711737163053" y="950.1745947847114"/>
      <point x="638.8442497282307" y="950.1745947847114" type="curve" smooth="yes"/>
      <point x="1164.8408445199282" y="949.2451608459904" type="line"/>
      <point x="1164.8408445199282" y="1200.0" type="line"/>
      <point x="290.7528307738974" y="1200.0" type="line" smooth="yes"/>
      <point x="269.53193452713464" y="1200.0"/>
      <point x="254.5145063767236" y="1191.4299628595634"/>
      <point x="241.79710086450314" y="1175.060717496965" type="curve" smooth="yes"/>
      <point x="95.66533346402463" y="946.7696677491502" type="line" smooth="yes"/>
      <point x="82.46804332941343" y="930.7097710716071"/>
      <point x="78.14765773172574" y="912.9619994887212"/>
      <point x="78.14765773172574" y="892.8184362307118" type="curve" smooth="yes"/>
      <point x="78.14765773172574" y="560.6824106680693" type="line" smooth="yes"/>
      <point x="78.14765773172574" y="534.9256186769836"/>
      <point x="90.64355694187813" y="517.3608823185274"/>
      <point x="112.87726671953023" y="517.3608823185274" type="curve" smooth="yes"/>
      <point x="695.6292970357788" y="517.3608823185274" type="line" smooth="yes"/>
      <point x="712.6257165721713" y="517.3608823185274"/>
      <point x="722.1199113841369" y="506.49896443939383"/>
      <point x="722.1199113841369" y="492.0920603768912" type="curve" smooth="yes"/>
      <point x="722.0631521787637" y="405.37137389668976" type="line" smooth="yes"/>
      <point x="722.0631521787637" y="394.25267169082724"/>
      <point x="720.7468870036757" y="378.9380486989461"/>
      <point x="710.5695943868732" y="364.66621337604397" type="curve" smooth="yes"/>
      <point x="637.4634546602354" y="263.9954589963926" type="line" smooth="yes"/>
      <point x="628.4416558358871" y="251.94928464235628"/>
      <point x="620.2407180444252" y="246.1090699221685"/>
      <point x="605.5201342236994" y="246.1090699221685" type="curve" smooth="yes"/>
      <point x="74.62939970225041" y="246.1090699221685" type="line"/>
    </contour>
  </outline>
</glyph>
<glyph name="t" format="2">
  <advance width="1233.4529184685723"/>
  <unicode hex="0074"/>
  <anchor x="616.8624389483451" y="0.0" name="bottom"/>
  <anchor x="616.8624389483451" y="600.0" name="center"/>
  <anchor x="616.8624389483451" y="1500.0" name="top"/>
  <anchor x="1213.452918468572" y="1600.0" name="topright"/>
  <outline>
    <contour>
      <point x="136.8082823827938" y="0.0" type="curve" smooth="yes"/>
      <point x="1157.1460043861302" y="0.0" type="line"/>
      <point x="1157.1460043861302" y="283.5910498975925" type="line"/>
      <point x="600.3272953487644" y="283.5910498975925" type="line" smooth="yes"/>
      <point x="575.2902105544001" y="283.5910498975925"/>
      <point x="565.4442955962076" y="292.90187430119624"/>
      <point x="565.4442955962076" y="319.1553148054776" type="curve" smooth="yes"/>
      <point x="564.4442955962077" y="1500.0" type="line"/>
      <point x="96.85547335240598" y="1500.0" type="line" smooth="yes"/>
      <point x="96.85547335240598" y="39.66893565809684" type="line" smooth="yes"/>
      <point x="96.85547335240598" y="14.915724236023546"/>
      <point x="111.40060506776847" y="0.0"/>
    </contour>
    <contour>
      <point x="564.4442955962077" y="916.4089501024075" type="line"/>
      <point x="1158.4311082836884" y="916.4089501024075" type="line"/>
      <point x="1158.4311082836884" y="1200.0" type="line"/>
      <point x="564.4442955962077" y="1200.0" type="line"/>
    </contour>
  </outline>
</glyph>
<glyph name="v" format="2">
  <advance width="1622.519342303122"/>
  <unicode hex="0076"/>
  <anchor x="811.432089543707" y="0.0" name="bottom"/>
  <anchor x="811.432089543707" y="1200.0" name="top"/>
  <outline>
    <contour>
      <point x="140.2708347397231" y="0.0" type="curve" smooth="yes"/>
      <point x="1320.4640839507717" y="0.0" type="line" smooth="yes"/>
      <point x="1346.0366756635076" y="0.0"/>
      <point x="1364.2061177087144" y="13.817278991114602"/>
      <point x="1369.6889785831336" y="36.43829910661972" type="curve" smooth="yes"/>
      <point x="1608.709598021564" y="1200.0" type="line"/>
      <point x="1131.7679902898126" y="1200.0" type="line"/>
      <point x="950.1236756978235" y="301.62274420721695" type="line" smooth="yes"/>
      <point x="945.395577312237" y="290.2990886493202"/>
      <point x="937.2408940655185" y="284.54720575326417"/>
      <point x="923.6431837161768" y="284.54720575326417" type="curve" smooth="yes"/>
      <point x="589.8345626250577" y="284.54720575326417" type="line" smooth="yes"/>
      <point x="574.7437128135657" y="284.54720575326417"/>
      <point x="567.175219414346" y="291.98941383638635"/>
      <point x="567.175219414346" y="307.3940969631663" type="curve" smooth="yes"/>
      <point x="567.175219414346" y="1200.0" type="line"/>
      <point x="98.58639717054433" y="1200.0" type="line"/>
      <point x="98.58639717054433" y="42.64067459272" type="line" smooth="yes"/>
      <point x="98.58639717054433" y="16.212593837228876"/>
      <point x="113.13152888590685" y="0.0"/>
    </contour>
  </outline>
</glyph>
<glyph name="w" format="2">
  <advance width="2528.8989683935924"/>
  <unicode hex="0077"/>
  <anchor x="1264.6969188910002" y="0.0" name="bottom"/>
  <anchor x="1264.6969188910002" y="1200.0" name="top"/>
  <outline>
    <contour>
      <point x="138.5392062009322" y="-0.01681547355684449" type="curve" smooth="yes"/>
      <point x="933.8590220551321" y="-0.01681547355684449" type="line" smooth="yes"/>
      <point x="946.5084953768599" y="-0.01681547355684449"/>
      <point x="953.9130104089293" y="6.851779991620125"/>
      <point x="960.525250640778" y="16.60447999927995" type="curve" smooth="yes"/>
      <point x="1066.6858645505333" y="169.5754915169676" type="line"/>
      <point x="1036.468196935104" y="169.5754915169676" type="line"/>
      <point x="1036.468196935104" y="47.750142287396486" type="line" smooth="yes"/>
      <point x="1036.468196935104" y="15.466655507048733"/>
      <point x="1051.2972020227576" y="-0.01681547355684449"/>
      <point x="1105.2600522204873" y="-0.01681547355684449" type="curve" smooth="yes"/>
      <point x="2229.537500597511" y="-0.01681547355684449" type="line" smooth="yes"/>
      <point x="2249.0427161133694" y="-0.01681547355684449"/>
      <point x="2261.4961438270716" y="6.368872915079365"/>
      <point x="2279.7082849956555" y="29.97181185624822" type="curve" smooth="yes"/>
      <point x="2425.572677485784" y="281.3032835195145" type="line" smooth="yes"/>
      <point x="2438.926005392654" y="297.58336553875426"/>
      <point x="2442.9388189434653" y="309.038117182146"/>
      <point x="2442.9388189434653" y="347.5404755618247" type="curve" smooth="yes"/>
      <point x="2442.9388189434653" y="1199.9831845264432" type="line"/>
      <point x="1974.3499966996637" y="1199.9831845264432" type="line"/>
      <point x="1974.3499966996637" y="447.86101819539374" type="line" smooth="yes"/>
      <point x="1974.3499966996637" y="437.8870334360434"/>
      <point x="1971.6429542541355" y="428.36255884789006"/>
      <point x="1965.7063832947938" y="419.8398663538427" type="curve" smooth="yes"/>
      <point x="1895.984087906763" y="298.1209600596298" type="line" smooth="yes"/>
      <point x="1889.7636435751301" y="287.7158124421454"/>
      <point x="1881.4716458170133" y="283.5742344240357"/>
      <point x="1869.3532273056862" y="283.5742344240357" type="curve" smooth="yes"/>
      <point x="1528.2621554097993" y="283.5742344240357" type="line" smooth="yes"/>
      <point x="1513.9078356664818" y="283.5742344240357"/>
      <point x="1505.0570191789056" y="292.05445839095097"/>
      <point x="1505.0570191789056" y="306.40877813426823" type="curve" smooth="yes"/>
      <point x="1505.0570191789056" y="1199.9831845264432" type="line"/>
      <point x="1036.468196935104" y="1199.9831845264432" type="line"/>
      <point x="1036.468196935104" y="424.7554888451508" type="line"/>
      <point x="960.3689835804485" y="299.7458315717231" type="line" smooth="yes"/>
      <point x="953.208608018124" y="289.5870806237288"/>
      <point x="946.4246567866592" y="283.5742344240357"/>
      <point x="933.5172342914493" y="283.5742344240357" type="curve" smooth="yes"/>
      <point x="590.3803556452397" y="283.5742344240357" type="line" smooth="yes"/>
      <point x="576.0260359019223" y="283.5742344240357"/>
      <point x="567.175219414346" y="292.208695201695"/>
      <point x="567.175219414346" y="306.64973409338234" type="curve" smooth="yes"/>
      <point x="567.175219414346" y="1199.9831845264432" type="line"/>
      <point x="98.58639717054433" y="1199.9831845264432" type="line"/>
      <point x="98.58639717054433" y="39.5953609791669" type="line" smooth="yes"/>
      <point x="98.58639717054433" y="14.898908762466702"/>
      <point x="113.13152888590685" y="-0.01681547355684449"/>
    </contour>
  </outline>
</glyph>
<glyph name="x" format="2">
  <advance width="1665.1423776013708"/>
  <unicode hex="0078"/>
  <anchor x="832.3858925403548" y="0.0" name="bottom"/>
  <anchor x="832.3858925403548" y="1200.0" name="top"/>
  <outline>
    <contour>
      <point x="818.3415419322054" y="466.30320536090403" type="line"/>
      <point x="1116.3467928147727" y="466.30320536090403" type="line" smooth="yes"/>
      <point x="1127.7307675344107" y="466.30320536090403"/>
      <point x="1135.3657470719481" y="459.03881834402785"/>
      <point x="1135.3657470719481" y="447.2842511037288" type="curve" smooth="yes"/>
      <point x="1135.3657470719481" y="0.0" type="line"/>
      <point x="1603.9545693157495" y="0.0" type="line"/>
      <point x="1603.9545693157495" y="619.5667862859895" type="line" smooth="yes"/>
      <point x="1603.9545693157495" y="630.6668876333364"/>
      <point x="1596.6901822988734" y="638.5857405431648"/>
      <point x="1584.9356150585745" y="638.5857405431648" type="curve" smooth="yes"/>
      <point x="1310.5013795582372" y="638.5857405431648" type="line"/>
      <point x="1576.7537901233225" y="764.263701720897" type="line" smooth="yes"/>
      <point x="1584.7740823000336" y="768.8941590153734"/>
      <point x="1588.1763586532898" y="775.7971649196347"/>
      <point x="1588.1763586532898" y="785.5517321599337" type="curve" smooth="yes"/>
      <point x="1588.1763586532898" y="1200.0" type="line"/>
      <point x="1119.5875364094884" y="1200.0" type="line"/>
      <point x="1119.5875364094884" y="927.1619608483995" type="line" smooth="yes"/>
      <point x="1119.5875364094884" y="918.0618595010526"/>
      <point x="1114.9525568719512" y="911.1430065912243"/>
      <point x="1107.7943753588597" y="905.8739304093626" type="curve" smooth="yes"/>
      <point x="850.0954238765248" y="749.8942552584965" type="line"/>
      <point x="570.5737954490576" y="749.8942552584965" type="line" smooth="yes"/>
      <point x="559.1898207294196" y="749.8942552584965"/>
      <point x="551.5548411918824" y="756.7880497547117"/>
      <point x="551.5548411918824" y="768.5426169950106" type="curve" smooth="yes"/>
      <point x="551.5548411918824" y="1200.0" type="line"/>
      <point x="82.96601894808067" y="1200.0" type="line"/>
      <point x="82.96601894808067" y="596.630674333411" type="line" smooth="yes"/>
      <point x="82.96601894808067" y="585.5305729860642"/>
      <point x="90.2304059649569" y="577.6117200762358"/>
      <point x="101.61438068459483" y="577.6117200762358" type="curve" smooth="yes"/>
      <point x="357.9355862504929" y="577.6117200762358" type="line"/>
      <point x="72.61037681558878" y="448.9337588985037" type="line" smooth="yes"/>
      <point x="64.59008463887763" y="444.2355035180482"/>
      <point x="60.81721576496008" y="436.89516508817394"/>
      <point x="60.81721576496008" y="427.14059784787503" type="curve" smooth="yes"/>
      <point x="60.81721576496008" y="0.0" type="line"/>
      <point x="529.7766305294227" y="0.0" type="line"/>
      <point x="529.7766305294227" y="285.53036915940925" type="line" smooth="yes"/>
      <point x="529.7766305294227" y="294.6304705067561"/>
      <point x="534.0410175462991" y="302.6838615075152"/>
      <point x="541.1991990593904" y="306.9529376893769" type="curve" smooth="yes"/>
    </contour>
  </outline>
</glyph>
<glyph name="y" format="2">
  <advance width="1623.384804212191"/>
  <unicode hex="0079"/>
  <anchor x="812.0136780804851" y="0.0" name="bottom"/>
  <anchor x="812.0136780804851" y="1200.0" name="top"/>
  <outline>
    <contour>
      <point x="931.6503204158564" y="-300.0" type="line"/>
      <point x="1394.7602216554185" y="-300.0" type="line"/>
      <point x="1609.2044674099723" y="1200.0" type="line" smooth="yes"/>
      <point x="1146.465158691071" y="1200.0" type="line" smooth="yes"/>
      <point x="1014.6960078395091" y="283.5910498975925" type="line"/>
      <point x="588.7607512246683" y="283.5910498975925" type="line" smooth="yes"/>
      <point x="575.7421625296313" y="283.5910498975925"/>
      <point x="567.175219414346" y="291.7874004922168"/>
      <point x="567.175219414346" y="304.8627483926269" type="curve" smooth="yes"/>
      <point x="567.175219414346" y="1200.0" type="line"/>
      <point x="98.58639717054433" y="1200.0" type="line" smooth="yes"/>
      <point x="98.58639717054433" y="39.66893565809684" type="line" smooth="yes"/>
      <point x="98.58639717054433" y="14.915724236023546"/>
      <point x="113.13152888590685" y="0.0"/>
      <point x="138.5392062009322" y="0.0" type="curve" smooth="yes"/>
      <point x="974.3122619485811" y="0.0" type="line"/>
    </contour>
  </outline>
</glyph>
<glyph name="z" format="2">
  <advance width="1229.8172747744572"/>
  <unicode hex="007A"/>
  <anchor x="615.0939336475592" y="0.0" name="bottom"/>
  <anchor x="615.0939336475592" y="600.0" name="center"/>
  <anchor x="615.0939336475592" y="1200.0" name="top"/>
  <outline>
    <contour>
      <point x="109.22842632249683" y="0.0" type="curve" smooth="yes"/>
      <point x="1154.5126804216914" y="0.0" type="line"/>
      <point x="1154.5126804216914" y="278.7114081182958" type="line"/>
      <point x="555.5606948195679" y="278.7114081182958" type="line" smooth="yes"/>
      <point x="543.8031126235429" y="278.7114081182958"/>
      <point x="537.1784411625978" y="288.743667155902"/>
      <point x="537.1784411625978" y="296.36279261395237" type="curve" smooth="yes"/>
      <point x="537.1784411625978" y="318.9797547860925" type="line" smooth="yes"/>
      <point x="537.1784411625978" y="320.12042041992413"/>
      <point x="542.3840386890229" y="340.1078580476958"/>
      <point x="550.9079873192147" y="344.7608366928579" type="curve" smooth="yes"/>
      <point x="1136.2078622491326" y="816.335376808087" type="line" smooth="yes"/>
      <point x="1144.2476999479172" y="820.5576524817654"/>
      <point x="1149.6235750904616" y="828.7705604744694"/>
      <point x="1149.6235750904616" y="840.4935030488314" type="curve" smooth="yes"/>
      <point x="1149.6235750904616" y="1163.8839577448673" type="line" smooth="yes"/>
      <point x="1149.6235750904616" y="1186.4110241403093"/>
      <point x="1136.3484325460586" y="1200.0"/>
      <point x="1112.551376979657" y="1200.0" type="curve" smooth="yes"/>
      <point x="80.43913244369669" y="1200.0" type="line"/>
      <point x="80.43913244369669" y="919.9618435053715" type="line"/>
      <point x="665.9052751672982" y="919.9618435053715" type="line" smooth="yes"/>
      <point x="678.9328465342827" y="919.9618435053715"/>
      <point x="686.8842663715604" y="907.1268070905646"/>
      <point x="686.8842663715604" y="900.680193198103" type="curve" smooth="yes"/>
      <point x="686.8842663715604" y="889.5889812025674" type="line" smooth="yes"/>
      <point x="686.8842663715604" y="887.7938496757838"/>
      <point x="680.8371024646107" y="865.9604024320695"/>
      <point x="672.369913039792" y="861.3032195802797" type="curve" smooth="yes"/>
      <point x="87.51421270736158" y="417.2851485696571" type="line" smooth="yes"/>
      <point x="78.99026407716974" y="412.5712065124941"/>
      <point x="74.43913244369669" y="389.25162738514064"/>
      <point x="74.43913244369669" y="377.52868481077843" type="curve" smooth="yes"/>
      <point x="74.43913244369669" y="34.05842471748667" type="line" smooth="yes"/>
      <point x="74.43913244369669" y="12.858106698377364"/>
      <point x="86.75811913242792" y="0.0"/>
    </contour>
  </outline>
</glyph>
<glyph name="braceleft" format="2">
  <advance width="946.898540030855"/>
  <unicode hex="007B"/>
  <outline>
    <contour>
      <point x="206.73982312057592" y="-133.99015811278122" type="line"/>
      <point x="902.3907761422157" y="-133.99015811278122" type="line"/>
      <point x="902.3907761422157" y="204.25761214477183" type="line"/>
      <point x="641.3209640126822" y="204.25761214477183" type="line"/>
      <point x="641.3209640126822" y="647.2661619792168" type="line"/>
      <point x="505.3251444727713" y="797.8390243652173" type="line"/>
      <point x="505.3251444727713" y="802.1609756347827" type="line"/>
      <point x="641.3209640126822" y="952.7338380207832" type="line"/>
      <point x="641.3209640126822" y="1395.7423878552286" type="line"/>
      <point x="907.3907761422158" y="1395.7423878552286" type="line"/>
      <point x="907.3907761422158" y="1733.9901581127813" type="line"/>
      <point x="206.73982312057592" y="1733.9901581127813" type="line"/>
      <point x="206.73982312057592" y="953.7338380207832" type="line"/>
      <point x="71.87918768812706" y="802.1609756347827" type="line"/>
      <point x="71.87918768812706" y="797.8390243652173" type="line"/>
      <point x="206.73982312057592" y="646.2661619792168" type="line"/>
    </contour>
  </outline>
</glyph>
<glyph name="bar" format="2">
  <advance width="746.0747973202319"/>
  <unicode hex="007C"/>
  <outline>
    <contour>
      <point x="138.74298753821515" y="-119.75388194431962" type="line"/>
      <point x="607.3318097820168" y="-119.75388194431962" type="line"/>
      <point x="607.3318097820168" y="1719.7538819443193" type="line"/>
      <point x="138.74298753821515" y="1719.7538819443193" type="line"/>
    </contour>
  </outline>
</glyph>
<glyph name="asciitilde" format="2">
  <advance width="1374.3074929473212"/>
  <unicode hex="007E"/>
  <outline>
    <contour>
      <point x="65.76746174053002" y="461.43076932887743" type="line"/>
      <point x="348.79708011826114" y="461.43076932887743" type="line"/>
      <point x="364.54521310568833" y="751.8281897098748" type="line" smooth="yes"/>
      <point x="365.9613040254501" y="770.6894757513417"/>
      <point x="376.75980854822626" y="778.2293638770641"/>
      <point x="393.0010302603424" y="772.8672934384888" type="curve" smooth="yes"/>
      <point x="1244.831180679556" y="467.29460850071916" type="line" smooth="yes"/>
      <point x="1261.590392640443" y="460.3473689563531"/>
      <point x="1273.6394981057979" y="468.7832470630591"/>
      <point x="1274.8688082966546" y="488.5373084317952" type="curve" smooth="yes"/>
      <point x="1308.9106237274523" y="1084.5692306711226" type="line"/>
      <point x="1025.51041282906" y="1084.5692306711226" type="line"/>
      <point x="1010.416745734585" y="794.2100259971962" type="line" smooth="yes"/>
      <point x="1008.7768918933546" y="775.3920275350985"/>
      <point x="997.6077948499174" y="767.8088518300069"/>
      <point x="981.3064626869786" y="773.1709222685822" type="curve" smooth="yes"/>
      <point x="129.70007518923387" y="1077.4688616724611" type="line" smooth="yes"/>
      <point x="113.4316766506528" y="1084.2958803151819"/>
      <point x="100.6679948415231" y="1076.350815630782"/>
      <point x="99.43868465066667" y="1056.596754262046" type="curve" smooth="yes"/>
    </contour>
  </outline>
</glyph>
<glyph name="cent" format="2">
  <advance width="1286.393150477279"/>
  <unicode hex="00A2"/>
  <anchor x="649.4317217067126" y="0.0" name="bottom"/>
  <anchor x="649.4317217067126" y="1200.0" name="top"/>
  <outline>
    <contour>
      <point x="753.8717646936009" y="-134.35744805122096" type="line"/>
      <point x="813.5420586641549" y="-134.35744805122096" type="line"/>
      <point x="813.5420586641549" y="1362.9449433101756" type="line"/>
      <point x="753.8717646936009" y="1362.9449433101756" type="line"/>
    </contour>
    <component base="c" xOffset="-2.577832888559207"/>
  </outline>
</glyph>
<glyph name="sterling" format="2">
  <advance width="1897.6931099240091"/>
  <unicode hex="00A3"/>
  <outline>
    <contour>
      <point x="296.70204093216194" y="0.0" type="curve" smooth="yes"/>
      <point x="1775.2794688376798" y="0.0" type="line" smooth="yes"/>
      <point x="1797.8266708664005" y="0.0"/>
      <point x="1811.100157218979" y="13.213375901756228"/>
      <point x="1811.100157218979" y="35.596925459830786" type="curve" smooth="yes"/>
      <point x="1811.100157218979" y="609.6571169885234" type="line"/>
      <point x="1400.715083884384" y="609.6571169885234" type="line"/>
      <point x="1400.715083884384" y="350.49907701837753" type="line" smooth="yes"/>
      <point x="1400.715083884384" y="340.93890233350095"/>
      <point x="1394.0336883156879" y="333.60304087185256"/>
      <point x="1383.7589372870366" y="333.60304087185256" type="curve" smooth="yes"/>
      <point x="747.2444397556097" y="333.60304087185256" type="line" smooth="yes"/>
      <point x="737.0297991777812" y="333.60304087185256"/>
      <point x="730.3484036090849" y="340.2844364405489"/>
      <point x="730.3484036090849" y="350.49907701837753" type="curve" smooth="yes"/>
      <point x="730.3484036090849" y="1047.759846672292" type="line" smooth="yes"/>
      <point x="730.3484036090849" y="1057.8033397884526"/>
      <point x="731.9875408771841" y="1065.9205884973605"/>
      <point x="738.6642076298305" y="1075.2643776305802" type="curve" smooth="yes"/>
      <point x="841.5272168282931" y="1251.9622978240382" type="line" smooth="yes"/>
      <point x="848.31902521239" y="1261.9033310717646"/>
      <point x="855.9082022201007" y="1266.3969591281475"/>
      <point x="868.020818986666" y="1266.3969591281475" type="curve" smooth="yes"/>
      <point x="1523.4621601375222" y="1266.3969591281475" type="line"/>
      <point x="1523.4621601375222" y="1600.0" type="line"/>
      <point x="517.7963343470582" y="1600.0" type="line" smooth="yes"/>
      <point x="499.86769540784553" y="1600.0"/>
      <point x="486.3576718305504" y="1597.8079601763684"/>
      <point x="474.12206977758456" y="1583.3660734904067" type="curve" smooth="yes"/>
      <point x="277.0450909401386" y="1328.066684090481" type="line" smooth="yes"/>
      <point x="263.98138673475535" y="1312.76781019595"/>
      <point x="261.10511547233114" y="1297.8748756518314"/>
      <point x="261.10511547233114" y="1279.4759675734076" type="curve" smooth="yes"/>
      <point x="261.10511547233114" y="35.596925459830786" type="line" smooth="yes"/>
      <point x="261.10511547233114" y="13.58731966786672"/>
      <point x="274.09472845261894" y="0.0"/>
    </contour>
    <contour>
      <point x="11.86394533426302" y="739.7085041970922" type="line"/>
      <point x="1368.8087359351953" y="739.7085041970922" type="line"/>
      <point x="1368.8087359351953" y="905.7472047237497" type="line"/>
      <point x="11.86394533426302" y="905.7472047237497" type="line"/>
    </contour>
  </outline>
</glyph>
<glyph name="yen" format="2">
  <advance width="1853.264330093818"/>
  <unicode hex="00A5"/>
  <outline>
    <contour>
      <point x="1007.5904170494855" y="415.4625150520211" type="line"/>
      <point x="1163.8444074734566" y="0.0" type="line"/>
      <point x="1656.6096893535143" y="1184.537484947979" type="line" smooth="yes"/>
      <point x="1493.6373730334662" y="1600.0" type="line"/>
    </contour>
    <contour>
      <point x="166.9028208955979" y="732.2904502991078" type="curve" smooth="yes"/>
      <point x="1805.2684377812648" y="732.2904502991078" type="line"/>
      <point x="1805.2684377812648" y="912.3884307079738" type="line"/>
      <point x="599.9611710601406" y="912.3884307079738" type="line" smooth="yes"/>
      <point x="590.7495682322207" y="912.3884307079738"/>
      <point x="584.9770927179793" y="916.8565069281683"/>
      <point x="582.2851138623527" y="925.5383658056203" type="curve" smooth="yes"/>
      <point x="513.2293375463116" y="1600.0" type="line"/>
      <point x="44.26992278184893" y="1600.0" type="line" smooth="yes"/>
      <point x="135.96189209961253" y="759.1231930610838" type="line" smooth="yes"/>
      <point x="138.6370554816823" y="741.6685290904643"/>
      <point x="148.4540790559131" y="732.2904502991078"/>
    </contour>
    <contour>
      <point x="77.91595393435584" y="491.19916025241366" type="line"/>
      <point x="1805.2684377812648" y="491.19916025241366" type="line"/>
      <point x="1805.2684377812648" y="669.8088653044986" type="line"/>
      <point x="77.91595393435584" y="669.8088653044986" type="line"/>
    </contour>
  </outline>
</glyph>
<glyph name="copyright" format="2">
  <advance width="2403.9817963035744"/>
  <unicode hex="00A9"/>
  <outline>
    <contour>
      <point x="128.58645399793522" y="0.0" type="curve" smooth="yes"/>
      <point x="2019.8750210217236" y="0.0" type="line" smooth="yes"/>
      <point x="2037.3814183350473" y="0.0"/>
      <point x="2048.7076279285734" y="6.993539173971836"/>
      <point x="2056.233458755114" y="21.57883176193418" type="curve" smooth="yes"/>
      <point x="2296.599885471088" y="523.6809024451389" type="line" smooth="yes"/>
      <point x="2303.6245341245176" y="537.0104927843998"/>
      <point x="2306.878047600635" y="551.3138213931319"/>
      <point x="2306.878047600635" y="565.713620108221" type="curve" smooth="yes"/>
      <point x="2306.878047600635" y="1569.1717605979557" type="line" smooth="yes"/>
      <point x="2306.878047600635" y="1587.9644028811467"/>
      <point x="2295.213043002443" y="1600.0"/>
      <point x="2275.385183765249" y="1600.0" type="curve" smooth="yes"/>
      <point x="383.9565506344473" y="1600.0" type="line" smooth="yes"/>
      <point x="367.0878037405185" y="1600.0"/>
      <point x="355.39870837463604" y="1592.9072817069564"/>
      <point x="347.895130742788" y="1578.348468622703" type="curve" smooth="yes"/>
      <point x="107.19865434563015" y="1075.1944730396963" type="line" smooth="yes"/>
      <point x="100.30681575838594" y="1062.1823870198402"/>
      <point x="97.47434122359985" y="1047.97544158963"/>
      <point x="97.47434122359985" y="1033.5756428745408" type="curve" smooth="yes"/>
      <point x="97.47434122359985" y="30.8383979424341" type="line" smooth="yes"/>
      <point x="97.47434122359985" y="12.0355971188533"/>
      <point x="108.76875330113106" y="0.0"/>
    </contour>
    <contour>
      <point x="569.5839631284879" y="188.06632202509638" type="line" smooth="yes"/>
      <point x="558.1964018223132" y="188.06632202509638"/>
      <point x="551.3641408337372" y="194.75175341447977"/>
      <point x="551.3641408337372" y="205.9257103395757" type="curve" smooth="yes"/>
      <point x="551.3641408337372" y="1021.5460510259325" type="line" smooth="yes"/>
      <point x="551.3641408337372" y="1029.1724334688784"/>
      <point x="553.1899147189781" y="1036.4970998452088"/>
      <point x="556.3334565828272" y="1044.5003691491634" type="curve" smooth="yes"/>
      <point x="692.6802807140505" y="1396.989760985684" type="line" smooth="yes"/>
      <point x="697.9683139547669" y="1407.68001502399"/>
      <point x="705.7249327213447" y="1411.9336779749037"/>
      <point x="717.7101887589369" y="1411.9336779749037" type="curve" smooth="yes"/>
      <point x="1834.7246362082437" y="1411.9336779749037" type="line" smooth="yes"/>
      <point x="1845.4678901618563" y="1411.9336779749037"/>
      <point x="1852.5840245227232" y="1405.1881361346977"/>
      <point x="1852.5840245227232" y="1394.0844482008142" type="curve" smooth="yes"/>
      <point x="1852.5840245227232" y="581.6249810644044" type="line" smooth="yes"/>
      <point x="1852.5840245227232" y="573.9985986214585"/>
      <point x="1850.8141347792885" y="566.7899268377566"/>
      <point x="1847.6147087736333" y="558.6706629411736" type="curve" smooth="yes"/>
      <point x="1712.2691431329267" y="202.9375393989532" type="line" smooth="yes"/>
      <point x="1706.941166160394" y="192.34015169501623"/>
      <point x="1698.9406177533415" y="188.06632202509638"/>
      <point x="1687.1959401107747" y="188.06632202509638" type="curve" smooth="yes"/>
    </contour>
    <contour>
      <point x="670.963076795527" y="248.95045155483268" type="curve" smooth="yes"/>
      <point x="1682.222857507405" y="248.95045155483268" type="line"/>
      <point x="1680.7717510954558" y="525.5437864675719" type="line"/>
      <point x="1119.7989415865836" y="525.5437864675719" type="line" smooth="yes"/>
      <point x="1095.5812846594342" y="525.5437864675719"/>
      <point x="1082.063791671312" y="532.4097892259155"/>
      <point x="1082.063791671312" y="556.8286361211735" type="curve" smooth="yes"/>
      <point x="1082.063791671312" y="873.5481763233522" type="line" smooth="yes"/>
      <point x="1082.063791671312" y="885.4116859834303"/>
      <point x="1084.0437932144296" y="897.3878376186827"/>
      <point x="1089.5996090607287" y="910.2969746535157" type="curve" smooth="yes"/>
      <point x="1159.9699974728371" y="1047.8938086613612" type="line" smooth="yes"/>
      <point x="1171.192879294951" y="1068.742215755491"/>
      <point x="1190.8778880569737" y="1073.889007408176"/>
      <point x="1219.8731111897287" y="1073.889007408176" type="curve" smooth="yes"/>
      <point x="1787.3651973172755" y="1073.889007408176" type="line"/>
      <point x="1787.3651973172755" y="1350.482342320915" type="line"/>
      <point x="837.0684941653053" y="1350.482342320915" type="line" smooth="yes"/>
      <point x="810.915224682391" y="1350.482342320915"/>
      <point x="790.7845699793344" y="1337.02809556779"/>
      <point x="778.9044681337572" y="1314.5591221135178" type="curve" smooth="yes"/>
      <point x="639.0061059896154" y="1036.5523570057585" type="line" smooth="yes"/>
      <point x="628.555781151113" y="1016.6395262093245"/>
      <point x="623.3467192848975" y="996.5666999861794"/>
      <point x="623.3467192848975" y="960.7492941098395" type="curve" smooth="yes"/>
      <point x="623.40682973572" y="296.8764160717336" type="line" smooth="yes"/>
      <point x="623.40682973572" y="267.8229769713988"/>
      <point x="640.5845621005682" y="248.95045155483268"/>
    </contour>
  </outline>
</glyph>
<glyph name="registered" format="2">
  <advance width="2403.9817963035744"/>
  <unicode hex="00AE"/>
  <outline>
    <contour>
      <point x="128.58645399793522" y="0.0" type="curve" smooth="yes"/>
      <point x="2019.8750210217236" y="0.0" type="line" smooth="yes"/>
      <point x="2037.3814183350473" y="0.0"/>
      <point x="2048.7076279285734" y="6.993539173971836"/>
      <point x="2056.233458755114" y="21.57883176193418" type="curve" smooth="yes"/>
      <point x="2296.599885471088" y="523.6809024451389" type="line" smooth="yes"/>
      <point x="2303.6245341245176" y="537.0104927843998"/>
      <point x="2306.878047600635" y="551.3138213931319"/>
      <point x="2306.878047600635" y="565.713620108221" type="curve" smooth="yes"/>
      <point x="2306.878047600635" y="1569.1717605979557" type="line" smooth="yes"/>
      <point x="2306.878047600635" y="1587.9644028811467"/>
      <point x="2295.213043002443" y="1600.0"/>
      <point x="2275.385183765249" y="1600.0" type="curve" smooth="yes"/>
      <point x="383.9565506344473" y="1600.0" type="line" smooth="yes"/>
      <point x="367.0878037405185" y="1600.0"/>
      <point x="355.39870837463604" y="1592.9072817069564"/>
      <point x="347.895130742788" y="1578.348468622703" type="curve" smooth="yes"/>
      <point x="107.19865434563015" y="1075.1944730396963" type="line" smooth="yes"/>
      <point x="100.30681575838594" y="1062.1823870198402"/>
      <point x="97.47434122359985" y="1047.97544158963"/>
      <point x="97.47434122359985" y="1033.5756428745408" type="curve" smooth="yes"/>
      <point x="97.47434122359985" y="30.8383979424341" type="line" smooth="yes"/>
      <point x="97.47434122359985" y="12.0355971188533"/>
      <point x="108.76875330113106" y="0.0"/>
    </contour>
    <contour>
      <point x="569.5839631284879" y="188.06632202509638" type="line" smooth="yes"/>
      <point x="558.1964018223132" y="188.06632202509638"/>
      <point x="551.3641408337372" y="194.75175341447977"/>
      <point x="551.3641408337372" y="205.9257103395757" type="curve" smooth="yes"/>
      <point x="551.3641408337372" y="1021.5460510259325" type="line" smooth="yes"/>
      <point x="551.3641408337372" y="1029.1724334688784"/>
      <point x="553.1899147189781" y="1036.4970998452088"/>
      <point x="556.3334565828272" y="1044.5003691491634" type="curve" smooth="yes"/>
      <point x="692.6802807140505" y="1396.989760985684" type="line" smooth="yes"/>
      <point x="697.9683139547669" y="1407.68001502399"/>
      <point x="705.7249327213447" y="1411.9336779749037"/>
      <point x="717.7101887589369" y="1411.9336779749037" type="curve" smooth="yes"/>
      <point x="1834.7246362082437" y="1411.9336779749037" type="line" smooth="yes"/>
      <point x="1845.4678901618563" y="1411.9336779749037"/>
      <point x="1852.5840245227232" y="1405.1881361346977"/>
      <point x="1852.5840245227232" y="1394.0844482008142" type="curve" smooth="yes"/>
      <point x="1852.5840245227232" y="581.6249810644044" type="line" smooth="yes"/>
      <point x="1852.5840245227232" y="573.9985986214585"/>
      <point x="1850.8141347792885" y="566.7899268377566"/>
      <point x="1847.6147087736333" y="558.6706629411736" type="curve" smooth="yes"/>
      <point x="1712.2691431329267" y="202.9375393989532" type="line" smooth="yes"/>
      <point x="1706.941166160394" y="192.34015169501623"/>
      <point x="1698.9406177533415" y="188.06632202509638"/>
      <point x="1687.1959401107747" y="188.06632202509638" type="curve" smooth="yes"/>
    </contour>
    <contour>
      <point x="622.4277762725169" y="253.04409466802375" type="line"/>
      <point x="1085.537677512079" y="253.04409466802375" type="line"/>
      <point x="1085.537677512079" y="845.0765638733038" type="line" smooth="yes"/>
      <point x="1085.537677512079" y="863.9957154806"/>
      <point x="1086.6753863449478" y="879.3797136027451"/>
      <point x="1095.6540657383277" y="895.8468626724605" type="curve"/>
      <point x="1171.6368458942782" y="1038.077353675345" type="line" smooth="yes"/>
      <point x="1180.9062501596668" y="1058.1610626090924"/>
      <point x="1194.7157095705056" y="1067.9138331836052"/>
      <point x="1220.543147592825" y="1067.9138331836052" type="curve" smooth="yes"/>
      <point x="1787.863928284513" y="1067.9138331836052" type="line"/>
      <point x="1787.863928284513" y="1350.369698973736" type="line"/>
      <point x="844.3372442239413" y="1350.369698973736" type="line" smooth="yes"/>
      <point x="824.491396130419" y="1350.369698973736"/>
      <point x="807.5027329146875" y="1343.718202751637"/>
      <point x="796.7811627169847" y="1326.7426196700208" type="curve" smooth="yes"/>
      <point x="639.4532851525345" y="1022.4043027425874" type="line" smooth="yes"/>
      <point x="629.062371141573" y="1006.3977235898637"/>
      <point x="622.4277762725169" y="988.3265462661186"/>
      <point x="622.4277762725169" y="967.3197201122193" type="curve" smooth="yes"/>
    </contour>
  </outline>
</glyph>
<glyph name="degree" format="2">
  <advance width="1069.1742796307778"/>
  <unicode hex="00B0"/>
  <outline>
    <contour>
      <point x="80.59878310731075" y="1054.0" type="curve" smooth="yes"/>
      <point x="795.5829774183721" y="1054.0" type="line" smooth="yes"/>
      <point x="814.0478597682488" y="1054.0"/>
      <point x="827.2530230982272" y="1060.1432229459915"/>
      <point x="839.8931689100732" y="1070.13019263266" type="curve" smooth="yes"/>
      <point x="1008.205661457707" y="1224.2584689043697" type="line" smooth="yes"/>
      <point x="1020.7408918386132" y="1233.3936642086196"/>
      <point x="1025.3095030176883" y="1245.6345265950697"/>
      <point x="1025.3095030176883" y="1260.119805065543" type="curve" smooth="yes"/>
      <point x="1025.3095030176883" y="1571.4733535560438" type="line" smooth="yes"/>
      <point x="1025.3095030176883" y="1589.2918230425512"/>
      <point x="1013.2318706604225" y="1600.0"/>
      <point x="989.3594212371552" y="1600.0" type="curve" smooth="yes"/>
      <point x="274.1826187698567" y="1600.0" type="line" smooth="yes"/>
      <point x="255.71773641997999" y="1600.0"/>
      <point x="242.27143939007647" y="1593.5729036817174"/>
      <point x="229.63129357823055" y="1583.8698073673402" type="curve" smooth="yes"/>
      <point x="60.96861817307085" y="1429.870989916366" type="line" smooth="yes"/>
      <point x="48.75654878905294" y="1421.2650279933496"/>
      <point x="43.86477661308983" y="1408.3654734049305"/>
      <point x="43.86477661308983" y="1394.3802462758542" type="curve" smooth="yes"/>
      <point x="43.86477661308983" y="1082.5266464439565" type="line" smooth="yes"/>
      <point x="43.86477661308983" y="1064.708176957449"/>
      <point x="57.794131770022425" y="1054.0"/>
    </contour>
    <contour>
      <point x="382.15432029127464" y="1176.888445861417" type="line" smooth="yes"/>
      <point x="376.64813669148015" y="1176.888445861417"/>
      <point x="373.24110803914436" y="1180.449889065308"/>
      <point x="373.24110803914436" y="1185.2486681106002" type="curve" smooth="yes"/>
      <point x="373.24110803914436" y="1395.353467034624" type="line" smooth="yes"/>
      <point x="373.24110803914436" y="1398.816367659103"/>
      <point x="374.3520111919157" y="1402.427140754427"/>
      <point x="377.65647607567234" y="1405.675359838012" type="curve" smooth="yes"/>
      <point x="443.190472618469" y="1474.4614706436782" type="line" smooth="yes"/>
      <point x="446.4276672640814" y="1477.8944090521904"/>
      <point x="449.9618850280739" y="1478.5243598344784"/>
      <point x="453.8066868261776" y="1478.5243598344784" type="curve" smooth="yes"/>
      <point x="687.4332915325303" y="1478.5243598344784" type="line" smooth="yes"/>
      <point x="692.5261429392979" y="1478.5243598344784"/>
      <point x="696.3037641122946" y="1474.9629166305876"/>
      <point x="696.3037641122946" y="1470.1641375852953" type="curve" smooth="yes"/>
      <point x="696.3037641122946" y="1259.1445647521518" type="line" smooth="yes"/>
      <point x="696.3037641122946" y="1255.6816641276725"/>
      <point x="695.5165003228195" y="1252.070891032349"/>
      <point x="691.9485065265891" y="1248.8827823995862" type="curve" smooth="yes"/>
      <point x="623.4237562667224" y="1180.877760373287" type="line" smooth="yes"/>
      <point x="619.8287360058005" y="1177.1309886494873"/>
      <point x="616.6772995879368" y="1176.888445861417"/>
      <point x="613.0313049804823" y="1176.888445861417" type="curve" smooth="yes"/>
    </contour>
  </outline>
</glyph>
<glyph name="multiply" format="2">
  <advance width="1237.3721357748723"/>
  <unicode hex="00D7"/>
  <outline>
    <contour>
      <point x="677.0658332749714" y="531.6592391635351" type="line"/>
      <point x="977.9922142193369" y="561.5476598690319" type="line"/>
      <point x="852.4066590044229" y="972.3479228524304" type="line"/>
      <point x="622.8057501478795" y="1073.9186490011095" type="line"/>
      <point x="615.990999744385" y="1053.6492146654339" type="line"/>
      <point x="212.67278093865264" y="1024.3283860136678" type="line"/>
      <point x="386.9238660151679" y="969.6345794865092" type="line"/>
      <point x="613.2203183174339" y="868.0640080286814" type="line"/>
    </contour>
    <contour>
      <point x="244.3320828497421" y="338.2543726169599" type="line"/>
      <point x="347.2876158782444" y="506.27824880089594" type="line"/>
      <point x="702.8334450665698" y="684.4502726502787" type="line"/>
      <point x="1068.9818420799559" y="900.3997600779799" type="line"/>
      <point x="1000.4466283022309" y="768.0943153085424" type="line"/>
      <point x="891.6723166206853" y="601.2924970712893" type="line"/>
      <point x="487.8315500914197" y="778.9430563058553" type="line"/>
      <point x="215.69294077340209" y="562.7098501967141" type="line"/>
    </contour>
  </outline>
</glyph>
